<?xml version="1.0" encoding="utf-8"?>
<!-- Generator: Adobe Illustrator 22.1.0, SVG Export Plug-In . SVG Version: 6.00 Build 0)  -->
<svg version="1.1" id="Layer_1" xmlns="http://www.w3.org/2000/svg" xmlns:xlink="http://www.w3.org/1999/xlink" x="0px" y="0px"
	 viewBox="0 0 1400 980" style="enable-background:new 0 0 1400 980;" xml:space="preserve">
<style type="text/css">
	.st0{fill:#0D0E1F;}
	.st1{fill:#6E5535;}
	.st2{fill:#B3B3B3;}
	.st3{fill:#808080;}
	.st4{fill:#999999;}
	.st5{fill:#503B2B;}
	.st6{fill:#420104;}
	.st7{fill:#C7C8CA;}
	.st8{fill:#F4BB3A;}
	.st9{fill:#28000A;}
	.st10{fill:#FFFFFF;}
	.st11{fill:#F09B36;}
	.st12{fill:#3F2521;}
	.st13{fill:#9C3D19;}
	.st14{fill:#ED7C31;}
	.st15{fill:#B25538;}
	.st16{fill:#883E26;}
	.st17{fill:#937963;}
	.st18{fill:#E18E4E;}
	.st19{fill:#F8DB94;}
	.st20{fill:#E6E6E6;}
	.st21{fill:#C2AD76;}
	.st22{fill:#B55232;}
	.st23{fill:#D6562B;}
	.st24{fill:#1F0400;}
	.st25{fill:#8E3613;}
	.st26{fill:#722A0F;}
	.st27{fill:#7989A3;}
	.st28{fill:#DDD4DA;}
	.st29{fill:#F9E3B2;}
	.st30{fill:#7F2E19;}
	.st31{fill:#B78D7B;}
	.st32{fill:#4F1A06;}
	.st33{opacity:0.18;}
	.st34{fill:none;stroke:#FFFFFF;stroke-width:2;stroke-miterlimit:10;}
	.st35{filter:url(#Adobe_OpacityMaskFilter);}
	.st36{mask:url(#SVGID_1_);}
	.st37{fill:none;stroke:#525252;stroke-miterlimit:10;}
	.st38{fill:none;stroke:#525252;stroke-width:3;stroke-miterlimit:10;}
	.st39{clip-path:url(#SVGID_9_);}
	.st40{fill-rule:evenodd;clip-rule:evenodd;fill:url(#SVGID_10_);}
	.st41{fill-rule:evenodd;clip-rule:evenodd;}
	.st42{fill:#916C58;}
	.st43{fill-rule:evenodd;clip-rule:evenodd;fill:#916C58;}
	.st44{fill:#917A76;}
	.st45{fill-rule:evenodd;clip-rule:evenodd;fill:#A59088;}
	.st46{opacity:0.5;fill-rule:evenodd;clip-rule:evenodd;fill:#7E573D;}
	.st47{opacity:0.5;fill-rule:evenodd;clip-rule:evenodd;fill:url(#SVGID_11_);}
	.st48{fill:#7A614E;}
	.st49{clip-path:url(#SVGID_13_);}
	.st50{fill-rule:evenodd;clip-rule:evenodd;fill:url(#SVGID_14_);}
	.st51{fill:#32292E;}
	.st52{fill-rule:evenodd;clip-rule:evenodd;fill:#32292E;}
	.st53{fill:#C9AEA9;}
	.st54{fill:#BCA4A3;}
	.st55{fill:#C99A80;}
	.st56{fill-rule:evenodd;clip-rule:evenodd;fill:#E5D4D1;}
	.st57{fill:#CDB8B6;}
	.st58{opacity:0.5;fill-rule:evenodd;clip-rule:evenodd;fill:#B5805D;}
	.st59{opacity:0.5;fill-rule:evenodd;clip-rule:evenodd;fill:url(#SVGID_15_);}
	.st60{fill:#B19076;}
	.st61{filter:url(#Adobe_OpacityMaskFilter_1_);}
	.st62{opacity:0.75;mask:url(#SVGID_16_);}
	.st63{clip-path:url(#SVGID_18_);}
	.st64{opacity:0.5;}
	.st65{fill:#C59B6D;}
	.st66{fill:url(#SVGID_19_);}
	.st67{opacity:0.8;fill:url(#SVGID_20_);}
	.st68{fill:url(#SVGID_21_);}
	.st69{opacity:0.8;fill:url(#SVGID_22_);}
	.st70{fill:url(#SVGID_23_);}
	.st71{opacity:0.8;fill:url(#SVGID_24_);}
	.st72{fill:url(#SVGID_25_);}
	.st73{opacity:0.8;fill:url(#SVGID_26_);}
	.st74{fill:none;}
	.st75{font-family:'Algerian';}
	.st76{font-size:45px;}
</style>
<g id="Layer_1_1_">
	<rect class="st0" width="1400" height="980"/>
	<path class="st1" d="M1192.1,769.6H217.3V186.8c0-21.6,17.5-39.2,39.2-39.2h896.4c21.6,0,39.2,17.5,39.2,39.2V769.6z"/>
</g>
<g id="Layer_4">
	<path class="st2" d="M231,408.5v-83.2c0-3.4,2.8-6.2,6.2-6.2h46.5c3.4,0,6.2,2.8,6.2,6.2v83.2L231,408.5L231,408.5z"/>
	<g>
		<path class="st3" d="M221.4,332.9h9.6v9.1h-9.4c-1,0.1-1,0.6-1,1.3v41.2c0,0.5,0,1.2,0.9,1.3h9.5v9.1h-9.7
			c-3.9-0.1-9.8-2.9-9.8-10.3v-41.2C211.6,335.9,217.4,333,221.4,332.9L221.4,332.9z"/>
	</g>
	<path class="st4" d="M258.6,408.5v-89.4h25.1c3.4,0,6.2,2.8,6.2,6.2v83.2L258.6,408.5L258.6,408.5z"/>
	<path class="st2" d="M321.1,408.5v-83.2c0-3.4,2.8-6.2,6.2-6.2h46.6c3.4,0,6.2,2.8,6.2,6.2v83.2L321.1,408.5L321.1,408.5z"/>
	<g>
		<path class="st3" d="M313.4,332.9h9.6v9.1h-9.4c-1,0.1-1,0.6-1,1.3v41.2c0,0.5,0,1.2,0.9,1.3h9.5v9.1h-9.7
			c-3.9-0.1-9.8-2.9-9.8-10.3v-41.2C303.6,335.9,309.4,333,313.4,332.9L313.4,332.9z"/>
	</g>
	<path class="st4" d="M350.6,408.5v-89.4h25.2c3.4,0,6.2,2.8,6.2,6.2v83.2L350.6,408.5L350.6,408.5z"/>
	<path class="st2" d="M1114,408.5v-83.2c0-3.4,2.8-6.2,6.2-6.2h46.6c3.4,0,6.2,2.8,6.2,6.2v83.2L1114,408.5L1114,408.5z"/>
	<g>
		<path class="st3" d="M1103.7,330.5h10.4v9.8H1104c-1.1,0.1-1.1,0.6-1.1,1.4V386c0,0.6,0,1.3,1,1.4h10.2v9.8h-10.4
			c-4.2-0.1-10.5-3.1-10.5-11.1v-44.3C1093.1,333.8,1099.4,330.6,1103.7,330.5L1103.7,330.5z"/>
	</g>
	<path class="st4" d="M1143.5,408.5v-89.4h25.2c3.4,0,6.2,2.8,6.2,6.2v83.2L1143.5,408.5L1143.5,408.5z"/>
	<path class="st2" d="M1019.1,413v-83.2c0-3.4,2.8-6.2,6.2-6.2h46.6c3.4,0,6.2,2.8,6.2,6.2v83.2L1019.1,413L1019.1,413z"/>
	<g>
		<path class="st3" d="M1009.5,337.4h9.6v9.1h-9.4c-1,0.1-1,0.6-1,1.3V389c0,0.5,0,1.2,0.9,1.3h9.5v9.1h-9.7
			c-3.9-0.1-9.8-2.9-9.8-10.3v-41.2C999.7,340.4,1005.5,337.5,1009.5,337.4L1009.5,337.4z"/>
	</g>
	<path class="st4" d="M1046.7,413v-89.4h25.2c3.4,0,6.2,2.8,6.2,6.2v83.2L1046.7,413L1046.7,413z"/>
	<rect x="214.3" y="214.9" class="st5" width="974.8" height="107.9"/>
	<path class="st6" d="M283.7,594.4c0,13.3,0,68.4,0,68.4h-66c0,0,0-55.2,0-68.4c0-7.2,2.1-14.2,5-20.9c2.2-5,4.8-9.9,7.2-14.5
		c3-5.7,5.4-11.7,7.1-17.9c0.4-1.6,3.4-17.6,3-17.6h21.2c-0.4,0,2.6,16,3,17.6c1.7,6.2,4.1,12.2,7.1,17.9c2.4,4.6,5,9.5,7.2,14.5
		C281.6,580.1,283.7,587.1,283.7,594.4z"/>
	<path class="st7" d="M263,520.5h-24.6c-1.4,0-2.5,1.1-2.5,2.5l0,0c0,1.4,1.1,2.5,2.5,2.5H263c1.4,0,2.5-1.1,2.5-2.5l0,0
		C265.6,521.7,264.4,520.5,263,520.5z"/>
	<rect x="242.6" y="507.8" class="st6" width="16.2" height="10.7"/>
	<circle class="st8" cx="250.7" cy="612.8" r="24.1"/>
	<path class="st9" d="M278.7,574.8h-55.9c2.2-5,4.8-9.9,7.2-14.5c3-5.7,5.4-11.7,7.1-17.9c0.4-1.6,3.4-17.6,3-17.6h21.2
		c-0.4,0,2.6,16,3,17.6c1.7,6.2,4.1,12.2,7.1,17.9C273.9,564.9,276.5,569.8,278.7,574.8z"/>
	<g>
		<g>
			<path class="st10" d="M229.5,652.5c8.8,0,17.6,0,26.3,0c2.6,0,2.6-4,0-4c-8.8,0-17.6,0-26.3,0
				C226.9,648.5,226.9,652.5,229.5,652.5L229.5,652.5z"/>
		</g>
	</g>
	<g>
		<g>
			<path class="st10" d="M265.6,652.5c2.6,0,2.6-4,0-4S263,652.5,265.6,652.5L265.6,652.5z"/>
		</g>
	</g>
	<g>
		<g>
			<path class="st10" d="M242.6,623.8c7.1,0,7.1-11,0-11C235.5,612.8,235.5,623.8,242.6,623.8L242.6,623.8z"/>
		</g>
	</g>
	<g>
		<g>
			<path class="st10" d="M250.7,603.4c4.5,0,4.5-7,0-7S246.2,603.4,250.7,603.4L250.7,603.4z"/>
		</g>
	</g>
	<rect x="214.3" y="417.1" class="st6" width="974.8" height="18.6"/>
	<polygon class="st11" points="1186.6,414 211.8,414 211.6,409.4 1186.4,409.4 	"/>
	<rect x="214.3" y="436.1" class="st5" width="974.8" height="22"/>
	<g>
		<g>
			<path class="st12" d="M411.9,219.8c2.5,0,5,0,7.5,0c2.6,0,2.6-4,0-4c-2.5,0-5,0-7.5,0S409.3,219.8,411.9,219.8L411.9,219.8z"/>
		</g>
	</g>
	<g>
		<g>
			<path class="st12" d="M430.6,222.4c2.6,0,2.6-4,0-4S428,222.4,430.6,222.4L430.6,222.4z"/>
		</g>
	</g>
	<g>
		<g>
			<path class="st10" d="M243.9,393.6c4.7,0,9.3,0,14,0c2.6,0,2.6-4,0-4c-4.7,0-9.3,0-14,0C241.3,389.6,241.3,393.6,243.9,393.6
				L243.9,393.6z"/>
		</g>
	</g>
	<g>
		<g>
			<path class="st10" d="M335.8,393.6c4.7,0,9.3,0,14,0c2.6,0,2.6-4,0-4c-4.7,0-9.3,0-14,0C333.2,389.6,333.2,393.6,335.8,393.6
				L335.8,393.6z"/>
		</g>
	</g>
	<g>
		<g>
			<path class="st10" d="M1117,401.3c4.7,0,9.3,0,14,0c2.6,0,2.6-4,0-4c-4.7,0-9.3,0-14,0C1114.5,397.3,1114.5,401.3,1117,401.3
				L1117,401.3z"/>
		</g>
	</g>
	<g>
		<g>
			<path class="st10" d="M1031.5,398.1c4.7,0,9.3,0,14,0c2.6,0,2.6-4,0-4c-4.7,0-9.3,0-14,0C1028.9,394.1,1028.9,398.1,1031.5,398.1
				L1031.5,398.1z"/>
		</g>
	</g>
</g>
<g id="Layer_3">
	<path class="st13" d="M1132.8,450.2c10.4,0.5,20.5,6.5,25.8,15.5s5.8,20.7,1.2,30.1c-3.6,7.3-10.1,13.1-17.8,15.9l-6.3-13.2
		c4.7-1.3,8.9-4.7,11-9c2.4-5,2.2-11.5-0.7-16.3c-2.8-4.7-8.4-8.1-13.9-8.4h-0.1L1132.8,450.2z"/>
	<path class="st8" d="M1161.7,548.5l-4.7,43.1c-0.2,1.5-0.4,3-0.8,4.4l-13.6,49.8h-72.2l-13.6-49.8c-0.4-1.5-0.7-2.9-0.8-4.4
		l-4.6-43.1c-1.1-10.3,0.9-20.8,5.7-29.6l19.8-36.4l1.5-2.7l-0.6-4.8l-4.5-36h66.7l-4.5,36l-0.6,4.8l1.5,2.7l19.8,36.4
		C1160.8,527.7,1162.8,538.1,1161.7,548.5z"/>
	<path class="st14" d="M1162.6,548.5l-4.7,43.1c-0.2,1.5-0.4,3-0.8,4.4l-13.6,49.8h-29.6V438.9h26.9l-4.5,36l-0.6,4.8l1.5,2.7
		l19.8,36.4C1161.7,527.7,1163.7,538.1,1162.6,548.5z"/>
	<path class="st15" d="M385,555.8v93.3c0,8.4-6.8,15.3-15.3,15.3h-61.2c-8.4,0-15.3-6.8-15.3-15.3v-93.3l30-26v-78.7h31.7v78.7
		L385,555.8z"/>
	<path class="st16" d="M331.5,451.2v213.2h-22.9c-8.4,0-15.3-6.8-15.3-15.3v-93.3l30-26v-78.7L331.5,451.2L331.5,451.2z"/>
	<path class="st8" d="M366.5,579.3v45c0,8.6-6.9,15.5-15.5,15.5h-23.7c-8.6,0-15.5-6.9-15.5-15.5v-45c0-8.6,6.9-15.5,15.5-15.5H351
		C359.6,563.8,366.5,570.8,366.5,579.3z"/>
	<path class="st17" d="M360.6,451.2h-42.8c-1.6,0-3-1.3-3-3v-2.8c0-1.6,1.3-3,3-3h42.8c1.6,0,3,1.3,3,3v2.8
		C363.5,449.8,362.2,451.2,360.6,451.2z"/>
	<rect x="326.8" y="427.2" class="st8" width="25.2" height="15.5"/>
	<rect x="326.8" y="451.2" class="st16" width="28.6" height="8.3"/>
	<g>
		<g>
			<path class="st18" d="M344.5,476.2c0,9.3,0,18.7,0,28c0,2.6,4,2.6,4,0c0-9.3,0-18.7,0-28C348.5,473.7,344.5,473.6,344.5,476.2
				L344.5,476.2z"/>
		</g>
	</g>
	<g>
		<g>
			<path class="st18" d="M346.3,517c2.6,0,2.6-4,0-4C343.7,513,343.7,517,346.3,517L346.3,517z"/>
		</g>
	</g>
	<g>
		<g>
			<path class="st18" d="M374,570.2c0,4.8,0,9.7,0,14.5c0,2.6,4,2.6,4,0c0-4.8,0-9.7,0-14.5C378,567.7,374,567.6,374,570.2
				L374,570.2z"/>
		</g>
	</g>
	<path class="st6" d="M567,552.4v93.3c0,8.4-6.8,15.3-15.3,15.3h-61.2c-8.4,0-15.3-6.8-15.3-15.3v-93.3l30-26v-78.7h31.7v78.7
		L567,552.4z"/>
	<path class="st9" d="M513.5,447.8V661h-22.9c-8.4,0-15.3-6.8-15.3-15.3v-93.3l30-26v-78.7L513.5,447.8L513.5,447.8z"/>
	<path class="st19" d="M548.5,574.9v45c0,8.6-6.9,15.5-15.5,15.5h-23.7c-8.6,0-15.5-6.9-15.5-15.5v-45c0-8.6,6.9-15.5,15.5-15.5H533
		C541.6,559.4,548.5,566.4,548.5,574.9z"/>
	<path class="st17" d="M542.6,447.8h-42.8c-1.6,0-3-1.3-3-3V442c0-1.6,1.3-3,3-3h42.8c1.6,0,3,1.3,3,3v2.8
		C545.5,446.4,544.2,447.8,542.6,447.8z"/>
	<rect x="508.8" y="423.8" class="st19" width="25.2" height="15.5"/>
	<rect x="507.1" y="447.8" class="st9" width="28.6" height="8.3"/>
	<g>
		<g>
			<path class="st18" d="M527.5,477.7c0,65.4,0-38.3,0,28c0,2.6,4,2.6,4,0c0-9.3,0-18.7,0-28C531.5,475.2,527.5,475.1,527.5,477.7
				L527.5,477.7z"/>
		</g>
	</g>
	<g>
		<g>
			<path class="st18" d="M463.3,517"/>
		</g>
	</g>
	<g>
		<g>
			<path class="st18" d="M555.8,593.5c0,4.8,0,9.7,0,14.5c0,2.6,4,2.6,4,0c0-65.6,0,50.6,0-14.5C559.8,591,555.8,590.9,555.8,593.5
				L555.8,593.5z"/>
		</g>
	</g>
	<g>
		<g>
			<path class="st14" d="M662.1,644.3L662.1,644.3"/>
		</g>
	</g>
	<g>
		<g>
			<path class="st14" d="M663.6,637.5L663.6,637.5"/>
		</g>
	</g>
	<g>
		<g>
			<path class="st14" d="M656.6,633.5"/>
		</g>
	</g>
	<g>
		<g>
			<path class="st14" d="M659.1,591"/>
		</g>
	</g>
	<g>
		<g>
			<path class="st20" d="M651.1,555"/>
			<path class="st20" d="M611.6,559L611.6,559"/>
		</g>
	</g>
	<g>
		<g>
			<path class="st20" d="M659.8,555.3"/>
		</g>
	</g>
	<g>
		<g>
			<path class="st21" d="M502,582.8c11.1,0,22.2,0,33.3,0c3.9,0,3.9-6,0-6c54,0,42.9,0-33.3,0C498.1,576.8,498.1,582.8,502,582.8
				L502,582.8z"/>
		</g>
	</g>
	<g>
		<g>
			<path class="st21" d="M508.9,595c2.8,0,5.6,0,8.3,0c3.9,0,3.9-6,0-6c62.3,0,59.5,0-8.3,0C505.1,589,505.1,595,508.9,595
				L508.9,595z"/>
		</g>
	</g>
	<g>
		<g>
			<path class="st21" d="M505.3,621.6c9.4-9,21.4-14.3,34.4-15c3.8-0.2,3.9-6.2,0-6c-15.9,0.9-28,6.5-38.6,16.8
				C498.3,620,502.5,624.2,505.3,621.6L505.3,621.6z"/>
		</g>
	</g>
	<g>
		<g>
			<path class="st22" d="M320,582.7c0,12,0,24,0,36c0,3.9,6,3.9,6,0c0-12,0-24,0-36C326,578.8,320,578.8,320,582.7L320,582.7z"/>
		</g>
	</g>
	<g>
		<g>
			<path class="st22" d="M354.3,582.3c0,12.3,0,24.7,0,37c0,3.9,6,3.9,6,0c0-12.3,0-24.7,0-37C360.3,578.5,354.3,578.5,354.3,582.3
				L354.3,582.3z"/>
		</g>
	</g>
	<path class="st19" d="M1135.7,412.9v7.5h-58.3v-7.5c0-2.4,1.9-4.3,4.3-4.3h49.8C1133.8,408.6,1135.7,410.5,1135.7,412.9z"/>
	<path class="st12" d="M1131.1,536.8v55c0,8.9-7.2,16.2-16.2,16.2h-22.7c-8.9,0-16.2-7.2-16.2-16.2v-55c0-8.9,7.2-16.2,16.2-16.2
		h22.7C1123.8,520.6,1131.1,527.8,1131.1,536.8z"/>
	<path class="st23" d="M1143.9,422v12.5c0,2.4-2,4.4-4.4,4.4h-66c-2.4,0-4.4-2-4.4-4.4V422c0-2.4,2-4.4,4.4-4.4h66
		C1141.9,417.7,1143.9,419.6,1143.9,422z"/>
	<polygon class="st22" points="1136.3,480.7 1076.9,482.3 1078.3,479.6 1077.6,474.8 1135.2,473.2 1134.7,478 	"/>
	<polygon class="st23" points="1135.1,481.5 1111.8,481.5 1111.8,474 1134.2,474 1133.6,478.8 	"/>
	<path class="st24" d="M1134,536.8v55c0,8.9-7.2,16.2-16.2,16.2h-4.9v-87.4h4.9C1126.8,520.6,1134,527.8,1134,536.8z"/>
	<rect x="1074.3" y="644.3" class="st13" width="75.2" height="31.2"/>
	<path class="st25" d="M1144.8,422v12.5c0,2.4-1.9,4.4-4.4,4.4h-26.6v-21.3h26.6C1142.9,417.7,1144.8,419.6,1144.8,422z"/>
	<rect x="1065.2" y="643.7" class="st26" width="30.9" height="31.2"/>
	<rect x="212.9" y="201" class="st27" width="974.8" height="24"/>
	<rect x="212.6" y="201" class="st28" width="974.8" height="8"/>
	<rect x="766.3" y="479.9" class="st29" width="157" height="194.6"/>
	<g>
		<path class="st30" d="M816.4,531.5c0,5.2-4.4,8.4-10.9,8.4h-14.6V510h13.9c6,0,10,3.2,10,7.8c0,2.8-1.5,4.9-3.9,6.1
			C813.7,525,816.4,527.3,816.4,531.5z M803.2,516.5H800v5.4h3.2c1.8,0,3-1.1,3-2.7S805,516.5,803.2,516.5z M807.5,530.4
			c0-1.8-1.4-3-3.6-3h-4v6h4C806.1,533.4,807.5,532.2,807.5,530.4z"/>
		<path class="st30" d="M829.7,517.4v4.1h10.4v6.9h-10.4v4.1h13.8v7.4h-22.9V510h22.8v7.4H829.7z"/>
		<path class="st30" d="M857.5,517.4v4.1h10.4v6.9h-10.4v4.1h13.8v7.4h-22.9V510h22.8v7.4H857.5z"/>
		<path class="st30" d="M904,538.5l-0.2,0.6c-0.8,0.7-2.2,1.3-3.9,1.3c-3.5,0-5.5-0.9-8-4.8c-1.2-1.9-3.8-6.3-5.8-6.3h-0.8v10.5
			h-9.1V510h13.7c7.9,0,12.1,3.9,12.1,10c0,4-2.3,6.7-5.6,8.2c0.6,0.3,1.4,1.1,2.3,2.4c0.6,0.9,1.2,2,2.3,2c0.7,0,0.9-0.2,1.2-0.3
			l0.5,0.3L904,538.5z M889.6,523.4c1.7,0,3.2-1,3.2-2.9c0-2-1.5-3.1-3.2-3.1h-4.2v6.1L889.6,523.4L889.6,523.4z"/>
	</g>
	<g>
		<g>
			<path class="st31" d="M793.3,649.3c10.2,0,20.4,0,30.7,0c2.6,0,2.6-4,0-4c-10.2,0-20.4,0-30.7,0
				C790.8,645.3,790.8,649.3,793.3,649.3L793.3,649.3z"/>
		</g>
	</g>
	<g>
		<g>
			<path class="st31" d="M833.3,649.3c2.6,0,2.6-4,0-4C830.8,645.3,830.8,649.3,833.3,649.3L833.3,649.3z"/>
		</g>
	</g>
	<g>
		<g>
			<path class="st31" d="M852.7,561.3c2.6,0,2.6-4,0-4C850.1,557.3,850.1,561.3,852.7,561.3L852.7,561.3z"/>
		</g>
	</g>
	<g>
		<g>
			<path class="st31" d="M848,556.7c2.6,0,2.6-4,0-4S845.4,556.7,848,556.7L848,556.7z"/>
		</g>
	</g>
	<g>
		<g>
			<path class="st31" d="M854.7,553.7c2.6,0,2.6-4,0-4C852.1,549.7,852.1,553.7,854.7,553.7L854.7,553.7z"/>
		</g>
	</g>
	<g>
		<g>
			<path class="st31" d="M780.7,495.7c23.4,0,46.9,0,70.3,0c2.6,0,2.6-4,0-4c-23.4,0-46.9,0-70.3,0
				C778.1,491.7,778.1,495.7,780.7,495.7L780.7,495.7z"/>
		</g>
	</g>
	<g>
		<g>
			<path class="st31" d="M867.7,495.7c2.6,0,2.6-4,0-4C865.1,491.7,865.1,495.7,867.7,495.7L867.7,495.7z"/>
		</g>
	</g>
	<g>
		<g>
			<path class="st31" d="M876.3,495.7c2.6,0,2.6-4,0-4C873.8,491.7,873.8,495.7,876.3,495.7L876.3,495.7z"/>
		</g>
	</g>
	<g>
		<g>
			<path class="st31" d="M885,495.7c2.6,0,2.6-4,0-4S882.4,495.7,885,495.7L885,495.7z"/>
		</g>
	</g>
	<g>
		<g>
			<path class="st31" d="M775.3,556c2.6,0,2.6-4,0-4C772.8,552,772.8,556,775.3,556L775.3,556z"/>
		</g>
	</g>
	<g>
		<g>
			<path class="st31" d="M901.3,649.3c2.6,0,2.6-4,0-4C898.8,645.3,898.8,649.3,901.3,649.3L901.3,649.3z"/>
		</g>
	</g>
</g>
<g id="Layer_2_1_">
	<path class="st30" d="M1187.4,722.9v103.6c0,11.6-9.4,21-21,21H233.6c-11.6,0-21-9.4-21-21V722.9c0-11.6,9.4-21,21-21h932.8
		C1178,701.9,1187.4,711.3,1187.4,722.9z"/>
	<path class="st8" d="M1217.3,683v13.5c0,13.5-11,24.5-24.5,24.5h-991c-13.5,0-24.5-11-24.5-24.5V683H1217.3z"/>
	<path class="st30" d="M1222.3,660.3h-1050c-3.7,0-6.7,3-6.7,6.7v9.3c0,3.7,3,6.7,6.7,6.7h1050c3.7,0,6.7-3,6.7-6.7V667
		C1229,663.3,1226,660.3,1222.3,660.3z"/>
	<rect x="177.3" y="683" class="st14" width="1040" height="11.3"/>
	<g>
		<g>
			<path class="st32" d="M1095,779.8c4.5,0,4.5-7,0-7S1090.5,779.8,1095,779.8L1095,779.8z"/>
		</g>
	</g>
	<g>
		<g>
			<path class="st32" d="M1107,789.5c4.5,0,4.5-7,0-7S1102.5,789.5,1107,789.5L1107,789.5z"/>
		</g>
	</g>
	<g>
		<g>
			<path class="st32" d="M1110.7,774.5c4.5,0,4.5-7,0-7S1106.2,774.5,1110.7,774.5L1110.7,774.5z"/>
		</g>
	</g>
	<g>
		<g>
			<path class="st32" d="M299.7,835.2c4.5,0,4.5-7,0-7S295.2,835.2,299.7,835.2L299.7,835.2z"/>
		</g>
	</g>
	<g>
		<g>
			<path class="st32" d="M290,821.8c4.5,0,4.5-7,0-7S285.5,821.8,290,821.8L290,821.8z"/>
		</g>
	</g>
	<g>
		<g>
			<path class="st32" d="M282,835.2c4.5,0,4.5-7,0-7S277.5,835.2,282,835.2L282,835.2z"/>
		</g>
	</g>
	<g>
		<g>
			<path class="st32" d="M692.9,779.1c4.5,0,4.5-7,0-7S688.4,779.1,692.9,779.1L692.9,779.1z"/>
		</g>
	</g>
	<g>
		<g>
			<path class="st32" d="M860.3,828.5c4.5,0,4.5-7,0-7S855.8,828.5,860.3,828.5L860.3,828.5z"/>
		</g>
	</g>
	<g>
		<g>
			<path class="st32" d="M370.3,735.5c4.5,0,4.5-7,0-7S365.8,735.5,370.3,735.5L370.3,735.5z"/>
		</g>
	</g>
	<g>
		<g>
			<path class="st32" d="M384.3,742.5c4.5,0,4.5-7,0-7S379.8,742.5,384.3,742.5L384.3,742.5z"/>
		</g>
	</g>
	<g>
		<g>
			<path class="st14" d="M980.8,753c55,0,110,0,165,0c4.5,0,4.5-7,0-7c-55,0-110,0-165,0C976.3,746,976.3,753,980.8,753L980.8,753z"
				/>
		</g>
	</g>
	<g>
		<g>
			<path class="st14" d="M312.3,797.8c67.8,0,135.6,0,203.4,0c19.5,0,39,0,58.6,0c4.5,0,4.5-7,0-7c-67.8,0-135.6,0-203.4,0
				c-19.5,0-39,0-58.6,0C307.8,790.8,307.8,797.8,312.3,797.8L312.3,797.8z"/>
		</g>
	</g>
	<g>
		<g>
			<path class="st14" d="M695.7,830.5c6.7,0,13.3,0,20,0c4.5,0,4.5-7,0-7c-6.7,0-13.3,0-20,0C691.2,823.5,691.2,830.5,695.7,830.5
				L695.7,830.5z"/>
		</g>
	</g>
	<g>
		<g>
			<path class="st14" d="M255.7,741.2c5.3,0,10.7,0,16,0c4.5,0,4.5-7,0-7c-5.3,0-10.7,0-16,0C251.2,734.2,251.2,741.2,255.7,741.2
				L255.7,741.2z"/>
		</g>
	</g>
	<g>
		<g>
			<path class="st14" d="M861.3,783.5c5.7,0,11.3,0,17,0c4.5,0,4.5-7,0-7c-5.7,0-11.3,0-17,0C856.8,776.5,856.8,783.5,861.3,783.5
				L861.3,783.5z"/>
		</g>
	</g>
	<rect x="209.9" y="751.6" class="st32" width="974.8" height="7.5"/>
	<rect x="209.9" y="796.5" class="st32" width="974.8" height="7.5"/>
</g>
<g class="st33">
	<polygon class="st10" points="657.2,659.9 608.6,659.9 597.2,569.5 668,569.5 	"/>
</g>
<line class="st34" x1="650.6" y1="651.4" x2="659.7" y2="575.2"/>
<line class="st34" x1="611.1" y1="618.1" x2="605.8" y2="576.8"/>
<path class="st8" d="M1209.5,813.8v13.5c0,13.5-11,24.5-24.5,24.5H194c-13.5,0-24.5-11-24.5-24.5v-13.5H1209.5z"/>
<path class="st30" d="M1214.5,791.2h-1050c-3.7,0-6.7,3-6.7,6.7v9.3c0,3.7,3,6.7,6.7,6.7h1050c3.7,0,6.7-3,6.7-6.7v-9.3
	C1221.2,794.2,1218.2,791.2,1214.5,791.2z"/>
<line class="st14" x1="1209.5" y1="825.2" x2="169.5" y2="825.2"/>
<image style="overflow:visible;" width="232" height="512" xlink:href="bottle.png"  transform="matrix(0.2274 0 0 0.2486 285.425 674.05)">
</image>
<image style="overflow:visible;" width="232" height="512" xlink:href="bottle.png"  transform="matrix(0.2274 0 0 0.2486 352.025 674.05)">
</image>
<image style="overflow:visible;" width="232" height="512" xlink:href="bottle.png"  transform="matrix(0.2274 0 0 0.2486 213.875 674.05)">
</image>
<image style="overflow:visible;" width="232" height="512" xlink:href="bottle.png"  transform="matrix(0.2274 0 0 0.2486 421.5125 675.625)">
</image>
<image style="overflow:visible;" width="232" height="512" xlink:href="bottle.png"  transform="matrix(0.2274 0 0 0.2486 491 675.625)">
</image>
<image style="overflow:visible;" width="232" height="512" xlink:href="bottle.png"  transform="matrix(0.2274 0 0 0.2486 837.3 674.05)">
</image>
<image style="overflow:visible;" width="232" height="512" xlink:href="bottle.png"  transform="matrix(0.2274 0 0 0.2486 903.5156 674.05)">
</image>
<image style="overflow:visible;" width="232" height="512" xlink:href="bottle.png"  transform="matrix(0.2274 0 0 0.2486 975.4813 675.35)">
</image>
<image style="overflow:visible;" width="232" height="512" xlink:href="bottle.png"  transform="matrix(0.2274 0 0 0.2486 1049.6251 674.05)">
</image>
<image style="overflow:visible;" width="232" height="512" xlink:href="bottle.png"  transform="matrix(0.2274 0 0 0.2486 1121.095 674.05)">
</image>
<g>
	<defs>
		<filter id="Adobe_OpacityMaskFilter" filterUnits="userSpaceOnUse" x="783" y="569" width="121" height="1">
			<feFlood  style="flood-color:white;flood-opacity:1" result="back"/>
			<feBlend  in="SourceGraphic" in2="back" mode="normal"/>
		</filter>
	</defs>
	<mask maskUnits="userSpaceOnUse" x="783" y="569" width="121" height="1" id="SVGID_1_">
		<g class="st35">
			<image style="overflow:visible;" width="125" height="5" xlink:href="AAA380B3.jpg"  transform="matrix(1 0 0 1 781 567)">
			</image>
		</g>
	</mask>
	<g class="st36">
		<line class="st37" x1="783" y1="569.5" x2="904" y2="569.5"/>
	</g>
</g>
<line class="st38" x1="783" y1="563.8" x2="904" y2="563.8"/>
<line class="st38" x1="859.8" y1="606" x2="859.8" y2="608"/>
<line class="st38" x1="784.5" y1="597.5" x2="886.2" y2="597.5"/>
<line class="st38" x1="783" y1="581.7" x2="856.9" y2="581.7"/>
<line class="st38" x1="783" y1="618.1" x2="904" y2="618.1"/>
<line class="st38" x1="783" y1="631.1" x2="853.2" y2="631.1"/>
<g>
	<g>
		
			<image style="overflow:visible;opacity:0.5;" width="466" height="299" xlink:href="AAA380CC.png"  transform="matrix(1 0 0 1 459 4)">
		</image>
		<g>
			<g>
				<g>
					<g>
						<g>
							<defs>
								<path id="SVGID_2_" d="M692.3,280c-32.3,0-63.2-11.7-87.4-32.9H492.7L472,226.3V68.9l20.8-20.8H605
									c24.2-21.3,55.1-32.9,87.4-32.9c32.3,0,63.2,11.7,87.4,32.9h112.2l20.8,20.8v157.3L891.9,247H779.7
									C755.5,268.3,724.6,280,692.3,280z"/>
							</defs>
							<clipPath id="SVGID_3_">
								<use xlink:href="#SVGID_2_"  style="overflow:visible;"/>
							</clipPath>
						</g>
						<g>
							<defs>
								<path id="SVGID_4_" d="M888.6,56.1h-112c-22.2-20.4-51.8-32.9-84.3-32.9c-32.5,0-62.1,12.5-84.3,32.9h-112L480,72.2v150.7
									l16.1,16.1h112c22.2,20.4,51.8,32.9,84.3,32.9c32.5,0,62.1-12.5,84.3-32.9h112l16.1-16.1V72.2L888.6,56.1z"/>
							</defs>
							<clipPath id="SVGID_5_">
								<use xlink:href="#SVGID_4_"  style="overflow:visible;"/>
							</clipPath>
						</g>
					</g>
					<g>
						<defs>
							<path id="SVGID_6_" d="M499.9,150.1h387.9v57.1H499.9V150.1z M499.9,260.5h387.9v-48.3H499.9V260.5z M499.9,145.1h387.9V88
								H499.9V145.1z M499.9,46.6v36.3h387.9V46.6H499.9z"/>
						</defs>
						<clipPath id="SVGID_7_">
							<use xlink:href="#SVGID_6_"  style="overflow:visible;"/>
						</clipPath>
					</g>
				</g>
			</g>
			<g>
				<g>
					<g>
						<g>
							<defs>
								<path id="SVGID_8_" d="M692.3,280c-32.3,0-63.2-11.7-87.4-32.9H492.7L472,226.3V68.9l20.8-20.8H605
									c24.2-21.3,55.1-32.9,87.4-32.9c32.3,0,63.2,11.7,87.4,32.9h112.2l20.8,20.8v157.3L891.9,247H779.7
									C755.5,268.3,724.6,280,692.3,280z"/>
							</defs>
							<clipPath id="SVGID_9_">
								<use xlink:href="#SVGID_8_"  style="overflow:visible;"/>
							</clipPath>
							<g class="st39">
								<g>
									<g>
										
											<linearGradient id="SVGID_10_" gradientUnits="userSpaceOnUse" x1="-68.6649" y1="761.2064" x2="774.4254" y2="761.2064" gradientTransform="matrix(-5.200000e-03 1 -1 -5.200000e-03 1456.4244 -403.9627)">
											<stop  offset="0" style="stop-color:#180D09"/>
											<stop  offset="2.724592e-02" style="stop-color:#28160B"/>
											<stop  offset="7.590827e-02" style="stop-color:#3D210E"/>
											<stop  offset="0.1298" style="stop-color:#4C2A10"/>
											<stop  offset="0.1925" style="stop-color:#552E12"/>
											<stop  offset="0.2848" style="stop-color:#583012"/>
											<stop  offset="0.3628" style="stop-color:#542E11"/>
											<stop  offset="0.4386" style="stop-color:#482710"/>
											<stop  offset="0.5132" style="stop-color:#351D0D"/>
											<stop  offset="0.5818" style="stop-color:#1C0F09"/>
											<stop  offset="0.8061" style="stop-color:#422410"/>
											<stop  offset="1" style="stop-color:#110A07"/>
										</linearGradient>
										<path class="st40" d="M472,11.8l0,271c33.7-0.5,67.6,0.8,101.4,2.2h339.3V11.8H472z"/>
										<g>
											<path d="M616.1,282.5c12.3,0.4,33.9,1.1,57.7,1.8c29.7-2.2,59.4-4.4,89.2-6.3C705.8,280.2,641.1,282.4,616.1,282.5z"/>
											<path d="M697.2,256.9c-1.1,0.1-2.2,0.2-3.2,0.3c0.8-0.1,1.8-0.2,3-0.3c-11.3,0.4-22.9,0.7-34.7,1
												c-53,3-102.3,5.7-119.4,5.9c-7.6,0.1-40.1-1.5-70.9-2.9v12.4c90.4,7,251.3,1,271.1,0.8c0.5,0,156.7-3.3,68.8,1.1
												c-16.4,0.8-32.6,1.9-48.9,3c47.8-1.8,90.3-3.5,99.9-3.9c1.6-0.1,26.9-2.1,49.9-3.9V270c-75,4.6-157.9,1.2-232.1-2.4
												c-2.4-0.1-78.3-0.1-36.6-2.2c87.5-4.5,181.1-4.2,268.7-10.6v-2c-43.2,0.7-104.1,0.5-152.8,1.4
												C740.9,255.2,719.7,256.1,697.2,256.9z"/>
											<path d="M604,219.2c-14.7-0.1-81.4-3.4-132-5.9v8.6c46.2,5,108,7.3,164.1,7.6c50.6-3.1,104.1-6.6,123.6-4.1
												c-24.9,2.8-71.8,4.3-123.6,4.1c-35.1,2.2-68.9,4.2-89,3.9c-18.1-0.2-47.3-2.9-75.1-5.2v4.6c25.9,1.8,51.9,2.4,76.5,2.8
												c12.7,0.2,80.4,1,135.5,0.2c24.9-1.9,49.6-3.8,73.9-5.4c3.2,3.4-31.6,4.9-73.9,5.4c-59.5,4.6-120,9.3-177.5,9.4
												c-1.8,0-16.4-0.8-34.4-1.9v3.2c25,1.2,53.5,2,82.5,2.5c71.5-3.8,181.8-9.7,184.4-4.8c-27.2,4.5-107.5,6-184.4,4.8
												c-28.8,1.6-51.3,2.8-57.9,2.8c-2.1,0-12.1-0.5-24.6-1.1v6.2c51.7,3,123.6,2.8,190.3,1.2c19.5-1.1,39.4-2.3,58.4-3.4
												c46.3-4.5,135.5-12.7,191.9-18.6v-5.8c-36.7,1.2-86.2,3.5-124.9,5.5c-29.8,2.4-54.9,4.2-60.6,3.6
												c0-0.3,25.9-1.8,60.6-3.6c49.1-4,111.1-10,120.6-10.9c0,0,1.6-0.2,4.3-0.5v-5.8C811.6,222.1,703.2,219.9,604,219.2z"/>
											<path d="M912.7,285v-1.5c-15.3,0.3-33,0.9-50.3,1.5H912.7z"/>
											<path d="M692.6,285c-6.4-0.2-12.7-0.4-18.9-0.6c-2.8,0.2-5.5,0.4-8.3,0.6H692.6z"/>
											<path d="M697.2,256.9c14.4-1.4,36.8-2.2,62.7-2.7c27.7-1.4,50.5-3.1,64.6-4.7c19.1-2.1-36.5,1.1-103.7,5
												c-10.4,1-18.6,1.8-23.8,2.4C697,256.9,697.1,256.9,697.2,256.9z"/>
										</g>
										<g>
											<path d="M912.7,63.8c-63.3,1.9-124.2-0.6-188.2-1.2c-58.5-0.6-194.8-5.3-194.1-5.1c13.2,3.9,167,14.9,186.3,15.5
												c43.5,1.4,129.6,0.7,196,0.1V63.8z"/>
											<path d="M817.1,11.8h-20.5c1.3,0.2,2.2,0.4,2.5,0.6c-6.3-0.2-12.6-0.4-18.9-0.6H600.7c-43.4,2.1-86.5,5.4-128.8,6.8v1.3
												c135.5,1.7,271.1,4.7,406.8,6c0.2,0,15.5,0.6,33.9,1.3v-4.6c-29.9,0.1-58.9-0.7-91.2-0.7c-23.9,0,38.9-1,91.2-2.7v-4.3
												c-31.5-0.2-62.9-0.4-95.7-1.2C798,13.1,802,12.5,817.1,11.8z"/>
											<path d="M872.8,63.9c1.4,0,22.2-0.5,39.9-0.8V51.9c-86.6-0.1-172.3,1.5-259.2,0.7C667.1,58.4,847.8,63.7,872.8,63.9z"/>
											<path d="M912.7,30.4c-53.2,1-104.9,4-159.8,8.3c-8.1,0.6-108.4,2.9-108.7,3.2c2.9,2.3,183.7,7.3,268.5,9.3V30.4z"/>
										</g>
										<g>
											<path d="M472,128.1c18.6,0.7,47.5,1.9,49.2,2c24.9,0.2,205.6-1.7,219.3-7.2c-90-0.9-178.7-4.4-268.5-5.8L472,128.1z"/>
											<path d="M472,116.5c80-0.3,274.8-1.9,277.9-4.2c-0.3-0.3-100.6-4.5-108.7-5.3C583,101.4,528.5,97.3,472,95.5V116.5z"/>
											<path d="M669.5,131.4c-67.2-0.6-130.9,0.9-197.5-2.8v8.3c70.2,2.4,162,5.7,205.2,5.1c19.4-0.3,173.3-8.4,186.4-12
												C864.3,129.7,728,131.9,669.5,131.4z"/>
											<path d="M753.1,37.6c52.5,4.3-40.2,2.9-44,2.9C635,40.7,548.8,35.1,472,37.1v5.2c69.8,2.1,197.3,4.3,224,6.9
												c24.7,2.4-145.2-1-224,2.4V57c51.6,2,139.6-2,185.4,5.7c14,2.4-123.2-1.6-185.4-2.4v2.9c60.8,3.7,190.1,8.5,151,10.1
												c-18.1,0.7-102.6-0.2-151-0.6V74c55.3,2.3,153.1,6.4,105.2,6.7c-36.1,0.2-70.4-0.3-105.2-0.7v4
												c53.8,2.9,126.1,5.4,100.7,4.9c-35.7-0.7-67.4-0.2-100.7-1.2v5c22.3-0.5,43.2-0.9,43.4-0.9
												c118.4,1.1,236.8,0.8,355.1,1.3c-53.3-2-107-6.5-157.4-13.4c-4.5-0.6-24.6-1.2-47.1-1.5c-23.7,0.8-47.3,1.4-70.9,1.7
												c2.4-1.8,38.9-2,70.9-1.7c58.6-1.9,117.7-4.6,177-5.4c0.2,0,37.1-1.5,69.7-3.1v-4.6C814.8,63,719,56.7,622.1,55.8
												c75.2,0.7,185.1-4.8,260.8-10.9c6-0.5,17.2-1.7,29.8-3.4v-8.9C777.3,40.2,622,23.9,480.1,20.1
												C554.7,23.4,714.8,34.5,753.1,37.6z"/>
											<path d="M912.7,93.4c-14.1-0.1-28.1-0.2-42.2-0.2c14.1,0.5,28.2,0.8,42.2,1V93.4z"/>
										</g>
										<g>
											<path d="M912.7,199.5c-18.8-0.1-38-0.1-57.3,0C874.6,199.5,893.7,199.5,912.7,199.5L912.7,199.5z"/>
											<path d="M707.7,173.2c63.7-1.1,125.2-0.1,189.1-1.8c8.5-0.2-205.7,10.9-294.6,18.2c-9.2,0.8-83.6,7.5-130.2,12.3v3.6
												c48-1.3,124.2-3.1,168.1-4.9c18-1.1,30.6-1.9,33.1-2.2c-3.5,0.7-15.7,1.5-33.1,2.2c-46.4,2.7-128.7,7.2-168.1,10.6v4.1
												c46.5-0.6,143.9-8.5,176-10.3c65.5-3.7,137.6-5.2,207.4-5.4c-36.1-0.2-72.1-0.8-106.4-3c0.1-0.6,119.6-4.9,163.7-6.7
												v-3.6c-41.7,1.3-92.2,2.8-106.4,1c-25.6-3.1,47.5-4.5,106.4-4.9v-1.2c-44.9-1.6-71.2-4,0-4.5v-1.5
												c-19.3-0.4-30.2-1,0-1.8v-1.8c-22-0.4-33.7-1.2,0-2.4v-0.7c-9-0.4-11.3-0.8,0-1.1v-7.3c-68.8,0-149.7,6.8-219.4,9.8
												C597,173.9,678,173.7,707.7,173.2z"/>
											<path d="M912.7,160v-12.3c-90.4,1.8-216.2,7.1-225.2,11.5C764.6,157,836.7,159.2,912.7,160z"/>
										</g>
										<g>
											<path d="M472,157v3.5l131.8-1L472,172.9v18.2c40.9-5.7,93-11.7,125.8-14.6c-26.1,1-61.7,2.3-82.2,3.3
												c-29,2.9-59.7,6-14.8,0.9c2.4-0.3,7.7-0.6,14.8-0.9c15-1.5,29.6-2.9,32.9-3.1c53.7-3.3,147.1-8,34.5-5.9
												c-16.1,0.3-98.5,6.6-106.3,6c30.4-6.6,97.7-12.9,130.8-15.9c14.4-1.3,91.2-1.7,34.5-2.2C595.7,158.2,528.2,159.3,472,157
												z"/>
											<path d="M626.5,174.7c-4.8-0.1-15.1,0.6-28.8,1.8C621.2,175.6,636.9,174.9,626.5,174.7z"/>
										</g>
										<g>
											<path class="st41" d="M912.7,101.2c-49.4,2.4-95.5,1.2-145,6.6c-60.6,6.6,48.7,2.3,109.9-0.4c15.7-1,28.5-1.6,35.1-1.7
												V101.2z"/>
											<path class="st41" d="M912.7,133v-10.3c-2.4,0.2-5.4,0.4-9.2,0.7c-24.9,1.8-247,21.7-89.6,11.8
												C848.2,133.1,880.3,132.9,912.7,133z"/>
											<path class="st41" d="M912.7,105.8c-5,0.2-18.2,0.9-35.1,1.6c-47.9,2.9-122.3,8.7-125.4,10.7
												c0.3,0.5,206.5-6.6,150.5-2.1c-23.4,1.9-126.2,5.9-137.3,10.2c-0.1,0.4,118.1-4.2,147.2-4.4V105.8z"/>
										</g>
										<g>
											<path class="st41" d="M912.7,209.9v-11.7c-27.4,1.9-56.8,4.9-79.7,6.6c-130.2,9.6-31.5,9.8,26.8,6.5
												C866.9,210.9,891,210.4,912.7,209.9z"/>
										</g>
										<g>
											<path class="st42" d="M817.4,285c-44-5.1-88.6-10.3-133-11.9c-5.2-0.2-32.3-1.8-58.8-3c-18.7,0-37.4-0.1-56-0.4
												c2.1-1.6,28.7-0.8,56,0.4c61.3,0,123.3-1.4,185.4-0.4c0.3,0,70.8-0.9,101.7-2.2v-2.2c-106.9-4.5-210.6-15.8-316-20.1
												c73.1,3,180.3,0.5,254.1-3.6c11-0.6,39.6-3.6,61.8-6.6v-6.5c-5.7,0.2-12.2,0.4-19.9,0.7
												c-131.1,5.6-281.9-15.9-420.8-24.9v0.2c76.3,6.4,217.7,21.3,252.9,25.5c50.9,6.1-39.3,1.8-42.9,1.7
												c-65.6-1.8-140.6-8.9-210-10.4v6.5c69.8,4.2,173.5,9.5,196.9,12.7c21.9,3-114.7-4-196.9-4.2v6.9
												c50.5,2.2,120.4,2.1,158.9,10.3c12.1,2.6-93.2-3.7-158.9-7v4c63.1,5.6,159,12.7,125,13.1c-15.2,0.2-77.8-2.3-125-4.3v2.1
												c53.5,4.1,120.9,9.5,80.2,8.5c-27.5-0.7-53.8-1.8-80.2-2.9v5.1c47.5,3.9,96.8,7.3,75.5,6.3c-26.6-1.4-51-2-75.5-3.1v4.3
												c11.4,0.1,19.5,0.2,19.6,0.2c47.1,1.9,94.1,3.5,141.2,5.1H817.4z"/>
										</g>
										<g>
											<path class="st43" d="M609.8,61.3c-0.8,1.3,197.2,7.7,226.9,9c-22.2-0.9-60.6,3.1-88.4,2.8
												c-81.1-0.9-167.3-3.7-247.6-3.2C484.5,69.9,579,78.1,657,81.5c42.1,0,83.6,0,83.7,0.3c-16.9,1.7-48.7,1.2-83.7-0.3
												c-39.8,0-80,0.1-86.2-0.1c-0.3,0-58.2-3-98.9-4.3v5.1c49.6,3.4,120.5,3.9,148.9,11.1c-0.1,0.5-94.9-2.3-148.9-3v3.5
												c51.6,3.1,172.3,11,100.9,12.8c-9.6,0.3-59-1.4-100.9-2.4v5.9c0.2,0,0.3,0,0.5,0c0.4,0,135.7,8.5,86.3,8.4
												c-1.7,0-44.9-1.2-86.8-2v6c51.5,3.3,106.1,7.6,58.8,9.1c-9.3,0.3-33.4-0.9-58.8-2.3v7.5c26,2.1,52.1,3.3,71,4.1
												c-24.5-1-47.5-0.9-71-0.9v2.6c36.6,1.8,74.7,4.1,112.9,1.5c83.8-5.7,205.4,1.6,286.6-11.6c3.9-0.6,26.1-3.5,41.2-5.9v-3
												c-1.9,0.1-4,0.2-6.5,0.4c-79.8,5.1-155.8-1.3-235.1-1.1c-35.6,1.7-64.7,2.6-79.2,2.7c-98.8,0.6,38.9-2.1,52.2-2.4
												c9.1-0.2,18.1-0.3,27.1-0.3c77.6-3.7,186-11.2,241.5-22.1v-9.4c-25.7,1.7-56.1,4.8-77.4,5.5
												c-56.1,1.8-109.6-1.1-163.3-2.5c-1.6,0.1-3,0.2-4,0.3c-7.6,0.6-70.4-0.6-55.5-0.8c19.9-0.3,39.7,0,59.5,0.5
												c31.6-2.3,173.5-12.8,240.7-25.5V59c-40.3,1.7-102.1,4.5-110.3,4.5C741.2,63.3,669.5,59,609.8,61.3z"/>
										</g>
										<g>
											<path class="st42" d="M702.3,11.8c-4.8,0.2-9.7,0.5-14.6,0.7c7.1,0.3,20.5,0,37.6-0.7H702.3z"/>
											<path class="st42" d="M679.6,11.8H541.9c20.4,1.5,41.9,3,63.3,4.3c20.2-0.7,51.8-2.2,82.5-3.6c-0.9,0-1.8-0.1-2.5-0.1
												C682.8,12.1,681,12,679.6,11.8z"/>
											<path class="st42" d="M745.2,18.5c-4.2,0-7.7,0.1-10.4,0.1c-26.6-0.2-52.3,0-77.6,0.1C692,20,723.5,20.2,745.2,18.5z"/>
											<path class="st42" d="M586.7,16.4c-27.3-0.6-51.2-2-74.1-4.6H472v4.6c63.1,3,122.8,2.6,185.2,2.3
												c-16.8-0.6-34.4-1.5-52-2.6C596.8,16.4,590.3,16.5,586.7,16.4z"/>
											<path class="st42" d="M774.3,11.8c-3.7,3.4-14,5.5-29,6.7c34.8-0.5,116.2-3.6,166.6-6.7H774.3z"/>
										</g>
										<g>
											<path class="st42" d="M577.7,198c-7.8,0.2-15.2,0.3-22.2,0.3c-1.5,0.5-6.1,1.1-14.7,2.1c-8.2,0.9-38.4-0.9-68.9-2v9.4
												c97.5-2.1,199.5-10.6,291.5-5.7c32.3,1.7,99,3.2,129.7-1.7c12.8-2.1-90.4,0.9-109.8,0.2
												C714.7,198.2,646.5,198.9,577.7,198z"/>
											<path class="st42" d="M511.7,146c-14.9,0.3-28.1,0.6-39.8,1v9.9c13.6,0.3,29.5,0.4,47.5,0.5c13.8,0,99.4-2.6,37.6-0.1
												c-25.4,1-57.9,2.3-85.2,3.6v7.5c15.6,0.3,35,0.6,58.8,0.8c17.2,0.2,102.1-1.3,32.6,4.1c-2.7,0.2-53.3,1.5-91.4,2.8v3.5
												c46.3,0.4,116.1,0.7,95.7,2.5c-10.4,0.9-58,2.1-95.7,3.4v4.6c1.6,0,3.2,0.1,4.9,0.1c19.8,0.3,146.9-0.4,48.6,2.8
												c-18,0.6-35.8,0.2-53.4-0.2v4.3c7.7,0.1,15.7,0.1,23.6,0.1c-2.6-0.3-4.1-0.7-4.2-1.2c11.8,0.5,23.6,0.8,35.3,1.2
												c14.6,0,25.6,0.1,28.7,0.6c7.5,0.1,15,0.2,22.5,0.3c106.8-1.9,280.9-10.1,334.9-19.2v-1.3c-25.7,1.5-99.4,6.6-115,6.4
												c-88.4-1.3-169-5.4-257.8-4.5c-62,0.7,61.3-0.7,63.6-0.7c99.4-2.1,211.1,4.4,309.2-16.2v-4.3c-14.7,2-30.3,4.3-44.9,5.2
												c-60.3,3.7-121.3,1.9-181.4,2.2c-58.2,3-101,3.9-100.5,3.9c33-2.9,66.6-3.7,100.5-3.9c69.4-3.5,160.6-9.9,226.3-20.8
												v-1.3c-28.5,3.6-74.6,9-101.5,9.4c-5.8,0.1-35.9,0-68.9,0c-32.6,1.9-64.1,2.5-92,1.1c-22.3-1.1,38.7-1.1,92-1.1
												c58-3.5,119.4-11.6,170.4-22.3v-1.7c-24.9,3.1-71.5,9.4-78.9,9.9C723.1,146.9,620.9,144.1,511.7,146z"/>
											<path class="st42" d="M555.3,197.7c-9.5-0.2-19.1-0.4-28.7-0.6c-9.3,0-20.1,0-31.1,0c8.8,1.1,30.6,1.5,60.1,1.2
												C556.4,198.1,556.2,197.9,555.3,197.7z"/>
										</g>
										<g>
											<path class="st42" d="M472,25v3.9c56.4,2.9,162.1,8.6,125,8.4c-21.9-0.1-83.4-2.8-125-3.6v4c48.7,3.6,122,7.9,100.1,7.1
												c-18.5-0.8-64.4-3.7-100.1-4.8v5.6c31,2.5,66.3,4,91.2,5c-31.4,0.8-61.3-0.3-91.2-1.8v1.1c32.2,2.3,65.1,5,76.5,6.8
												c63.9-2,177.8,3.4,224.7-9c-0.1-0.7-157.3,0.3-161.3,0.3c-80.1-0.7-84.6,0.7-6.8-3c115.1-5.5,197.5-7.6,307.6-24.7v-2.2
												c-48.3,3.4-161.4,12-180.3,12.3C640.6,31.8,562.4,30.4,472,25z"/>
											<path class="st42" d="M548.5,56.7c-5.9,0.2-11.3,0.4-16.2,0.7c-5.7,0.4,2.7,0.8,18,1.1C554.2,58.1,553.1,57.5,548.5,56.7
												z"/>
											<path class="st42" d="M550.2,58.6c-1.5,0.2-3.6,0.3-6.6,0.4c-25.1,0.9-48.6,0.5-71.7-0.4v6.6c82.4,1,158.5-1.7,245.9-5.5
												c55.2-2.4-35.8-1.4-43.5-1C653.9,59.7,584.6,59.3,550.2,58.6z"/>
										</g>
										<g>
											<path class="st44" d="M871,213.9c3.3-0.2,23.5-1.9,41.7-3.3v-4.9c-5,0.6-10.3,1.3-15.6,2c-59.4,7.5-194.5,8-192,8
												C760.8,215.2,814.4,217.2,871,213.9z"/>
											<path class="st44" d="M912.7,219.8v-7.6c-73.9,7.1-145.6,1.9-216.1,8.8c7.2,3.7,118.3,2.1,134.6,1.7
												C848.7,222.4,887.1,220.2,912.7,219.8z"/>
											<path class="st44" d="M912.7,191.9c-39,3-79.4,4.7-99.8,3.8c27.7,1.1,65.8,1.9,99.8,0.6V191.9z"/>
											<path class="st44" d="M912.7,200.9c-32.3,5.3-70.2,10.9-81.8,10.1c8.9,1.1,68.2-5.9,81.8-7.3V200.9z"/>
											<path class="st44" d="M912.7,262.5v-11.7c-1.7,0.1-3.3,0.2-5,0.2c-37.5,2.5-88,5.8-95.9,5.4
												C844.9,257.8,879,260.4,912.7,262.5z"/>
											<path class="st44" d="M912.7,222.7c-25.5,2.8-51.9,3.3-77.2,4.4c-25.4,1.1-80.7,4.3-109.2,4c64,2.1,124-2.8,186.3-4.7
												V222.7z"/>
											<path class="st44" d="M912.7,285v-5c-33.3,0.3-80.2,0.4-102-0.5c-9.6-0.4,14,2.3,44.5,5.5H912.7z"/>
											<path class="st44" d="M912.7,242.1c-44.7,6.1-94.4,11.7-97.1,12.2c30.1-2.7,60.9-2.3,92.1-3.3c1.7-0.1,3.4-0.2,5-0.3
												V242.1z"/>
											<path class="st44" d="M912.7,274.2c-26.6,1.2-78.9,3.8-56.9,4.7c17.6,0.7,38,0.2,56.9-0.2V274.2z"/>
										</g>
										<g>
											<path class="st42" d="M912.7,24.1c-21.9,3.9-53.6,9.3-78.8,13.6c26.2-3,58.4-6.2,78.8-7.7V24.1z"/>
											<path class="st42" d="M792.7,44.3c1.1,0,18.6-2.9,41.1-6.7C804.4,41,782.5,44.1,792.7,44.3z"/>
											<path class="st42" d="M912.7,42.1c-8.9,1.8-18.1,3.4-24.8,4.5c-15.5,2.5-60.9,7.9-72.7,10.6c5.7-0.8,61.9-4.8,97.6-6.9
												V42.1z"/>
											<path class="st42" d="M790.3,50.3c5.4,0,15.8-1.3,28.7-3.2C796.4,48.9,780.9,50.3,790.3,50.3z"/>
											<path class="st42" d="M912.7,39.1v-7.5c-23.7,3.9-64.8,11.3-93.7,15.5c33-2.6,80.8-6,86.8-7
												C908.2,39.8,910.5,39.5,912.7,39.1z"/>
										</g>
										<g>
											<path d="M556.6,11.8c-27.3,2.5-56.4,5.4-84.6,10.5v6.1c30.4-5.2,65.1-12.2,85.7-14.1c19.9-1.8,53.9-1.6,89.2-1.3
												c6.2-0.5,12.4-0.9,18.5-1.3H556.6z"/>
											<path d="M755.8,11.8c-24.9,2.2-67.9,1.7-108.9,1.3C585.4,17.8,517.4,26.2,472,37.4v10c50.5-6.8,129.1-17.6,145.3-18.9
												c69.1-5.5,142.5-12.3,215.1-16.7H755.8z"/>
										</g>
										<g>
											<path d="M616.5,194.1c0,0.1,0,0.1,0.1,0.1c42,1.7,78.1,2.2,91.6,1.1C662.4,194.3,619,193.3,616.5,194.1z"/>
											<path d="M472,194.8v7.3c52,2.2,140.2,3.1,177.4,2.5c-19.3-1.2-31.6-4.3-32.8-10.3c-9.1-0.4-18.5-0.8-27.9-1.2
												c-20.3,0.5-34.8,1-34.9,1C533.9,194.9,499.8,194.3,472,194.8z"/>
											<path d="M689.8,134c-39.2,4-78.3,8-117.8,10.9c-13.8,1-70.3,0.2-100-0.2v9.1c34.2,5.3,99.6,9.8,146.7,10.5
												c38.1-3.6,80.8-7.1,48.4-1.7c-9.2,1.5-26.9,2-48.4,1.7c-24.3,2.3-46.7,4.5-46.9,4.6c-4.8,0.4-66.2-0.2-99.8-0.5v4.7
												c29,3.2,81,4.4,126.6,4c38.2-1.9,87-4.4,87.3-4.3c-7.2,2.4-44.4,4-87.3,4.3c-22,1.1-40.4,2.1-44.2,2.2
												c-7.3,0.4-49.9-0.6-82.4-1.2v6.3c30.7,3.5,74.6,6.5,116.6,8.6c57.9-1.4,163.5-3.5,122,2c-0.7,0.1-1.6,0.2-2.5,0.3
												c31.9,0.7,64.9,1.4,85.8,1.5c42.4-4.4,85-9.9,118.7-14.5v-1c-44.2,4.8-88.6,7.9-133.3,8.8c-7.8,0.2-38.2-1.4-70.3-2.9
												c-39.8,2-75.5,2.4-88.8-1.6c2.5-2.2,47.1-0.3,88.8,1.6c57.5-2.9,123.6-9.5,144.1-12c17.5-2.1,38.6-6.2,59.6-10.1v-1.6
												c-40.5,4.7-81.6,8.1-121.4,9.4c-4.7,0.2-47.7-1.1-89.7-2.2c-40.4,1.1-72.5,0.8-83.9-1.8c1-0.5,42,0.6,83.9,1.8
												c65.9-1.8,154-7.5,211.1-13.6v-1.9c-76,5.3-164.5-0.2-235.9-3.2c-15.7-0.7-29.4-0.7-39.2-0.5c-23.2,1.4-18.7,0.4,0,0
												c4.8-0.3,10.7-0.7,17.9-1.2c74-5.5,176-2.8,257.2-10.3v-7.8c-43.8,1.9-97.1,5.1-113.3,5.3
												C790.5,137.5,736.2,135.6,689.8,134z"/>
											<path d="M631.7,132c12.4,0.4,34.2,1.2,58.1,2c28.7-2.9,57.4-5.8,86.2-8.4C719.5,128.5,656.4,131.6,631.7,132z"/>
											<path d="M740.9,201.7c-26.2,0.7-52.9,1.5-80.5,2.6c-2.8,0.1-6.6,0.2-11.1,0.3C672.2,206,704.8,204.6,740.9,201.7z"/>
											<path d="M912.7,194.1v-10.5c-30.6,6.8-61.9,10.6-99.8,12.9c-3.6,0.2-10.3,0.3-19,0.2c-18,1.9-35.9,3.6-53.1,4.9
												C799,200.1,854.9,198.7,912.7,194.1z"/>
											<path d="M710.9,98.7c14.4-1.9,36.7-3,62.6-3.7c27.8-2,50.6-4.2,64.7-6.4c19-2.8-36.6,1.6-103.9,6.9
												c-10.3,1.3-18.4,2.4-23.6,3.1C710.7,98.7,710.8,98.7,710.9,98.7z"/>
											<path d="M614.4,51c-15.7-0.1-90.6-4.4-142.4-7.3v10.1C519.6,61,587,64,647.4,64c50.6-4.3,103.9-9,123.6-5.9
												c-24.8,3.7-71.6,5.9-123.6,5.9c-35.1,3-68.9,5.7-89.1,5.4c-20.5-0.3-55.4-4.4-86.4-7.3v5.9c29.7,2.9,59.9,3.7,87.9,4
												c12.8,0.2,80.8,0.8,135.9-0.5c24.8-2.6,49.5-5.2,73.8-7.4c3.4,4.3-31.4,6.4-73.8,7.4c-59.4,6.2-119.6,12.5-177.4,13
												c-2.2,0-23.2-1.4-46.5-3v4.1c27.9,1.8,61.2,2.9,95.1,3.4c71.4-5.3,181.7-13.5,184.6-7.2c-26.9,5.9-107.4,8.2-184.6,7.2
												c-28.8,2.2-51.2,3.8-57.9,3.9c-2.8,0-19.2-0.9-37.2-1.9v7.6c52.6,4.6,131.7,4.2,204.2,1.5c19.3-1.5,39.2-3.1,58.1-4.6
												c42.7-5.5,122.2-15.5,178.4-23.1v-8.6c-34.9,1.8-77.9,4.7-112.4,7.1c-29.8,3.3-54.9,5.6-60.7,5c-0.1-0.4,25.9-2.5,60.7-5
												c41.6-4.6,92.2-11,112.4-13.6v-8.5C814.8,53.4,710.3,51.4,614.4,51z"/>
											<path d="M710.9,98.7c-1.1,0.1-2.1,0.3-3.1,0.4c0.8-0.1,1.8-0.3,2.9-0.4c-11.2,0.5-22.8,1-34.5,1.5
												c-53,4.2-102.3,7.8-119.5,8.1c-8.7,0.1-50.4-2.2-84.7-4v15.1c87.5,10.9,265.5,1.5,286.4,1c0.5,0,157-5.1,69.1,1
												c-17.2,1.2-34.4,2.7-51.5,4.2c48.9-2.6,92.8-5.1,102.6-5.7c1.2-0.1,16.6-1.7,34.1-3.6v-0.7c-70.8,4.6-147.9,0.9-217.5-3
												c-2.4-0.1-78.7,0.3-36.9-2.6c82.7-5.9,171.1-6.4,254.4-13.7v-3.6c-41.9,0.8-95.5,1-139.2,2.3
												C754.6,96.3,733.3,97.6,710.9,98.7z"/>
										</g>
										<g>
											<path d="M912.7,135.5c-55.1,1.5-108.2,5.6-164.7,11.6c-8.1,0.8-108.6,4.3-108.8,4.7c3.2,3,189.8,8.5,273.5,10.4V135.5z"
												/>
											<path d="M912.7,178.2c-64.2,2.9-126.1,0-191.3-0.4c-58.8-0.4-196-5.7-195.2-5.4c13.5,4.9,168.8,18.1,188.3,18.8
												c44.1,1.6,131.4,0.1,198.2-1V178.2z"/>
											<path d="M472,47.2v11.5c12,2.1,22.5,3.8,28.3,4.5c76.5,9.1,187.5,18.2,263,18.7c-97.3-0.6-193.1,5.7-291.3,6.7v5.8
												c33,2.7,70.3,5.3,70.6,5.3c64,2.2,128,7.4,191.3,10.9c28.3,0,56.1,0.6,58.3,2.6c-19.4-0.6-38.8-1.6-58.3-2.6
												c-27.2-0.1-54.8,0.4-60.2,0.3c-67.8-0.8-135.7,8-201.7,11.6l0,2.1c133.7,1.4,267.5,4.4,401.3,5.3
												c0.2,0,18.6,0.8,39.4,1.7v-6.2c-32,0.5-62.8-0.6-97.2-0.3c-24.9,0.2,43.9-1.6,97.2-4.3v-5.2c-33.8,0-67.2-0.1-102.4-1
												c-47.3-1.2,46.6-4.6,102.4-6.5v-1.8c-49-0.4-131-0.8-149-2c-39.1-2.6,87.4-6.5,149-10v-3.8
												c-63.2-0.1-198.2,2.4-184.4-0.4c45-9,132.5-2.4,184.4-3.9v-7c-79.9-5.8-248.7-4.5-224.2-7.2
												c26.6-2.9,154.1-3.3,224.2-4.7v-6.6c-77.4-3.9-163.5,1.6-238,0c-3.8-0.1-96.9,0.1-44.5-4.5
												c38.3-3.3,198.4-14.5,273.1-17.4C761.9,41.2,608,59,472,47.2z"/>
											<path d="M870.4,178.6c1.4,0,24.2-0.8,42.3-1.3v-14.4c-88.1,0.3-174.9,3.1-263.3,2.6C663.5,172.7,845.3,178.5,870.4,178.6
												z"/>
										</g>
										<g>
											<path d="M671.9,266.1c-68-0.4-132.2,2-199.9-2.5v10.6c70.9,2.7,164.7,6.4,208.5,5.4c19.4-0.4,173.2-11.7,186.1-16.4
												C867.3,262.9,730.7,266.5,671.9,266.1z"/>
											<path d="M472,248.2c80-0.8,276.1-3.9,279-7c-0.3-0.4-101.3-5.1-109.5-6.1c-58.4-6.8-113-11.7-169.5-13.8V248.2z"/>
											<path d="M472,262.9c18.7,0.8,49.3,2.3,50.9,2.3c25,0.1,206.2-3.3,219.5-10.4c-90.6-0.6-180.1-4.6-270.5-5.9V262.9z"/>
											<path d="M748.1,145.8c53,5.2-40.2,3.9-43.9,3.9c-72.4,0.6-156.8-5.6-232.2-3.2v7c71.3,2.3,193.4,4.3,219.8,7.4
												c24.4,2.9-139-0.4-219.8,4.1v7.3c52.4,1.8,136.9-3.3,182.2,6.1c13.9,2.9-117.9-1.1-182.2-2v3.9
												c62.7,4.3,186.8,9.6,148.5,11.7c-17.8,1-99.4,0.3-148.5,0.1v1.8c56.1,2.6,150.3,7.2,103.1,7.8
												c-35.3,0.4-69,0.1-103.1-0.3v5.2c53.9,3.4,124.4,6.1,99.3,5.6c-35.2-0.7-66.5,0-99.3-1v6.3c21.8-0.7,41.8-1.3,42-1.3
												c118.9,0.8,237.6-0.3,356.3-0.3c-53.6-2.2-107.8-7.7-158.9-16.2c-4.5-0.7-24.6-1.4-47-1.6c-23.9,1.1-47.7,2-71.4,2.5
												c2.3-2.4,39.2-2.9,71.4-2.5c58.5-2.7,117.5-6.6,176.8-7.9c0.2,0,38.5-2.2,71.5-4.5v-5.7c-99.1-2.2-196.5-9.8-294.6-10.4
												c75.5,0.5,185.4-7.2,260.9-15.4c6.7-0.7,19.6-2.7,33.7-5.2v-11C776.3,149.4,617,129,472.6,124.9
												C547.7,128.7,709.4,141.9,748.1,145.8z"/>
											<path d="M912.7,216.1c-14.1,0-28.3-0.1-42.4-0.1c14.2,0.6,28.3,0.9,42.4,1V216.1z"/>
										</g>
										<g>
											<path d="M881.3,285c8-0.2,15.9-0.4,24-0.7c1.1,0-1.7,0.2-7.7,0.7h15.2v-0.7c-14.2-0.4-19.5-1.1,0-2.4v-12.1
												c-67.4,0.9-144.7,9.6-211.8,13.6c-9.1,0.5-16.7,1-22.8,1.5H881.3z"/>
											<path d="M912.7,269.7v-15.4c-90,3-210.1,10.2-218.6,15.7C768.8,266.8,839.1,268.9,912.7,269.7z"/>
										</g>
										<g>
											<path class="st41" d="M912.7,226.2c-49.1,3.3-95.2,2-144.2,9.1c-60.2,8.8,49,2.7,110.3-1.1c14.8-1.2,27-2.1,33.9-2.3
												V226.2z"/>
											<path class="st41" d="M912.7,244c-1.5,0.3-4.1,0.6-7.9,1c-23.3,2.6-126.2,8.3-136.9,13.8c-0.1,0.6,112-5.7,144.8-6.4V244
												z"/>
											<path class="st41" d="M912.7,266.8v-12.8c-1.9,0.2-4.1,0.4-6.6,0.7c-24.9,2.4-246.2,29.1-88.9,15.6
												C850.2,267.3,881.4,266.9,912.7,266.8z"/>
											<path class="st41" d="M912.7,243.2v-11.2c-5.8,0.4-18.2,1.2-33.9,2.2c-47.8,4-122,11.8-124.9,14.3
												C754.2,249.1,895.7,242.2,912.7,243.2z"/>
										</g>
										<g>
											<path d="M912.7,37.9V13.8c-26.6,0.2-55.5,0.5-57.7,0.7c-9.1,1.2-144.4,12-115.5,12.2c57.4,0.4,114.9,0.7,172.2,1.1
												c-58.8-0.4-217,14.5-203.8,15c22.3,0.8,60.8-2.6,87-2.4C831.8,40.6,873.5,38.4,912.7,37.9z"/>
										</g>
										<g>
											<path class="st45" d="M912.7,182.7v-15.4c-44.6,3-93.9,7.8-131.7,10.6c-198.1,14.6-47.1,13.2,41.7,7.8
												C834.5,184.9,877.5,183.7,912.7,182.7z"/>
										</g>
										<g>
											<path class="st42" d="M671.8,11.8c6.8,0.3,13.7,0.6,20.5,0.9c21.2,0,42.9-0.3,64.2-0.9H671.8z"/>
											<path class="st42" d="M579.4,119.6c-40.4-0.9-73.7-4.2-107.4-11.2v12.2c60.8,3.1,118.3,2.2,178.4,1.4
												c-16.9-0.7-34.7-1.8-52.5-3C589.5,119.4,583,119.6,579.4,119.6z"/>
											<path class="st42" d="M680.3,114c13.2,0.6,48-1.4,88.2-4.9c0-0.1,0-0.1,0-0.2C766,108.2,724.2,111,680.3,114z"/>
											<path class="st42" d="M686,48.8c-44.5,3.6-96.6,7.8-105.2,8.1c-15.4,0.5-66.5-0.7-108.8-0.9v8.2
												c79.8,4.6,177.8-2.4,250.3,0.3c7.1,0.3,12.9,0.4,17.5,0.5c18.1-0.4,22.7,0.6,0,0c-9.5,0.2-22.7,0.8-37.7,2.1
												c-69.3,6.2-154.9,15.8-230,12.9V82c56.3,4.2,144.7,6.6,209.9,5.8c40.2-2.9,79.4-5.7,80.5-5.3
												c-10.5,3.1-41.3,4.8-80.5,5.3c-40.4,2.9-81.7,6-86.3,6c-40.1,0.3-82.1-1.8-123.6-5.2v1.2c22.6,3.5,45.7,7.3,64.4,9
												c20.3,1.8,85.4,6,141.5,6.7c39.8-3.8,82.5-7.5,85.4-5.3c-12,4.7-46.5,5.8-85.4,5.3c-30.7,2.9-59.7,5.8-67.3,5.9
												c-46,1-92.2-0.7-138.6-4.4v0.8c34.6,3.6,80.5,8.1,125.9,11.2c20.2-0.9,51.8-3,82.4-5.1c-0.9,0-1.8-0.1-2.5-0.2
												c-41.1-4.1,61.1-6.3,117.3-7.1c43.3-4.2,88.6-9.6,117.5-14.9v-6c-31.7,2-79.5,5.2-87.1,5.1c-3.7,0-21.6-0.2-43-0.5
												c-41.4,1.4-77.7,1.3-85.2-1c0.3-0.1,47.9,0.5,85.2,1c49.4-1.7,106.1-5.7,130.2-11.1v-3.7c-28.2,1.3-100.7,5.3-106,5.1
												c-0.2,0-22.3-1.5-46.1-2.9c-20.7,1.2-37.9,1.5-47.1,0.2c-32.3-4.4,9.6-2.4,47.1-0.2C813,74.6,888,65.1,912.7,57.4v-7.2
												c-16.9,0.9-94.4,5.8-111,5.2C763.1,53.9,724.6,51.4,686,48.8z"/>
											<path class="st42" d="M738.6,121.3c-4.2,0.1-7.7,0.2-10.4,0.2c-26.7-0.1-52.5,0.2-77.8,0.5
												C685.4,123.6,717,123.7,738.6,121.3z"/>
											<path class="st42" d="M738.6,121.3c36.6-0.9,124.6-5.7,174-10.2v-7.5c-27.7,0.5-63.2,2.8-83.5,2.6
												c-0.2,0-14.2,0.1-34,0.4c-9,0.9-18,1.7-26.7,2.4C768.5,115.5,757.2,119.3,738.6,121.3z"/>
											<path class="st42" d="M601.3,43.5c28.3,1.5,56.5,3.4,84.7,5.3c23-1.9,43.9-3.6,55.7-4.5
												C717.9,44.9,656.4,44.2,601.3,43.5z"/>
											<path class="st42" d="M859.2,11.8c-23.2,2.3-44.1,4.4-50,4.5c-16.6,0.4-65-1.5-116.9-3.7c-11.3,0-22.5,0-33.4-0.1
												c1,0.1,1.9,0.2,2.7,0.3c-0.9-0.1-1.9-0.2-2.9-0.3c-14.5-0.1-28.4-0.4-41.6-0.7h-54.4c-30.5,0.7-62.8,1.8-90.8,2.5v4.3
												c79.2,3.6,161.4,0.9,239.5,3.6c40.9,1.4-32.8,4-35.1,4.3C611.6,33.3,539.8,40.1,472,38.7v1c15.2,1.1,27.8,2,28.8,2.1
												c9.6,0.3,52.6,1.1,100.5,1.8c-16.9-0.9-33.9-1.7-50.8-2.3c-86-2.8,66-3.9,66.5-3.9c22-0.3,225.8,2.8,295.7-17.2v-8.3
												H859.2z"/>
											<path class="st42" d="M648.4,11.8c3.8,0.2,7.2,0.4,10.3,0.7h0.2c-2-0.2-4.4-0.5-7.2-0.7H648.4z"/>
										</g>
									</g>
									<rect x="472" y="11.8" class="st46" width="440.7" height="273.2"/>
									
										<radialGradient id="SVGID_11_" cx="686.126" cy="-1370.5878" r="14.7918" gradientTransform="matrix(0 31.7228 -19.4745 0 -25999.1875 -21856.3594)" gradientUnits="userSpaceOnUse">
										<stop  offset="0" style="stop-color:#FFFFFF"/>
										<stop  offset="0.2339" style="stop-color:#FDFDFC"/>
										<stop  offset="0.3729" style="stop-color:#F5F5F4"/>
										<stop  offset="0.4871" style="stop-color:#E7E7E6"/>
										<stop  offset="0.5879" style="stop-color:#D4D3D2"/>
										<stop  offset="0.6798" style="stop-color:#BCBAB8"/>
										<stop  offset="0.7653" style="stop-color:#9D9B97"/>
										<stop  offset="0.8459" style="stop-color:#797671"/>
										<stop  offset="0.9225" style="stop-color:#504B45"/>
										<stop  offset="0.9935" style="stop-color:#221C14"/>
										<stop  offset="1" style="stop-color:#1D170F"/>
									</radialGradient>
									<rect x="472" y="11.8" class="st47" width="440.7" height="273.2"/>
								</g>
								<rect x="472" y="11.8" class="st48" width="440.7" height="3.8"/>
								<rect x="472" y="67.2" class="st48" width="440.7" height="4.7"/>
								<rect x="472" y="123.5" class="st48" width="440.7" height="4.7"/>
								<rect x="472" y="179.9" class="st48" width="440.7" height="4.7"/>
								<rect x="472" y="236.2" class="st48" width="440.7" height="4.7"/>
							</g>
						</g>
						<g>
							<defs>
								<path id="SVGID_12_" d="M888.6,56.1h-112c-22.2-20.4-51.8-32.9-84.3-32.9c-32.5,0-62.1,12.5-84.3,32.9h-112L480,72.2v150.7
									l16.1,16.1h112c22.2,20.4,51.8,32.9,84.3,32.9c32.5,0,62.1-12.5,84.3-32.9h112l16.1-16.1V72.2L888.6,56.1z"/>
							</defs>
							<clipPath id="SVGID_13_">
								<use xlink:href="#SVGID_12_"  style="overflow:visible;"/>
							</clipPath>
							<g class="st49">
								<g>
									<g>
										
											<linearGradient id="SVGID_14_" gradientUnits="userSpaceOnUse" x1="386.2429" y1="762.3333" x2="1312.41" y2="762.3333" gradientTransform="matrix(-5.200000e-03 1 -1 -5.200000e-03 1456.4244 -403.9627)">
											<stop  offset="0" style="stop-color:#4B2A1D"/>
											<stop  offset="3.006228e-02" style="stop-color:#5D341E"/>
											<stop  offset="7.818769e-02" style="stop-color:#724020"/>
											<stop  offset="0.1315" style="stop-color:#814921"/>
											<stop  offset="0.1935" style="stop-color:#8A4E22"/>
											<stop  offset="0.2848" style="stop-color:#8D5022"/>
											<stop  offset="0.3616" style="stop-color:#894E22"/>
											<stop  offset="0.4362" style="stop-color:#7D4721"/>
											<stop  offset="0.5096" style="stop-color:#6A3C1F"/>
											<stop  offset="0.5818" style="stop-color:#4F2C1D"/>
											<stop  offset="0.8061" style="stop-color:#774220"/>
											<stop  offset="1" style="stop-color:#44281D"/>
										</linearGradient>
										<rect x="477.7" y="22" class="st50" width="427" height="250"/>
										<g>
											<path class="st51" d="M477.7,26.7v0.8c69.8,3.4,142.6,14,214.5,14.4c5.2,0,32.1,0.8,58.4,1.2c18.7-0.6,37.3-1.1,55.8-1.4
												c-2,1.7-28.6,1.8-55.8,1.4c-61,2-122.5,5.5-184.3,6.4c-0.3,0-54.7,2.5-88.6,4.7v3.4c102.1,1.8,201.8,9.7,302.6,10.8
												c-72.8-0.8-179.4,5.3-252.7,12c-9.1,0.8-30.4,3.8-50,7v8c2.7-0.2,5.6-0.4,8.7-0.6c129.9-10.1,280.1,7.5,418.3,12.5v-0.2
												c-76.4-4.3-216.3-15.3-251.3-18.6c-50.8-4.8,39-3.1,42.7-3.1c65.1-0.2,139.8,4.8,208.6,4.1v-6.8
												c-69.6-2.1-172.5-4.3-195.9-7C686.9,73,823,76.1,904.7,73.6v-7.3c-50.4-0.7-119.9,1.7-158.6-5.7
												c-12.1-2.3,93.2,0.9,158.6,2.3v-4.2c-62.9-3.8-159-8.3-125.2-9.8c15.1-0.7,78.1,0,125.2,0.4v-2.2
												c-53.5-2.6-121.6-6.1-80.8-6.4c27.7-0.2,54.3,0.1,80.8,0.5v-5.3c-47.7-2.7-97.8-4.7-76.5-4.2c27,0.6,51.6,0.4,76.5,0.8
												v-4.5c-12.1,0.3-20.8,0.5-20.9,0.5C748.3,27.1,613,27.8,477.7,26.7z"/>
										</g>
										<g>
											<path class="st52" d="M477.7,272h18c37.2-2.9,79.6-6.3,86.3-6.5c60.8-1.8,132.3,0.5,191.6-3.8c0.8-1.4-196.5-1.8-226-2.1
												c22.1,0.2,60.2-5.2,87.8-5.8c80.7-1.7,166.5-1.5,246.4-4.6c16.1-0.6-78.1-6.2-155.9-7.2c-41.9,1.4-83.3,2.7-83.3,2.3
												c16.8-2.3,48.4-2.8,83.3-2.3c39.5-1.3,79.5-2.7,85.7-2.7c0.3,0,52.9,1.2,92.9,1.4v-5.5c-49-1.7-115.6-0.3-143.1-6.7
												c0-0.5,88.7-0.6,143.1-1.5V223c-53.7-1.7-164.5-6-95.8-10.1c9.2-0.5,55.2-0.5,95.8-0.7v-6.4
												c-21.9-0.8-126.3-4.5-82.2-5.9c1.7,0,41.8-0.2,82.2-0.6v-6.5c-50.1-1.8-100.5-4.5-54.8-7.6c8.8-0.6,30.9-0.2,54.8,0.4
												v-7.9c-24.8-1.2-49.3-1.7-67.2-1.9c23.2,0.2,45.1-0.5,67.2-1.2v-2.9c-35.5-0.7-72.2-1.7-109,2.1
												c-83.1,8.7-204.4,4.9-284.7,21.4c-3.3,0.7-19.3,3.5-33.3,6.1v3.9c78.8-7.8,154.3-3.6,232.8-6.4
												c35.4-2.9,64.3-4.9,78.7-5.4c98.3-3.8-38.6,3.4-51.8,4.2c-9,0.5-18,0.9-26.9,1.2c-74,6.2-176.3,16.9-232.8,29.4v10.8
												c24-2.6,51-6.3,70.5-7.6c55.7-3.8,109-2.3,162.4-2.6c1.7-0.2,3.1-0.3,4.1-0.5c7.6-0.8,70.1-1.6,55.2-0.9
												c-19.9,0.9-39.6,1.2-59.3,1.4c-30.7,3.4-164.6,18.2-232.9,33.2V272z"/>
										</g>
										<g>
											<path class="st51" d="M886.9,116.6c-11.8-0.1-23.6-0.1-35.3-0.1c-14.4,0.5-25.3,0.8-28.4,0.3c-7.4,0.1-14.9,0.2-22.3,0.4
												c-100.6,5.1-261.2,18.2-323.2,29.2v2.3c30.7-3,91-9.2,104.9-9.4c88-1.5,168.3,0.2,256.6-3.6c61.6-2.7-60.9,2.7-63.3,2.8
												c-95.8,5.3-203.5,2.3-298.2,24.7v5.2c11.9-2.1,24.2-4.3,35.8-5.4c59.8-5.8,120.5-5.9,180.4-8.1
												c57.8-5,100.4-7.4,99.8-7.3c-32.8,4.1-66.2,6-99.8,7.3c-66,5.7-151.9,14.8-216.2,27.5v1.7c28.2-4.6,68.2-10.6,92.5-11.7
												c5.8-0.3,35.7-1.1,68.5-2.2c32.3-3.1,63.7-4.6,91.6-4.1c22.2,0.4-38.4,2.5-91.6,4.1c-54.7,5.2-112.2,15-161,27v2.4
												c25.5-4.3,63.9-10.9,70.5-11.7c109.9-12.2,211.6-12.6,320.1-18.1c13.4-0.7,25.5-1.4,36.3-2.1V157
												c-12.9,0.2-27.7,0.5-44.5,1c-13.7,0.4-98.8,5.9-37.4,1.3c24.4-1.8,55.4-4.1,81.9-6.3v-8c-15.1,0.2-33.6,0.5-56.1,1
												c-17.1,0.4-101.5,4.6-32.6-3.2c2.6-0.3,51-3.1,88.6-5.7v-3.8c-46.1,1.1-113.1,2.9-93.2,0.4c10.1-1.2,56.1-4,93.2-6.5
												v-4.9c-1.1,0-2.1,0-3.1,0c-19.7,0.3-146.1,5.2-48.4-1.4c17.3-1.2,34.5-1.4,51.5-1.5v-4.5c-7.2,0.2-14.7,0.4-22.1,0.6
												C885.2,115.7,886.8,116.1,886.9,116.6z"/>
											<path class="st51" d="M823.2,116.8c9.4-0.1,18.9-0.2,28.4-0.3c9.3-0.3,20-0.7,31-1.1c-8.8-0.9-30.5-0.6-59.7,0.7
												C822.1,116.5,822.3,116.7,823.2,116.8z"/>
											<path class="st51" d="M837.4,113.5c8-1.2,37.3-0.3,67.2-0.2v-9.8c-96.6,5.3-197.3,17.5-288.6,15.3
												c-32.2-0.8-98.6-0.2-129,5.9c-12.6,2.5,89.8-3.8,109.2-3.7c68.4,0.3,136.2-2.5,204.7-3.8c7.7-0.4,15-0.7,22-1
												C824.4,115.6,828.9,114.8,837.4,113.5z"/>
										</g>
										<g>
											<path class="st51" d="M860.1,272c-14.5-0.3-28.2-0.4-39.6-0.6c28.9-1.7,56.5-1.7,84.2-1.2v-1.3
												c-30-1.3-59.2-2.9-69.8-4.4c-44.6,2.9-113.9,2.8-167.2,7.5H860.1z"/>
											<path class="st51" d="M833.1,262.6c-3.9,0.6-2.9,1.2,1.7,1.9c5.8-0.4,11.3-0.8,16.2-1.3
												C856.7,262.6,848.3,262.4,833.1,262.6z"/>
											<path class="st51" d="M904.7,260v-6.7C825,255,751,260.2,666.3,266.9c-54.9,4.3,35.7,0.3,43.3-0.4
												c20.3-1.7,89.2-3.6,123.5-3.9c1.5-0.2,3.6-0.4,6.5-0.6C862.4,260.4,883.7,260,904.7,260z"/>
										</g>
										<g>
											<path class="st51" d="M477.7,104.5v7.3c69.6-8.3,137.6-5.9,204.2-14.9c-7.3-3.7-117.8,1.6-134,2.5
												C532.8,100.2,502.2,103,477.7,104.5z"/>
											<path class="st51" d="M477.7,113.6v4.6c1.7-0.3,3.4-0.6,5.2-0.9c56.9-9.5,184.3-14.3,190.5-14.5
												c-55.4,2.2-108.6,1.8-164.7,7.2C506,110.3,492.4,111.9,477.7,113.6z"/>
											<path class="st51" d="M477.7,133.3c35.5-3.8,70.8-6.3,89.3-6.1c-24.9-0.3-58.2,0-89.3,1.9V133.3z"/>
											<path class="st51" d="M477.7,122.9c29.3-5.9,60.5-11.5,70.9-11.2c-7.4-0.8-49.2,5.5-70.9,8.7V122.9z"/>
											<path class="st51" d="M477.7,100.7c21.9-2.6,44.2-3.9,65.7-5.6c25.2-2,80.2-7.2,108.5-7.7c-60-0.2-116.2,6.1-174.2,10.1
												V100.7z"/>
											<path class="st51" d="M477.7,41.5c31.5-1.3,69.6-2.5,88.6-2.2c14,0.2-42.9-4.3-88.6-7.8V41.5z"/>
											<path class="st51" d="M477.7,47c27.1-2.2,62.5-5.5,43.8-5.7c-13.6-0.1-28.8,0.6-43.8,1.3V47z"/>
											<path class="st51" d="M477.7,71.5c36.2-3.7,80.9-8.2,88.3-8.1c-29-0.3-58.7-1.6-88.3-2.7V71.5z"/>
											<path class="st51" d="M477.7,79.8c40.9-7.1,82.2-13.4,84.7-13.9c-27.6,3.6-56,4.3-84.7,6V79.8z"/>
										</g>
										<g>
											<path class="st53" d="M488.1,37.9C561.5,34,643.5,41,716.5,48c2.3,0.2,73.8,2.7,34.4,3.8c-89.2,2.5-184.8-1.5-273.2,4.7
												v0.8c40,0,109.7,2.9,163.6,3.6c17.9-0.5,38-0.9,59.3-1c1-0.1,2-0.2,2.9-0.3c-0.8,0.1-1.7,0.2-2.7,0.3
												c10.6,0,21.5-0.1,32.5,0c50-1.8,96.7-3.2,112.8-2.8c6.5,0.2,32.2,2.5,58.5,4.9V47.2c-86.2-9.9-228.8-8.4-246.8-8.7
												c-0.5,0-147.8-1.4-64.8-3.5c15.5-0.4,30.9-1.1,46.3-1.8c-45.1,0.5-85.3,1-94.4,1.2C543.3,34.4,511.7,36.4,488.1,37.9z"/>
											<path class="st53" d="M777.9,32.8c-11.6-0.8-31.9-2.4-54.2-4c-28,1.6-56.1,3.1-84.3,4.4
												C693.3,32.6,754.3,32.2,777.9,32.8z"/>
											<path class="st53" d="M700.6,59.9c-13.7,1.2-34.8,1.3-59.3,1c-26.2,0.8-47.7,1.9-61.1,3.3c-18.1,1.9,34.5,0,98.2-2.3
												c9.8-0.8,17.5-1.5,22.4-2H700.6z"/>
											<path class="st53" d="M497.5,22c10.4,0.1,22,0.1,33.8,0H497.5z"/>
											<path class="st53" d="M628.6,22c17.8,1.1,59,4.1,95,6.8c37.1-2.1,74.1-4.2,111.3-5.3c9.8-0.3,42.3,1.2,69.7,2.7V22H628.6
												z"/>
											<path class="st53" d="M477.7,78.8v5c34.7,0.1,93-1.1,136.7-2.3c28.1-1.8,51.7-3,57.2-2.2c0,0.4-24.4,1.3-57.2,2.2
												c-46.5,3-105.2,7.9-114.2,8.6c-0.1,0-10.5,1.1-22.6,2.4v5c100.5-1.9,209.8,4.8,309.2,9.1c13.3,0.6,71.1,6.1,117.7,10.6
												v-10.5c-42.5-6.7-97.5-11-147.6-13c-47.8,1.9-98.3,4.2-116.6,0.7c23.6-2.4,67.8-2.7,116.6-0.7c33.2-1.4,65.1-2.6,84-1.6
												c15.5,0.8,39.7,4.2,63.5,7.5v-5.2c-21.9-2.4-43.9-3.7-64.8-4.8c-12-0.6-75.7-3.8-127.7-4.7c-23.5,1.4-46.9,2.8-69.9,3.9
												c-2.8-4,30-4.6,69.9-3.9c56.3-3.4,113.4-6.8,167.6-5.1c1.4,0,11.5,1.1,24.8,2.5v-3.5c-21.6-1.9-45.6-3.5-69.9-4.8
												C767.2,76,663,79.2,660.8,73.4c25.8-4.4,101.5-3.4,173.9,0.5c27.2-0.8,48.4-1.5,54.6-1.3c1.5,0,7.4,0.6,15.3,1.3v-7.2
												c-47.9-4.6-111.8-6.6-171.4-6.8c-18.3,0.6-37,1.3-54.9,2C629.1,65.9,527.8,73.9,477.7,78.8z"/>
										</g>
										<g>
											<path class="st54" d="M740.6,272c-32.8-4.3-199.4-15.5-262.9-19.4V272H740.6z"/>
											<path class="st54" d="M477.7,239.5v12.6c87,3.5,173,4.2,260.2,8.3c-12.7-7.1-182.8-19.2-206.3-20.3
												C529.9,240,493.5,239.8,477.7,239.5z"/>
											<path class="st54" d="M477.7,239c65.7-1.2,127.8,4.5,193.6,7.6c55.2,2.5,183.4,12.5,182.8,12.2
												c-12.3-4.9-156.8-22.7-175.1-24.1c-44.7-3.3-137.2-5.4-201.3-6.9V239z"/>
										</g>
										<g>
											<path class="st53" d="M904.7,168.2c-65-5-146.6-11.3-185.9-12c-18.3-0.3-163.6,4-176.1,7.8c-0.7,0.2,127.8,2.2,183,4.7
												c61,2.8,118.9,3.2,179,9V168.2z"/>
											<path class="st53" d="M904.7,178.5c-17-1.4-38-3.2-39.3-3.3c-23.5-1.1-193.9-4.8-207,1.1c82.6,3.8,164,10.5,246.3,15.1
												V178.5z"/>
											<path class="st53" d="M521.4,261.7c-8.1,0.5-26.1,2.5-43.7,4.9v5.3h151.6c-6.6-2.1,24.9-0.9,43.3,0h141.3
												c-51.4-3.3-101.1-6.7-116.2-9.1c-22.7-3.6,130.9,5.6,206.9,4.6v-6.6c-49-3.6-128.5-2.2-170.1-12.4
												c-12.8-3.1,109.7,5.4,170.1,8.6v-3.6c-58.8-6.2-173.2-15.7-137.3-16.1c16.5-0.2,91.1,3.3,137.3,5.5v-1.7
												c-52.7-4.5-137.5-12-93.9-10.8c32.2,0.9,62.9,2.5,93.9,4v-4.8c-49.8-5-112.4-9.8-89.3-8.5c31.6,1.8,60,2.4,89.3,4.4v-5.5
												c-18.8-0.2-35-0.4-35.2-0.4c-111.5-5.2-223.1-8.7-334.5-13.2c50.1,4,100.5,11.1,147.8,20.6c4.2,0.8,23.1,2.2,44.2,3.3
												c22.4-0.1,44.7-0.1,66.9,0.4c-2.3,2-36.8,1.1-66.9-0.4c-55.3,0.2-111,1.5-166.9,0.4c-0.3,0-49.2,0.7-82.3,1.8v3.9
												c97.9,5.4,193.2,16.8,289.9,21.3C696.8,254.5,593,257.2,521.4,261.7z"/>
											<path class="st53" d="M904.7,192.2c-78.9-2.4-252.6-6.6-255.5-4c0.2,0.4,94.6,8.5,102.2,9.6
												c52.6,8.1,102,14.5,153.2,18.6V192.2z"/>
											<path class="st53" d="M477.7,203.9c19.1,0.8,38.2,1.7,57.3,2.4c-19.2-1.5-38.3-2.6-57.3-3.2V203.9z"/>
										</g>
										<g>
											<path class="st55" d="M552.8,83.9c34,1.4,68,3.3,100.2,6.9c-0.2,0.8-162.3,2.2-169.5,2.6c-2,0.1-3.9,0.2-5.7,0.4v3.7
												c41.3-0.2,105.2-0.7,120.9,2.2c27.1,5-64.1,3.4-120.9,1.5v0.5c57.1,3.9,104.7,9.5,0,6.1v1.3c28.7,1.5,62.9,3.5,11.1,3
												c-2.3,0-6.2-0.1-11.1-0.3v1.3c31.2,1.5,62.5,3.5,17.4,3.8c-2.4,0-6.1,0-10.6-0.1c22.9,1.2,33.6,3-6.8,1.6v23
												c85.4,1.4,222.6-0.5,232-5.6c-75.6,0-146-5.3-220.7-8.8c66.6,3.1,147-2.6,215.6-3.7c90.9-1.5,14.5-3.9-13.5-4.3
												c-60.1-0.8-118-4-178.3-4.1c-8,0,194.3-5.9,278.3-11.3c8.1-0.5,69.5-5.2,113.6-9.1v-5c-45.2-0.2-109.9-0.5-148.6,0.2
												c-17.2,0.7-29.2,1.1-31.6,1.5c3.3-0.7,15-1.2,31.6-1.5c40.3-1.5,108.8-3.7,148.6-6.1v-5.5c-46.6,0.1-128.1,5.3-156.2,6.2
												C686.6,86.5,618.7,85.9,552.8,83.9z"/>
											<path class="st55" d="M477.7,81.1c24.4,1.1,49.5,2,75,2.8C527.5,82.8,502.3,82.1,477.7,81.1L477.7,81.1z"/>
										</g>
										<g>
											<path class="st55" d="M767.6,120c4.5,0.2,14.4-0.2,27.4-1.2C772.7,119.1,757.8,119.5,767.6,120z"/>
											<path class="st55" d="M904.7,141.4l-116.1-3l116.1-10.5v-4.5c-30.5,6.2-89.7,11-119.5,13.2c-13.7,1-86-1.1-32.6,1.4
												c41.4,1.9,100.9,2.9,152.1,6.8V141.4z"/>
											<path class="st55" d="M904.7,115.2c-3.2,0.4-9.1,1-18.2,1.9c-2.2,0.2-7.2,0.4-13.8,0.6c-14.3,1.2-28.2,2.4-31.3,2.6
												c-50.7,2-138.9,4.4-32.7,5.6c13.6,0.1,78-3.5,96.1-3.5V115.2z"/>
											<path class="st55" d="M904.7,107.3c-37,4.8-81.1,9.4-109.7,11.5c24.7-0.3,58.3-0.6,77.6-1.1c12.9-1.1,26.1-2.3,32.1-2.7
												V107.3z"/>
										</g>
										<g>
											<path class="st51" d="M904.7,104c-7.6-0.1-15.2-0.3-22.8-0.6c9,0.5,16.7,0.9,22.8,1V104z"/>
											<path class="st51" d="M705.1,22c1.3,0,2.6,0,4,0.1c0.4,0,0.8,0,1.2-0.1H705.1z"/>
											<path class="st51" d="M745.9,22c-10.3,0.3-23.5,0.2-36.8,0.1c-60.9,3-122.3,7.8-184.1,9.3c-0.2,0-22.4,1.5-47.2,3.3v8.6
												c88.5,3,175.6,10.2,263.4,10.8C668,53.6,561.5,62,488.4,71c-2.6,0.3-6.3,0.9-10.7,1.6v14.5c127-8.3,272,12,404.1,16.3
												c-72.8-4.2-229.3-18.8-266.7-23c-51.3-5.8,38.9-4.3,42.6-4.3c77.3-0.8,168.6,7.6,247,2.4v-5.7
												c-62-2.9-206.4-5.2-234.9-9.1c-26.2-3.5,170.7,1.3,234.9-6.4v-4.4c-45.1-6-147.4,3.6-198.5-8.4
												c-15.4-3.6,153.6,2.7,198.5,2.3v-2.5C860.1,39.4,696.3,32,738.8,29.4c20.3-1.3,126.8-0.1,165.8,0v-0.9
												c-26.1-1.4-81.2-4.2-112.1-6.5H745.9z"/>
										</g>
										<g>
											<path class="st56" d="M682.7,259.9c1.7-0.3,3.1-0.5,4.1-0.6c7.6-1.1,70.2-2.5,55.3-1.5
												C722.3,259.1,702.5,259.6,682.7,259.9c-12.5,1.8-41.9,6.2-77,12.1h299v-3.6c-48.2-4.8-137.3,0.4-170.8-9.3
												c0-0.7,127.6-1.7,170.8-3.9V252c-0.3,0-0.6,0-0.9,0c-0.7,0-212.3-5.8-123.6-13.1c11.5-0.9,80.2-1,124.5-2v-6.1
												c-7.1-0.4-15.4-0.9-24.9-1.4c-0.4,0-136.1-4.9-86.9-7.2c2.1-0.1,64.1-0.7,111.8-2.1v-6.5c-55.7-1.7-140.3-5.3-85.3-10.3
												c12.4-1.1,52,0.1,85.3,1v-8.7c-34.2-3.2-73-4-98.5-4.2c34,0.3,65.2-2.1,98.5-3.4v-1.9c-45,0.1-93.1-3.6-140.5,3
												c-82.8,11.6-204.8,7.6-284.2,29.2c-0.5,0.1-1.2,0.3-2.2,0.6v9.1c67.9-6,134.4-2.8,202.9-6.3c35.2-4,64.1-6.6,78.5-7.4
												c98.4-5.5-38.5,4.7-51.7,5.7c-9,0.7-17.9,1.2-26.8,1.7c-62.5,7.1-145.1,18.4-202.9,31.7v16.9c15.3-2.4,30.1-4.7,42.2-5.8
												C575.5,259.1,629.1,260.6,682.7,259.9z"/>
										</g>
										<g>
											<path class="st57" d="M579.8,119.7c-24.7-0.6-69-0.1-102.1,3.8v4.2c28.7-1.8,70.7-5,82.4-5c68.6,0,136.4-4,205-6.2
												c7.8-0.6,15.2-1.1,22.2-1.5c1.4-0.7,5.9-1.8,14.4-3.4c11.2-2.2,64.8,0.5,103-1.4V96C797.2,101.4,683.2,122.2,579.8,119.7
												z"/>
											<path class="st57" d="M787.6,115.9c9.5-0.2,19.1-0.5,28.7-0.6c9.3-0.5,20-1,30.9-1.6c-8.8-1.1-30.6-0.5-59.9,1.3
												C786.5,115.4,786.7,115.7,787.6,115.9z"/>
											<path class="st57" d="M851.6,115.2c-11.8-0.1-23.6,0-35.3,0.1c-14.6,0.7-25.6,1.1-28.7,0.6c-7.5,0.2-15,0.4-22.5,0.6
												c-85.1,6.1-212.9,19.7-287.4,32.5v5.1c28.7-3.8,60.4-7.8,70-8.1c88.2-2.5,168.9-0.8,257.3-6.3c61.6-3.8-61,3.8-63.3,4
												c-84.5,6.5-178.8,4.9-264,24.5v8.8c0.8-0.1,1.6-0.3,2.4-0.4c59.5-7.8,120.2-8.2,180-11.5c57.9-6.8,100.7-10.1,100.1-10
												c-32.7,5.5-66.3,8.2-100.1,10c-55.2,6.5-124.2,16-182.4,28.8v3.2c21.5-4.2,44.1-7.9,60-9c5.8-0.4,35.8-1.7,68.7-3.2
												c32.2-4.2,63.6-6.3,91.6-5.8c22.3,0.4-38.4,3.4-91.6,5.8c-43.2,5.6-87.9,14.7-128.6,26.1v5.6c18.1-4.1,34.9-7.8,39-8.4
												c109.4-16.3,211.4-17.4,320-25.2c28.7-2.1,51.3-4.2,68-6.2v-10.5c-18.3-0.2-43.9,0.4-76.9,1.8
												c-13.8,0.6-98.7,8.1-37.5,1.9c35.6-3.6,85.2-8.6,114.4-12.6v-6.7c-17.9,0-46.6,0.6-89.5,2.1c-17.2,0.6-101.5,6.5-32.9-4
												c3.6-0.5,92.1-7.6,122.4-11.4v-2.4c-28.8,0.4-153.8,6.6-127.7,2.3c13.7-2.2,93.8-8.5,127.7-12.5v-3.4
												c-8.5,0-20.9,0.2-38.1,0.7c-19.8,0.5-146.2,7.6-48.7-1.4c29.2-2.7,58.2-1.9,86.7-2.9v-5.2c-14.6-0.7-36.5,0.1-57.5,1.1
												C849.8,114.1,851.3,114.6,851.6,115.2z"/>
										</g>
										<g>
											<path class="st53" d="M477.7,56.2v0.3c71.5-4.4,151,3.7,222.2,11.8c2.3,0.3,74.3,2.9,34.8,4.6
												c-83.7,3.6-173.4-0.3-257,6.2v2.7c41.1,0.5,100.7,3.1,147.9,3.5c17.8-0.8,37.8-1.3,59-1.7c1.1-0.1,2.1-0.2,3.1-0.4
												c-0.8,0.1-1.8,0.2-2.8,0.4c10.7-0.1,21.6-0.2,32.7-0.2c50.1-2.6,96.9-4.7,113.1-4.3c7.8,0.2,42.9,4.1,74,7.5V68.6
												c-84.4-15-245.1-11.8-264.3-12.1c-0.5,0-148.4-0.8-65.3-4.1c16.3-0.7,32.5-1.6,48.7-2.6c-46.2,0.9-87.7,1.9-97,2.2
												C525.3,52.1,500,54.3,477.7,56.2z"/>
											<path class="st53" d="M684.6,83.6c-13.6,1.5-34.7,1.9-59,1.7c-26.4,1.1-47.9,2.7-61.3,4.6c-18.1,2.5,34.6-0.3,98.3-3.6
												c9.7-1.1,17.4-2,22.3-2.6C684.8,83.6,684.7,83.6,684.6,83.6z"/>
											<path class="st53" d="M760.5,48.5c-11.7-1-32.3-2.8-54.9-4.8c-27.2,2.2-54.4,4.3-81.8,6.1
												C677.3,48.8,737.2,47.9,760.5,48.5z"/>
											<path class="st53" d="M477.7,107.2v8.2c35-0.5,84.1-2.1,122.1-3.7c28.1-2.5,51.8-4.2,57.3-3.2c0.1,0.5-24.5,1.8-57.3,3.2
												c-46.4,4.2-104.9,10.8-113.8,11.7c-0.1,0-3.3,0.4-8.2,1.1v8.1c96.9-2,201.5,5.3,297.1,10c14.4,0.7,81.3,8.5,129.9,14
												v-12.3c-44.5-9.6-105.6-15.6-160.7-18.1c-47.9,2.8-98.4,6-117,1.6c23.5-3.2,67.9-3.8,117-1.6c33.2-1.9,65.1-3.7,84.2-2.5
												c18.3,1.1,48.6,6.7,76.5,11.2v-6.8c-26.3-4.1-53-6.1-77.9-7.6c-12.1-0.7-76.3-4.3-128.4-5.2c-23.5,2-46.9,3.9-69.9,5.4
												c-3.2-5.1,29.8-6.1,69.9-5.4c56.2-4.7,113.3-9.4,167.8-7.5c1.9,0.1,18.8,2.2,38.5,4.8v-4.8c-25.1-2.9-54.4-5.4-84.3-7.3
												c-67.6,3.1-172,7.9-174.6,0.5c25.6-5.7,101.6-5,174.6-0.5c27.2-1.2,48.5-2.2,54.8-2.1c2.3,0.1,14.8,1.5,29.5,3.2v-8.9
												c-49.5-6.9-121.1-9.5-187.1-9.5c-18.3,0.9-37.1,1.9-55,2.9C618,91.3,530.8,100.6,477.7,107.2z"/>
											<path class="st53" d="M703,22c5.1,0.5,10.2,1,15.2,1.5c14.7,1.4,27.6,2,36.9,2.2c22.2-0.7,17.8,0.4,0,0
												c-4.5,0.1-10,0.3-16.8,0.6C662.9,29.8,557,21,477.7,28.8v7.6c43.3,0.1,106.9-1.9,124.3-1.3c8.4,0.3,59.7,4.7,103.6,8.6
												c37.1-2.9,74.2-5.9,111.5-7.5c12.1-0.5,58.5,2.2,87.6,4V28.5c-10.6-2.2-23.5-4.5-37.4-6.6H703z"/>
										</g>
										<g>
											<path class="st54" d="M684.9,272c-16.4-2.4-28.8-4-33.4-4.4c-38.7-3.4-112.7-5.4-173.7-6.9V272H684.9z"/>
										</g>
										<g>
											<path class="st53" d="M904.7,183.9c-68-6.1-172.9-16.3-219-17.1c-18.4-0.3-163.9,6.2-176.2,11.1
												c-0.7,0.3,128.5,1.9,184,4.9c66.3,3.5,128.9,3.3,195,12.1c31.7,4.2-51.6-4.6-54.3-4.7c-23.6-1.3-194.9-4.9-207.6,2.7
												c93.2,4.9,185,14.6,278.2,19.7V183.9z"/>
											<path class="st53" d="M904.7,212.7c-48.5-2-283.4-8.4-286.5-4.6c0.3,0.5,95.6,10.2,103.3,11.7
												c63,11.8,121.4,20.6,183.2,25V212.7z"/>
											<path class="st53" d="M477.7,230.9c9.1,0.4,18.1,0.9,27.2,1.3c-9.1-0.9-18.1-1.6-27.2-2.2V230.9z"/>
											<path class="st53" d="M531.7,263.1c-0.2,0-26.7,0.7-54,1.7v7.2h257.4c-3.1-0.9-2-1.4,5.2-1.6c7.4-0.2,26.4,0.6,49.3,1.6
												h66.2c-51.1-5.3-110.6-12-72.5-10.8c41.6,1.2,80.8,3.8,121.3,6.1v-4.3c-49.8-6.9-145.2-15.6-117.4-13.7
												c41.6,2.8,77.5,2.9,117.4,7.7v-9.6c-26.9,0-63-0.3-63.2-0.3c-112.3-5.9-224.5-9.8-336.6-14.7
												c50.6,4.8,101.6,13.5,149.7,25.4c4.2,1,23.3,2.7,44.4,3.9c22.5-0.3,45-0.3,67.4,0.1c-2.2,2.6-37,1.6-67.4-0.1
												C643.6,262.2,587.8,264.1,531.7,263.1z"/>
										</g>
										<g>
											<path class="st55" d="M513.9,75.5c34.2,1.6,68.4,3.8,101,8.2c-0.1,0.7-87.7,2.4-137.2,3.5v5.6
												c35.1-0.3,71.7-0.1,83.3,2.5c21.9,5-31.7,5-83.3,3.8v3.1c27.2,3,38.1,5.7,0,5.2v3.5c1,0.2,1.1,0.4,0,0.5v3.8
												c20.9-1.2,199.3-9.1,276.7-16.1c10.9-1,119.4-12.2,150.2-17.3v-1.7c-36.2,0.5-134.8,0-186.5,1.4
												c-17.1,0.9-29.1,1.7-31.5,2.1c3.3-1,14.9-1.6,31.5-2.1c64.8-3.5,203.4-9.9,176.1-14.5c-29.1-4.9-148.6,5.9-184,7.7
												C648.4,78,580.2,77.6,513.9,75.5z"/>
											<path class="st55" d="M477.7,150c83.8,0.1,189.5-3.2,197.3-8.9c-67.5,0.4-131.2-4.5-197.3-8.4V150z"/>
											<path class="st55" d="M477.7,116.1c3.9,0.5,4.6,1,0,1.4V132c61.5,0.9,130.8-5.3,191.3-7c91.1-2.5,14.3-5.1-13.8-5.4
												c-59.7-0.6-117.6-4.3-177.5-4.1V116.1z"/>
											<path class="st55" d="M477.7,74.2c12,0.5,24,0.9,36.2,1.3c-12.1-0.5-24.2-1-36.2-1.5V74.2z"/>
										</g>
										<g>
											<path class="st55" d="M732.1,120.3c4.5,0.3,14.4-0.4,27.4-1.7C737.1,119.1,722.2,119.7,732.1,120.3z"/>
											<path class="st55" d="M904.7,147.6l-150.3-3.9L899.3,126l5.4,1.6V96.3c-39.2,8.5-106.4,18.4-145.2,22.3
												c24.7-0.6,58.5-1.1,77.8-1.9c27.3-3.2,56.1-6.7,13.9-0.8c-2.2,0.3-7.2,0.6-13.9,0.8c-14.3,1.7-28.1,3.3-31.2,3.5
												c-50.7,2.9-139.1,6.6-32.5,7.4c15.2,0.1,93.1-6.2,100.5-5c-28.6,8.6-92,15.6-123.2,18.9c-13.6,1.4-86.4-0.8-32.6,2
												c47.2,2.5,117.6,3.2,173.2,9.8c4.7,0.6,9,2,13.2,3.8V147.6z"/>
										</g>
									</g>
									<rect x="477.7" y="22" class="st58" width="427" height="250"/>
									
										<radialGradient id="SVGID_15_" cx="706.5535" cy="-1370.9934" r="14.7918" gradientTransform="matrix(0 34.9638 -18.8664 0 -25174.5059 -24298.4023)" gradientUnits="userSpaceOnUse">
										<stop  offset="0" style="stop-color:#FFFFFF"/>
										<stop  offset="0.244" style="stop-color:#FDFDFC"/>
										<stop  offset="0.3891" style="stop-color:#F6F5F4"/>
										<stop  offset="0.5083" style="stop-color:#EAE8E6"/>
										<stop  offset="0.6134" style="stop-color:#D9D6D2"/>
										<stop  offset="0.7093" style="stop-color:#C3BEB8"/>
										<stop  offset="0.7985" style="stop-color:#A9A197"/>
										<stop  offset="0.8825" style="stop-color:#897F71"/>
										<stop  offset="0.9602" style="stop-color:#655846"/>
										<stop  offset="1" style="stop-color:#50412D"/>
									</radialGradient>
									<rect x="477.7" y="22" class="st59" width="427" height="250"/>
								</g>
								<rect x="477.7" y="22" class="st60" width="427" height="3.6"/>
								<rect x="477.7" y="82.5" class="st60" width="427" height="5.2"/>
								<rect x="477.7" y="144.6" class="st60" width="427" height="5.2"/>
								<rect x="477.7" y="206.7" class="st60" width="427" height="5.2"/>
								<rect x="477.7" y="268.8" class="st60" width="427" height="3.2"/>
							</g>
						</g>
						<g>
							<g>
								<path class="st10" d="M888.6,56.1h-112c-22.2-20.4-51.8-32.9-84.3-32.9c-32.5,0-62.1,12.5-84.3,32.9h-112L480,72.2v150.7
									l16.1,16.1h112c22.2,20.4,51.8,32.9,84.3,32.9c32.5,0,62.1-12.5,84.3-32.9h112l16.1-16.1V72.2L888.6,56.1z"/>
							</g>
							<defs>
								<filter id="Adobe_OpacityMaskFilter_1_" filterUnits="userSpaceOnUse" x="480" y="23.2" width="424.7" height="248.8">
									
										<feColorMatrix  type="matrix" values="-1 0 0 0 1  0 -1 0 0 1  0 0 -1 0 1  0 0 0 1 0" color-interpolation-filters="sRGB" result="source"/>
								</filter>
							</defs>
							<mask maskUnits="userSpaceOnUse" x="480" y="23.2" width="424.7" height="248.8" id="SVGID_16_">
								<g class="st61">
									
										<image style="overflow:visible;" width="430" height="254" xlink:href="AAA380CC.jpg"  transform="matrix(1 0 0 1 477.05 20.3519)">
									</image>
								</g>
							</mask>
							<g class="st62">
								<path d="M888.6,56.1h-112c-22.2-20.4-51.8-32.9-84.3-32.9c-32.5,0-62.1,12.5-84.3,32.9h-112L480,72.2v150.7l16.1,16.1h112
									c22.2,20.4,51.8,32.9,84.3,32.9c32.5,0,62.1-12.5,84.3-32.9h112l16.1-16.1V72.2L888.6,56.1z"/>
							</g>
						</g>
					</g>
					<g>
						<defs>
							<path id="SVGID_17_" d="M499.9,150.1h387.9v57.1H499.9V150.1z M499.9,260.5h387.9v-48.3H499.9V260.5z M499.9,145.1h387.9V88
								H499.9V145.1z M499.9,46.6v36.3h387.9V46.6H499.9z"/>
						</defs>
						<clipPath id="SVGID_18_">
							<use xlink:href="#SVGID_17_"  style="overflow:visible;"/>
						</clipPath>
						<g class="st63">
							<g class="st64">
								<g>
									<path class="st65" d="M526.4,115.2c1.8-0.1,4.3-0.2,7.6-0.3c3.3-0.1,7.3-0.3,11.9-0.4c2.3-0.1,4.7-0.1,7.3-0.2
										c2.6-0.1,5.3-0.1,8.1-0.2c2.8-0.1,5.8-0.1,8.8-0.2c3-0.1,6.2-0.1,9.4-0.2c6.5-0.1,13.3-0.2,20.3-0.3
										c3.5,0,7.1-0.1,10.7-0.1c1.8,0,3.6,0,5.5,0c1.8,0,3.7,0,5.5,0c7.4-0.1,14.9-0.1,22.5-0.1c0,0,0,0,0,0v4.5c0,0,0,0,0,0
										c-7.5,0-15,0-22.5-0.1c-1.9,0-3.7,0-5.5,0c-1.8,0-3.7,0-5.5,0c-3.6,0-7.2-0.1-10.7-0.1c-7.1-0.1-13.9-0.2-20.3-0.3
										c-3.2-0.1-6.4-0.1-9.4-0.2c-3-0.1-6-0.1-8.8-0.2c-2.8-0.1-5.5-0.1-8.1-0.2c-2.6-0.1-5-0.2-7.3-0.2
										c-4.6-0.1-8.6-0.3-11.9-0.4c-3.3-0.1-5.9-0.2-7.6-0.3c-1.8-0.1-2.7-0.1-2.7-0.1S524.6,115.3,526.4,115.2z"/>
									<path class="st65" d="M644.1,82.2C644.1,82.2,644.1,82.2,644.1,82.2l0,19.8c0,0,0,0,0,0c-2.9-2.8-4.3-5.9-4.3-9.1
										C639.8,89.6,641.2,86.1,644.1,82.2z"/>
									<path class="st65" d="M632,92.2c0-1.1,0.5-2.6,1.4-4.3c0.9-1.8,1.4-3.2,1.4-4.2c0-1.1-0.4-2.4-1.1-3.6c1.6,0.3,3,1,4.2,2.2
										c1.2,1.2,1.8,2.6,1.8,4.2c0,0.7-0.2,2-0.6,3.7c-0.3,1.6-0.4,2.8-0.3,3.7c0.3,3,1.6,5.8,4,8.3c-3.3-0.5-6-1.7-7.9-3.4
										C632.9,97,632,94.8,632,92.2z"/>
									<path class="st65" d="M631.9,80.9c-0.8-1.4-0.8-1.9,0.3-3.3c-0.6-0.7-1.6-0.3-2.2,0.3c-1.2,1.4-1,3.1,0.6,3.7
										c-4,4.1-6.7-4-2.1-6.4c3.4-1.8,9,1.4,8.9,5.2l0,0.4C637.3,79.5,632.1,76.6,631.9,80.9z"/>
									<path class="st65" d="M628.6,108.3c0.2-0.9-0.1-2.5-0.2-3.5c-0.2-2.6-0.6-5.2-1.2-7.8c-1.1-4.8-2.9-9.8-6.6-13.3
										c-2.1-2-5.3-3.3-8.2-3.8c-2-0.4-4.1-0.4-6.1,0.2c-0.7,0.2-1.4,0.5-2,0.9c-2.9,1.6-4.5,4.7-4,8c0.5,3,2.7,5.3,5.8,5.2
										c2.2-0.1,4.9-2.7,4.1-5.4c-0.7-2.4-2.9-3.2-4.6-2.7c3.8,1.1,2,4.9-0.4,5c-1.4,0.1-2.9-1.2-2.9-3.2c0-2,1.5-3.9,3.7-4.2
										c4.7-0.5,8.4,4.5,7.1,8.8c-1.7,5.8-9.2,6.6-13.6,3.6c-8.6-5.9-5-18.6,3.7-22.3c4.5-1.9,9.9-1.5,14.3,0.7
										c4.4,2.2,7.8,6.1,9.9,10.6C630.7,92.4,630.5,100.6,628.6,108.3z"/>
									<path class="st65" d="M568.6,95c-2,1.2-5,0-5.3-2.4c-0.2-1.1,0.6-2.1,1.6-2.4c1-0.3,1.8,0.3,2,1c0.2,1.2-1.4,2.6-2.4,0.9
										c0,0.9,0.7,1.9,2,1.9c1.4,0,2.4-1.6,2.1-2.7c-0.5-2.2-3.1-2.7-4.9-1.7c-1.4,0.8-2.2,2.4-2.1,3.9c0.1,2.2,1.7,4.1,3.4,5.5
										c3.3,2.8,7.3,4.2,11.4,5.3c4.6,1.2,9.3,1.8,14.1,2c6.3,0.1,12.2-0.8,18.3-2.1c5.2-1.1,10.9-1.6,15.2,2.2
										c1.3,1.1-0.6,3-1.8,1.9c-3.5-3.2-8.5-2.3-12.8-1.6c-4.2,0.8-8.3,1.7-12.5,2c-10.1,0.7-20.7-0.7-29.9-5
										c-2.2-1-4.3-2.2-5.9-3.9c-1.7-1.7-2.9-4-2.9-6.3c0-2.4,1.3-4.8,3.3-6.1c1.5-1,3.5-1.4,5.2-0.8
										C569.8,87.6,572.1,92.8,568.6,95z"/>
									<path class="st65" d="M574.5,111.5c-11.2-6.9-19.5-7.4-26.2-1.6c-2.9,2.5-5.7,2.8-7.3,2.3c-0.8-0.2-1.3-0.7-1.5-1.3
										c-0.3-1.1,0.8-3,4.6-5C553.4,100.8,567.1,103.7,574.5,111.5z"/>
									<path class="st65" d="M592.6,92c0-0.1,0-0.2,0-0.3c0-0.2,0-0.4-0.1-0.6c0-0.2,0-0.4,0-0.6c0-0.4,0-0.7,0-1
										c0-0.6,0.1-1.1,0.1-1.4c0-0.3,0.1-0.5,0.1-0.5s0.1,0.2,0.2,0.5c0,0.2,0.1,0.3,0.2,0.6c0.1,0.2,0.2,0.5,0.3,0.8
										c0.1,0.3,0.2,0.6,0.3,0.9c0.1,0.3,0.3,0.7,0.4,1c0.1,0.2,0.2,0.4,0.3,0.6c0.1,0.2,0.2,0.4,0.3,0.6c0.1,0.2,0.2,0.4,0.3,0.6
										c0.1,0.1,0.1,0.2,0.2,0.3c0.1,0.1,0.1,0.2,0.2,0.3c0.5,0.8,1.1,1.6,1.9,2.3c0.7,0.7,1.6,1.3,2.6,1.8
										c0.2,0.1,0.5,0.2,0.8,0.3c0.3,0.1,0.5,0.2,0.8,0.3l0.4,0.1l0.4,0.1c0.3,0.1,0.6,0.1,0.8,0.2c1.2,0.2,2.4,0.3,3.6,0.3
										c1.2,0,2.5-0.2,3.7-0.4l0.5-0.1l0.2,0l0.1,0c0,0,0,0,0,0l0,0l0,0l0.1,0c0.4-0.1,0.7-0.1,1.1-0.2c0.4,0,0.7-0.1,1.1-0.1
										c0.2,0,0.4,0,0.5,0c0.2,0,0.4,0,0.5,0c1.4,0,2.8,0.3,4.1,0.7c1.3,0.4,2.4,1.1,3.3,1.7c0.9,0.7,1.6,1.4,2.1,2.2
										c0.5,0.7,0.9,1.4,1.2,2c0.3,0.6,0.4,1,0.5,1.4c0.1,0.3,0.1,0.5,0.1,0.5s-0.1-0.1-0.3-0.4c-0.2-0.2-0.5-0.6-1-1
										c-0.4-0.4-1-0.9-1.6-1.3c-0.6-0.5-1.4-0.9-2.3-1.3c-0.9-0.4-1.8-0.7-2.8-0.8c-1-0.2-2.1-0.2-3.2-0.1
										c-0.6,0.1-1.1,0.2-1.7,0.3c-0.6,0.1-1.2,0.3-1.9,0.4c-0.3,0.1-0.7,0.1-1.1,0.2c-0.4,0.1-0.7,0.1-1.1,0.2
										c-0.4,0-0.7,0.1-1.1,0.1c-0.4,0-0.7,0.1-1.1,0.1c-1.5,0-3-0.1-4.5-0.5c-0.7-0.2-1.5-0.4-2.2-0.7c-0.4-0.1-0.7-0.3-1-0.5
										c-0.2-0.1-0.3-0.2-0.5-0.3c-0.2-0.1-0.3-0.2-0.5-0.3c-1.1-0.7-2.1-1.6-2.9-2.6c-6.7-7.3-9.3-19.1-5.4-27.8
										c1.8-4,3.6-5.1,4.7-4.9c0.6,0.1,1.1,0.6,1.4,1.4c0.6,1.6,0.5,4.5-1.8,7.5C590.2,79.3,589.7,85.1,592.6,92z"/>
									<path class="st65" d="M589.8,94.3c0.4-0.3,0.9-0.4,1.3,0.1c0.1,0.1,0.2,0.3,0.2,0.5c0.3,1.3,0.7,2.7,1.8,4.3
										c0.8,1,1.8,2,3.2,3.1c1.8,1.4,4.5,1.8,6.2,2.1c-0.3,0-0.6,0.1-0.9,0.1c-15,2.1-22.1-4-25-7.9c-1.5-2-2.6-4.3-3.2-6.5
										c0.1,0.2,0.3,0.5,0.4,0.7c1.6,2.1,4.1,2.8,6.7,2c1.8-0.6,3-0.3,4,1c0.8,1.1,1.4,2.7,2,4.9c0.2,0.8,0.6,1.5,1,2.1
										c1,1.4,2.5,2,3.3,1.4c0.3-0.2,1-1-0.7-3.3c-0.4-0.6-0.7-1.1-0.9-1.6c0,0,0,0,0,0c-2.3-6.5-5.5-8.4-9.9-5.8
										c-1.9,1.1-3.1,0.8-3.6,0.2c-0.2-0.3-0.3-0.7-0.2-1.1c0.2-0.8,1.2-1.8,3.4-2.5c4.8-1.4,9,2,10.1,7.6
										C589.2,95,589.4,94.6,589.8,94.3z"/>
									<path class="st65" d="M568.7,111.1l-19.1,1.3c0-2.9,4.3-5.2,9.6-5.2C564.4,107.1,566.4,108.7,568.7,111.1z"/>
									<path class="st65" d="M637.9,76.2l6.2-15.8l0,0.1V80c0,0,0,0,0,0c-1.8,0.6-2.9,2.7-2.9,2.7
										C636.4,79.1,637.9,76.2,637.9,76.2z"/>
									<path class="st65" d="M644.1,103.3C644.1,103.3,644.1,103.3,644.1,103.3l0,6.4c0,0,0,0,0,0s-9.2-3.8-9.2-8.4
										C634.9,101.4,638.7,103.3,644.1,103.3z"/>
								</g>
								<g>
									<path class="st65" d="M858.3,115.2c-1.8-0.1-4.3-0.2-7.6-0.3c-3.3-0.1-7.3-0.3-11.9-0.4c-2.3-0.1-4.7-0.1-7.3-0.2
										c-2.6-0.1-5.3-0.1-8.1-0.2c-2.8-0.1-5.8-0.1-8.8-0.2c-3-0.1-6.2-0.1-9.4-0.2c-6.5-0.1-13.3-0.2-20.3-0.3
										c-3.5,0-7.1-0.1-10.7-0.1c-1.8,0-3.6,0-5.5,0c-1.8,0-3.7,0-5.5,0c-7.4-0.1-14.9-0.1-22.5-0.1c0,0,0,0,0,0v4.5c0,0,0,0,0,0
										c7.5,0,15,0,22.5-0.1c1.9,0,3.7,0,5.5,0c1.8,0,3.7,0,5.5,0c3.6,0,7.2-0.1,10.7-0.1c7.1-0.1,13.9-0.2,20.3-0.3
										c3.2-0.1,6.4-0.1,9.4-0.2c3-0.1,6-0.1,8.8-0.2c2.8-0.1,5.5-0.1,8.1-0.2c2.6-0.1,5-0.2,7.3-0.2c4.6-0.1,8.6-0.3,11.9-0.4
										c3.3-0.1,5.9-0.2,7.6-0.3c1.8-0.1,2.7-0.1,2.7-0.1S860,115.3,858.3,115.2z"/>
									<path class="st65" d="M740.6,82.2C740.6,82.2,740.6,82.2,740.6,82.2l0,19.8c0,0,0,0,0,0c2.9-2.8,4.3-5.9,4.3-9.1
										C744.9,89.6,743.5,86.1,740.6,82.2z"/>
									<path class="st65" d="M752.7,92.2c0-1.1-0.5-2.6-1.4-4.3c-0.9-1.8-1.4-3.2-1.4-4.2c0-1.1,0.4-2.4,1.1-3.6
										c-1.6,0.3-3,1-4.2,2.2c-1.2,1.2-1.8,2.6-1.8,4.2c0,0.7,0.2,2,0.6,3.7c0.3,1.6,0.4,2.8,0.3,3.7c-0.3,3-1.6,5.8-4,8.3
										c3.3-0.5,6-1.7,7.9-3.4C751.7,97,752.7,94.8,752.7,92.2z"/>
									<path class="st65" d="M752.7,80.9c0.8-1.4,0.8-1.9-0.3-3.3c0.6-0.7,1.6-0.3,2.2,0.3c1.2,1.4,1,3.1-0.6,3.7
										c4,4.1,6.7-4,2.1-6.4c-3.4-1.8-9,1.4-8.9,5.2l0,0.4C747.4,79.5,752.5,76.6,752.7,80.9z"/>
									<path class="st65" d="M756.1,108.3c-0.2-0.9,0.1-2.5,0.2-3.5c0.2-2.6,0.6-5.2,1.2-7.8c1.1-4.8,2.9-9.8,6.6-13.3
										c2.1-2,5.3-3.3,8.2-3.8c2-0.4,4.1-0.4,6.1,0.2c0.7,0.2,1.4,0.5,2,0.9c2.9,1.6,4.5,4.7,4,8c-0.5,3-2.7,5.3-5.8,5.2
										c-2.2-0.1-4.9-2.7-4.1-5.4c0.7-2.4,2.9-3.2,4.6-2.7c-3.8,1.1-2,4.9,0.4,5c1.4,0.1,2.9-1.2,2.9-3.2c0-2-1.5-3.9-3.7-4.2
										c-4.7-0.5-8.4,4.5-7.1,8.8c1.7,5.8,9.2,6.6,13.6,3.6c8.6-5.9,5-18.6-3.7-22.3c-4.5-1.9-9.9-1.5-14.3,0.7
										c-4.4,2.2-7.8,6.1-9.9,10.6C753.9,92.4,754.2,100.6,756.1,108.3z"/>
									<path class="st65" d="M816.1,95c2,1.2,5,0,5.3-2.4c0.2-1.1-0.6-2.1-1.6-2.4c-1-0.3-1.8,0.3-2,1c-0.2,1.2,1.4,2.6,2.4,0.9
										c0,0.9-0.7,1.9-2,1.9c-1.4,0-2.4-1.6-2.1-2.7c0.5-2.2,3.1-2.7,4.9-1.7c1.4,0.8,2.2,2.4,2.1,3.9c-0.1,2.2-1.7,4.1-3.4,5.5
										c-3.3,2.8-7.3,4.2-11.4,5.3c-4.6,1.2-9.3,1.8-14.1,2c-6.3,0.1-12.2-0.8-18.3-2.1c-5.2-1.1-10.9-1.6-15.2,2.2
										c-1.3,1.1,0.6,3,1.8,1.9c3.5-3.2,8.5-2.3,12.8-1.6c4.2,0.8,8.3,1.7,12.5,2c10.1,0.7,20.7-0.7,29.9-5c2.2-1,4.3-2.2,5.9-3.9
										c1.7-1.7,2.9-4,2.9-6.3c0-2.4-1.3-4.8-3.3-6.1c-1.5-1-3.5-1.4-5.2-0.8C814.8,87.6,812.5,92.8,816.1,95z"/>
									<path class="st65" d="M810.2,111.5c11.2-6.9,19.5-7.4,26.2-1.6c2.9,2.5,5.7,2.8,7.3,2.3c0.8-0.2,1.3-0.7,1.5-1.3
										c0.3-1.1-0.8-3-4.6-5C831.2,100.8,817.6,103.7,810.2,111.5z"/>
									<path class="st65" d="M792,92c0-0.1,0-0.2,0-0.3c0-0.2,0-0.4,0.1-0.6c0-0.2,0-0.4,0-0.6c0-0.4,0-0.7,0-1
										c0-0.6-0.1-1.1-0.1-1.4c0-0.3-0.1-0.5-0.1-0.5s-0.1,0.2-0.2,0.5c0,0.2-0.1,0.3-0.2,0.6c-0.1,0.2-0.2,0.5-0.3,0.8
										c-0.1,0.3-0.2,0.6-0.3,0.9c-0.1,0.3-0.3,0.7-0.4,1c-0.1,0.2-0.2,0.4-0.3,0.6c-0.1,0.2-0.2,0.4-0.3,0.6
										c-0.1,0.2-0.2,0.4-0.3,0.6c-0.1,0.1-0.1,0.2-0.2,0.3c-0.1,0.1-0.1,0.2-0.2,0.3c-0.5,0.8-1.1,1.6-1.9,2.3
										c-0.7,0.7-1.6,1.3-2.6,1.8c-0.2,0.1-0.5,0.2-0.8,0.3c-0.3,0.1-0.5,0.2-0.8,0.3l-0.4,0.1l-0.4,0.1c-0.3,0.1-0.6,0.1-0.8,0.2
										c-1.2,0.2-2.4,0.3-3.6,0.3c-1.2,0-2.5-0.2-3.7-0.4l-0.5-0.1l-0.2,0l-0.1,0c0,0,0,0,0,0l0,0l0,0l-0.1,0
										c-0.4-0.1-0.7-0.1-1.1-0.2c-0.4,0-0.7-0.1-1.1-0.1c-0.2,0-0.4,0-0.5,0c-0.2,0-0.4,0-0.5,0c-1.4,0-2.8,0.3-4.1,0.7
										c-1.3,0.4-2.4,1.1-3.3,1.7c-0.9,0.7-1.6,1.4-2.1,2.2c-0.5,0.7-0.9,1.4-1.2,2c-0.3,0.6-0.4,1-0.5,1.4
										c-0.1,0.3-0.1,0.5-0.1,0.5s0.1-0.1,0.3-0.4c0.2-0.2,0.5-0.6,1-1c0.4-0.4,1-0.9,1.6-1.3c0.6-0.5,1.4-0.9,2.3-1.3
										c0.9-0.4,1.8-0.7,2.8-0.8c1-0.2,2.1-0.2,3.2-0.1c0.6,0.1,1.1,0.2,1.7,0.3c0.6,0.1,1.2,0.3,1.9,0.4c0.3,0.1,0.7,0.1,1.1,0.2
										c0.4,0.1,0.7,0.1,1.1,0.2c0.4,0,0.7,0.1,1.1,0.1c0.4,0,0.7,0.1,1.1,0.1c1.5,0,3-0.1,4.5-0.5c0.7-0.2,1.5-0.4,2.2-0.7
										c0.4-0.1,0.7-0.3,1-0.5c0.2-0.1,0.3-0.2,0.5-0.3c0.2-0.1,0.3-0.2,0.5-0.3c1.1-0.7,2.1-1.6,2.9-2.6
										c6.7-7.3,9.3-19.1,5.4-27.8c-1.8-4-3.6-5.1-4.7-4.9c-0.6,0.1-1.1,0.6-1.4,1.4c-0.6,1.6-0.5,4.5,1.8,7.5
										C794.5,79.3,795,85.1,792,92z"/>
									<path class="st65" d="M794.9,94.3c-0.4-0.3-0.9-0.4-1.3,0.1c-0.1,0.1-0.2,0.3-0.2,0.5c-0.3,1.3-0.7,2.7-1.8,4.3
										c-0.8,1-1.8,2-3.2,3.1c-1.8,1.4-4.5,1.8-6.2,2.1c0.3,0,0.6,0.1,0.9,0.1c15,2.1,22.1-4,25-7.9c1.5-2,2.6-4.3,3.2-6.5
										c-0.1,0.2-0.3,0.5-0.4,0.7c-1.6,2.1-4.1,2.8-6.7,2c-1.8-0.6-3-0.3-3.9,1c-0.8,1.1-1.4,2.7-2,4.9c-0.2,0.8-0.6,1.5-1,2.1
										c-1,1.4-2.5,2-3.3,1.4c-0.3-0.2-1-1,0.7-3.3c0.4-0.6,0.7-1.1,0.9-1.6c0,0,0,0,0,0c2.3-6.5,5.5-8.4,9.9-5.8
										c1.9,1.1,3.1,0.8,3.6,0.2c0.2-0.3,0.3-0.7,0.2-1.1c-0.2-0.8-1.2-1.8-3.4-2.5c-4.8-1.4-9,2-10.1,7.6
										C795.5,95,795.2,94.6,794.9,94.3z"/>
									<path class="st65" d="M815.9,111.1l19.1,1.3c0-2.9-4.3-5.2-9.6-5.2C820.2,107.1,818.3,108.7,815.9,111.1z"/>
									<path class="st65" d="M746.8,76.2l-6.2-15.8l0,0.1V80c0,0,0,0,0,0c1.8,0.6,2.9,2.7,2.9,2.7
										C748.3,79.1,746.8,76.2,746.8,76.2z"/>
									<path class="st65" d="M740.6,103.3C740.6,103.3,740.6,103.3,740.6,103.3l0,6.4c0,0,0,0,0,0s9.2-3.8,9.2-8.4
										C749.8,101.4,745.9,103.3,740.6,103.3z"/>
								</g>
								<g>
									<path class="st65" d="M689.5,66.1h-29.3c-0.6,0-1.1,0.5-1.1,1.1v7.2c-1.7-0.1-3.9,0.3-6,2c-3.1,2.5-5,14.8-2.8,22.8
										c1.5,5.3,4.5,8.7,8.7,9.9v7.5c0,0.6,0.5,1.1,1.1,1.1h29.3c0.6,0,1.1-0.5,1.1-1.1V67.1C690.6,66.5,690.1,66.1,689.5,66.1z
										 M654.8,99c-2.5-7.3-0.3-17.9,1.1-19.3c1.1-0.9,2.3-1.1,3.3-1v25.9C657.2,103.5,655.8,101.7,654.8,99z M687.4,114.4h-25
										V69.3h25V114.4z"/>
									<path class="st65" d="M666.4,112.3h2.4c0.6,0,1.1-0.5,1.1-1.1V72.4c0-0.6-0.5-1.1-1.1-1.1h-2.4c-0.6,0-1.1,0.5-1.1,1.1
										v38.8C665.3,111.8,665.8,112.3,666.4,112.3z"/>
									<path class="st65" d="M673.3,112.3h2.4c0.6,0,1.1-0.5,1.1-1.1V72.4c0-0.6-0.5-1.1-1.1-1.1h-2.4c-0.6,0-1.1,0.5-1.1,1.1
										v38.8C672.2,111.8,672.7,112.3,673.3,112.3z"/>
									<path class="st65" d="M681,112.3h2.4c0.6,0,1.1-0.5,1.1-1.1V72.4c0-0.6-0.5-1.1-1.1-1.1H681c-0.6,0-1.1,0.5-1.1,1.1v38.8
										C679.9,111.8,680.4,112.3,681,112.3z"/>
									<path class="st65" d="M659.8,63.6c-0.3-0.7-0.4-1.5-0.4-2.2c0-0.4,0.1-0.7,0.2-1c0.1-0.1,0.2-0.2,0.3-0.3
										c0,0,0.2-0.1,0.1-0.1l0.3-0.1c0.2-0.1,0.4-0.1,0.5-0.1l0.5,0c0.4,0,0.7,0,1.1,0.1c0.7,0.1,1.5,0.3,2.1,0.5l0.7,0.2l0.2-0.9
										c0-0.2,0.1-0.6,0.2-0.8c0.1-0.3,0.2-0.5,0.4-0.8c0.2-0.2,0.3-0.5,0.6-0.6c0.2-0.2,0.4-0.3,0.7-0.5c0.2-0.1,0.5-0.2,0.8-0.3
										c0.3-0.1,0.6-0.1,0.9-0.1c0.3,0,0.6,0,0.9,0l0.5,0c0.1,0,0.3,0,0.5,0.1c0.4,0.1,0.7,0.1,1,0.2c0.3,0.1,0.6,0.2,0.9,0.3
										c0.3,0.1,0.6,0.3,0.8,0.4c0.3,0.2,0.5,0.3,0.7,0.5c0.2,0.2,0.5,0.4,0.7,0.6c0.2,0.2,0.4,0.5,0.6,0.7
										c0.2,0.2,0.3,0.5,0.5,0.8c0.1,0.2,0.3,0.6,0.3,0.8l1,3.5l1-3.5c0.1-0.2,0.2-0.6,0.3-0.9c0.1-0.3,0.3-0.6,0.5-0.8
										c0.2-0.3,0.4-0.5,0.6-0.8c0.2-0.2,0.4-0.5,0.6-0.6c0.2-0.2,0.5-0.4,0.7-0.5c0.3-0.2,0.5-0.2,0.8-0.3
										c0.3-0.1,0.6-0.1,0.9-0.1c0.3,0,0.6,0,0.9,0.1l0.5,0.1l0.1,0c0,0,0.1,0,0,0l0,0l0.1,0l0.3,0.1l0.5,0.2l0.4,0.2
										c0.3,0.1,0.5,0.3,0.7,0.5l0.3,0.3l0.2,0.4c0.1,0.1,0.1,0.3,0.2,0.4c0,0.1,0.1,0.3,0.1,0.4l0,0.5l0,0.5
										c-0.1,0.6-0.3,1.3-0.6,1.9l-0.6,1.1l1-0.6c0.2-0.1,0.5-0.3,0.8-0.3c0.3-0.1,0.6-0.1,0.8-0.1c0.3,0,0.6,0.1,0.8,0.2
										c0.3,0.1,0.5,0.4,0.6,0.6c-0.1-0.3-0.3-0.6-0.5-0.8c-0.2-0.2-0.6-0.4-0.9-0.4c-0.3-0.1-0.7-0.1-1,0c0,0,0,0-0.1,0
										c0.2-0.4,0.4-0.9,0.6-1.4c0.1-0.4,0.2-0.8,0.2-1.2c0-0.2,0-0.4-0.1-0.7c-0.1-0.2-0.1-0.4-0.2-0.6l-0.3-0.6l-0.4-0.5
										c-0.1-0.2-0.3-0.3-0.5-0.4c-0.2-0.1-0.3-0.3-0.5-0.4l-0.6-0.3l-0.5-0.2l-0.3-0.1l-0.1,0l0,0l-0.1,0l-0.1,0l-0.6-0.1
										c-0.4-0.1-0.8-0.1-1.2-0.2c-0.4,0-0.9,0-1.3,0.1c-0.4,0.1-0.9,0.2-1.3,0.4c-0.4,0.2-0.8,0.4-1.1,0.7
										c-0.3,0.3-0.7,0.5-1,0.9c-0.3,0.3-0.5,0.6-0.8,1c0,0,0,0.1-0.1,0.1c0,0,0-0.1-0.1-0.1c-0.2-0.3-0.5-0.6-0.8-0.9
										c-0.3-0.3-0.6-0.6-0.9-0.8c-0.3-0.3-0.7-0.4-1-0.7c-0.4-0.2-0.7-0.4-1.1-0.5c-0.4-0.1-0.7-0.3-1.2-0.3
										c-0.4-0.1-0.8-0.2-1.1-0.2c-0.2,0-0.3,0-0.6-0.1l-0.6,0c-0.4,0-0.8,0-1.2,0.1c-0.4,0-0.8,0.1-1.2,0.3
										c-0.4,0.1-0.8,0.3-1.1,0.5c-0.4,0.2-0.7,0.5-1,0.8c-0.3,0.3-0.6,0.6-0.8,1c-0.2,0.4-0.4,0.7-0.5,1.1c0,0.2-0.1,0.3-0.1,0.5
										c-0.5-0.1-1.1-0.1-1.6-0.1c-0.4,0-0.8,0-1.2,0.1c-0.2,0-0.5,0.1-0.7,0.2c-0.2,0-0.4,0.1-0.6,0.2l-0.3,0.1
										c-0.2,0.1-0.2,0.2-0.3,0.3c-0.2,0.2-0.3,0.4-0.4,0.6c-0.2,0.5-0.1,0.9-0.1,1.3C659,62.2,659.4,63,659.8,63.6z"/>
								</g>
								<g>
									<path class="st65" d="M694.1,67.1v49.4c0,0.6,0.5,1.1,1.1,1.1h29.3c0.6,0,1.1-0.5,1.1-1.1v-7.5c4.3-1.3,7.3-4.7,8.7-9.9
										c2.2-8,0.3-20.3-2.8-22.8c-2.1-1.7-4.3-2.1-6-2v-7.2c0-0.6-0.5-1.1-1.1-1.1h-29.3C694.6,66.1,694.1,66.5,694.1,67.1z
										 M725.5,104.5V78.6c0.9-0.1,2.1,0.1,3.3,1c1.4,1.4,3.6,12,1.1,19.3C728.9,101.7,727.5,103.5,725.5,104.5z M697.3,69.3h25
										v45.2h-25V69.3z"/>
									<path class="st65" d="M718.3,112.3h-2.4c-0.6,0-1.1-0.5-1.1-1.1V72.4c0-0.6,0.5-1.1,1.1-1.1h2.4c0.6,0,1.1,0.5,1.1,1.1
										v38.8C719.3,111.8,718.9,112.3,718.3,112.3z"/>
									<path class="st65" d="M711.4,112.3H709c-0.6,0-1.1-0.5-1.1-1.1V72.4c0-0.6,0.5-1.1,1.1-1.1h2.4c0.6,0,1.1,0.5,1.1,1.1v38.8
										C712.4,111.8,711.9,112.3,711.4,112.3z"/>
									<path class="st65" d="M703.7,112.3h-2.4c-0.6,0-1.1-0.5-1.1-1.1V72.4c0-0.6,0.5-1.1,1.1-1.1h2.4c0.6,0,1.1,0.5,1.1,1.1
										v38.8C704.7,111.8,704.3,112.3,703.7,112.3z"/>
									<path class="st65" d="M724.9,63.6c0.3-0.7,0.4-1.5,0.4-2.2c0-0.4-0.1-0.7-0.2-1c-0.1-0.1-0.2-0.2-0.3-0.3
										c0,0-0.2-0.1-0.1-0.1l-0.3-0.1c-0.2-0.1-0.4-0.1-0.5-0.1l-0.5,0c-0.4,0-0.7,0-1.1,0.1c-0.7,0.1-1.5,0.3-2.1,0.5l-0.7,0.2
										l-0.2-0.9c0-0.2-0.1-0.6-0.2-0.8c-0.1-0.3-0.2-0.5-0.4-0.8c-0.2-0.2-0.3-0.5-0.6-0.6c-0.2-0.2-0.4-0.3-0.7-0.5
										c-0.2-0.1-0.5-0.2-0.8-0.3c-0.3-0.1-0.6-0.1-0.9-0.1c-0.3,0-0.6,0-0.9,0l-0.5,0c-0.1,0-0.3,0-0.5,0.1
										c-0.4,0.1-0.7,0.1-1,0.2c-0.3,0.1-0.6,0.2-0.9,0.3c-0.3,0.1-0.6,0.3-0.8,0.4c-0.3,0.2-0.5,0.3-0.7,0.5
										c-0.2,0.2-0.5,0.4-0.7,0.6c-0.2,0.2-0.4,0.5-0.6,0.7c-0.2,0.2-0.3,0.5-0.5,0.8c-0.1,0.2-0.3,0.6-0.3,0.8l-1,3.5l-1-3.5
										c-0.1-0.2-0.2-0.6-0.3-0.9c-0.1-0.3-0.3-0.6-0.5-0.8c-0.2-0.3-0.4-0.5-0.6-0.8c-0.2-0.2-0.4-0.5-0.6-0.6
										c-0.2-0.2-0.5-0.4-0.7-0.5c-0.3-0.2-0.5-0.2-0.8-0.3c-0.3-0.1-0.6-0.1-0.9-0.1c-0.3,0-0.6,0-0.9,0.1l-0.5,0.1l-0.1,0
										c0,0-0.1,0,0,0l0,0l-0.1,0l-0.3,0.1l-0.5,0.2l-0.4,0.2c-0.3,0.1-0.5,0.3-0.7,0.5l-0.3,0.3l-0.2,0.4
										c-0.1,0.1-0.1,0.3-0.2,0.4c0,0.1-0.1,0.3-0.1,0.4l0,0.5l0,0.5c0.1,0.6,0.3,1.3,0.6,1.9l0.6,1.1l-1-0.6
										c-0.2-0.1-0.5-0.3-0.8-0.3c-0.3-0.1-0.6-0.1-0.8-0.1c-0.3,0-0.6,0.1-0.8,0.2c-0.3,0.1-0.5,0.4-0.6,0.6
										c0.1-0.3,0.3-0.6,0.5-0.8c0.2-0.2,0.6-0.4,0.9-0.4c0.3-0.1,0.7-0.1,1,0c0,0,0,0,0.1,0c-0.2-0.4-0.4-0.9-0.6-1.4
										c-0.1-0.4-0.2-0.8-0.2-1.2c0-0.2,0-0.4,0.1-0.7c0.1-0.2,0.1-0.4,0.2-0.6l0.3-0.6l0.4-0.5c0.1-0.2,0.3-0.3,0.5-0.4
										c0.2-0.1,0.3-0.3,0.5-0.4l0.6-0.3l0.5-0.2l0.3-0.1l0.1,0l0,0l0.1,0l0.1,0l0.6-0.1c0.4-0.1,0.8-0.1,1.2-0.2
										c0.4,0,0.9,0,1.3,0.1c0.4,0.1,0.9,0.2,1.3,0.4c0.4,0.2,0.8,0.4,1.1,0.7c0.3,0.3,0.7,0.5,1,0.9c0.3,0.3,0.5,0.6,0.8,1
										c0,0,0,0.1,0.1,0.1c0,0,0-0.1,0.1-0.1c0.2-0.3,0.5-0.6,0.8-0.9c0.3-0.3,0.6-0.6,0.9-0.8c0.3-0.3,0.7-0.4,1-0.7
										c0.4-0.2,0.7-0.4,1.1-0.5c0.4-0.1,0.7-0.3,1.2-0.3c0.4-0.1,0.8-0.2,1.1-0.2c0.2,0,0.3,0,0.6-0.1l0.6,0c0.4,0,0.8,0,1.2,0.1
										c0.4,0,0.8,0.1,1.2,0.3c0.4,0.1,0.8,0.3,1.1,0.5c0.4,0.2,0.7,0.5,1,0.8c0.3,0.3,0.6,0.6,0.8,1c0.2,0.4,0.4,0.7,0.5,1.1
										c0,0.2,0.1,0.3,0.1,0.5c0.5-0.1,1.1-0.1,1.6-0.1c0.4,0,0.8,0,1.2,0.1c0.2,0,0.5,0.1,0.7,0.2c0.2,0,0.4,0.1,0.6,0.2l0.3,0.1
										c0.2,0.1,0.2,0.2,0.3,0.3c0.2,0.2,0.3,0.4,0.4,0.6c0.2,0.5,0.1,0.9,0.1,1.3C725.6,62.2,725.3,63,724.9,63.6z"/>
								</g>
							</g>
							<g class="st64">
								<path class="st65" d="M679.6,228.3c-0.9,3.6-2.2,7.4-5,10c-1.6,1.5-4,2.5-6.1,2.9c-1.5,0.3-3.1,0.3-4.6-0.2
									c-0.5-0.2-1-0.4-1.5-0.7c-2.1-1.2-3.4-3.6-3-6c0.4-2.2,2-4,4.4-3.9c1.7,0.1,3.6,2,3.1,4c-0.5,1.8-2.2,2.4-3.5,2.1
									c2.8-0.8,1.5-3.7-0.3-3.8c-1-0.1-2.2,0.9-2.2,2.4c0,1.5,1.2,3,2.8,3.2c3.5,0.4,6.3-3.4,5.3-6.6c-1.3-4.4-6.9-5-10.3-2.7
									c-6.5,4.5-3.8,14,2.8,16.8c3.4,1.4,7.5,1.1,10.8-0.5c3.3-1.7,5.9-4.6,7.5-8c2.5-5.5,2.4-11.7,0.9-17.4
									c0.2,0.7-0.1,1.9-0.1,2.6C680.4,224.4,680.1,226.3,679.6,228.3z"/>
								<path class="st65" d="M683.2,231.9c0,0.8,0.3,1.9,1,3.3c0.7,1.3,1,2.4,1,3.2c0,0.9-0.3,1.8-0.8,2.7c1.2-0.2,2.3-0.8,3.2-1.6
									c0.9-0.9,1.3-2,1.3-3.1c0-0.6-0.1-1.4-0.3-2.5c-0.2-1.1-0.3-2-0.3-2.5c0-2.4,1-4.7,3-6.8c-2.5,0.4-4.5,1.3-5.9,2.5
									C683.9,228.3,683.2,229.9,683.2,231.9z"/>
								<path class="st65" d="M695.6,231.4c0-2.5-1.1-4.8-3.2-6.9c-2.2,2.1-3.2,4.4-3.2,6.9c0,2.5,1.1,5.1,3.2,8
									C694.5,236.5,695.6,233.8,695.6,231.4z"/>
								<path class="st65" d="M699.3,227c-1.4-1.3-3.4-2.1-5.9-2.5c1.8,1.9,2.8,3.9,3,6.2c0.1,0.7,0,1.6-0.2,2.8
									c-0.3,1.3-0.4,2.3-0.4,2.8c0,1.2,0.4,2.2,1.3,3.1c0.9,0.9,1.9,1.4,3.2,1.6c-0.6-1-0.9-1.9-0.9-2.7c0-0.8,0.4-1.9,1.1-3.2
									c0.7-1.3,1.1-2.4,1.1-3.3C701.4,229.9,700.7,228.3,699.3,227z"/>
								<path class="st65" d="M701.5,240.4c-0.2,3.2-4,1.1-4.1,0.1l0,0.3c-0.1,2.9,4.1,5.3,6.7,3.9c3.4-1.8,1.4-7.9-1.6-4.8
									c1.2,0.4,1.4,1.7,0.5,2.8c-0.4,0.4-1.2,0.7-1.7,0.2C702.1,241.9,702,241.4,701.5,240.4z"/>
								<path class="st65" d="M702.5,239.9C702.5,239.9,702.5,239.9,702.5,239.9C702.5,239.9,702.4,239.9,702.5,239.9
									C702.3,240,702.3,240,702.5,239.9z"/>
								<path class="st65" d="M682.2,239.9c-3-3.1-5,3-1.6,4.8c2.6,1.4,6.8-1.1,6.7-3.9l0-0.3c0,1-3.9,3.1-4.1-0.1
									c-0.6,1-0.6,1.5,0.2,2.4c-0.5,0.5-1.2,0.2-1.7-0.2C680.8,241.6,681,240.3,682.2,239.9z"/>
								<path class="st65" d="M682.2,239.9C682.2,239.9,682.2,239.9,682.2,239.9C682.2,239.9,682.2,239.9,682.2,239.9
									C682.3,240,682.3,240,682.2,239.9z"/>
								<path class="st65" d="M704.9,237.2c1.6,3.4,4.1,6.3,7.5,8c3.3,1.7,7.3,2,10.8,0.5c6.5-2.8,9.3-12.3,2.8-16.8
									c-3.3-2.3-9-1.7-10.3,2.7c-1,3.2,1.8,7,5.3,6.6c1.6-0.2,2.8-1.7,2.8-3.2c0-1.5-1.1-2.5-2.2-2.4c-1.8,0.1-3.2,3-0.3,3.8
									c-1.3,0.4-3-0.2-3.5-2.1c-0.6-2,1.4-4,3.1-4c2.4-0.1,4,1.7,4.4,3.9c0.4,2.5-0.8,4.8-3,6c-0.5,0.3-1,0.5-1.5,0.7
									c-1.5,0.4-3.1,0.5-4.6,0.2c-2.2-0.4-4.5-1.4-6.1-2.9c-2.8-2.6-4.1-6.4-5-10c-0.5-1.9-0.7-3.9-0.9-5.9
									c-0.1-0.7-0.3-1.9-0.1-2.6C702.5,225.5,702.4,231.8,704.9,237.2z"/>
								<path class="st65" d="M687.7,244l4.7,11.9L697,244c0,0,1.1-2.2-2.5-4.9c0,0-0.8,1.6-2.1,2c-1.4-0.4-2.1-2-2.1-2
									C686.5,241.7,687.7,244,687.7,244z"/>
								<path class="st65" d="M692.3,218.7c0,0-6.9,2.8-6.9,6.3c0,0,2.9-1.5,6.9-1.5c4,0,6.9,1.5,6.9,1.5
									C699.2,221.5,692.3,218.7,692.3,218.7z"/>
							</g>
						</g>
					</g>
				</g>
				<g>
					<g>
						<g>
							
								<image style="overflow:visible;opacity:0.6;" width="26" height="26" xlink:href="AAA380CD.png"  transform="matrix(1 0 0 1 487.8102 61.1121)">
							</image>
							<g>
								<radialGradient id="SVGID_19_" cx="500.5145" cy="71.262" r="8.0607" gradientUnits="userSpaceOnUse">
									<stop  offset="0" style="stop-color:#F7E998"/>
									<stop  offset="0.6634" style="stop-color:#E6B75E"/>
									<stop  offset="1" style="stop-color:#BD7726"/>
								</radialGradient>
								<circle class="st66" cx="500.3" cy="72" r="7"/>
							</g>
						</g>
						
							<radialGradient id="SVGID_20_" cx="966.7796" cy="-193.9542" r="2.9033" gradientTransform="matrix(1.3053 -0.7649 0.3532 0.6089 -695.7039 926.2542)" gradientUnits="userSpaceOnUse">
							<stop  offset="0" style="stop-color:#FFFFFF"/>
							<stop  offset="1" style="stop-color:#FFFFFF;stop-opacity:0"/>
						</radialGradient>
						<path class="st67" d="M501.7,66.4c1.1,1.9,0.3,4.4-1.9,5.7c-2.2,1.3-4.8,0.8-5.9-1c-1.1-1.9-0.3-4.4,1.9-5.7
							C497.9,64,500.5,64.5,501.7,66.4z"/>
					</g>
					<g>
						<g>
							
								<image style="overflow:visible;opacity:0.6;" width="26" height="26" xlink:href="AAA380D3.png"  transform="matrix(1 0 0 1 871.8102 61.1121)">
							</image>
							<g>
								<radialGradient id="SVGID_21_" cx="884.5145" cy="71.262" r="8.0609" gradientUnits="userSpaceOnUse">
									<stop  offset="0" style="stop-color:#F7E998"/>
									<stop  offset="0.6634" style="stop-color:#E6B75E"/>
									<stop  offset="1" style="stop-color:#BD7726"/>
								</radialGradient>
								<circle class="st68" cx="884.3" cy="72" r="7"/>
							</g>
						</g>
						
							<radialGradient id="SVGID_22_" cx="1184.1251" cy="-42.0727" r="2.9032" gradientTransform="matrix(1.3053 -0.7649 0.3532 0.6089 -649.0471 1000.0188)" gradientUnits="userSpaceOnUse">
							<stop  offset="0" style="stop-color:#FFFFFF"/>
							<stop  offset="1" style="stop-color:#FFFFFF;stop-opacity:0"/>
						</radialGradient>
						<path class="st69" d="M885.7,66.4c1.1,1.9,0.3,4.4-1.9,5.7c-2.2,1.3-4.8,0.8-5.9-1c-1.1-1.9-0.3-4.4,1.9-5.7
							C881.9,64,884.5,64.5,885.7,66.4z"/>
					</g>
					<g>
						<g>
							
								<image style="overflow:visible;opacity:0.6;" width="26" height="25" xlink:href="AAA380D4.png"  transform="matrix(1 0 0 1 487.8102 213.1121)">
							</image>
							<g>
								<radialGradient id="SVGID_23_" cx="500.5145" cy="222.862" r="8.0607" gradientUnits="userSpaceOnUse">
									<stop  offset="0" style="stop-color:#F7E998"/>
									<stop  offset="0.6634" style="stop-color:#E6B75E"/>
									<stop  offset="1" style="stop-color:#BD7726"/>
								</radialGradient>
								<circle class="st70" cx="500.3" cy="223.6" r="7"/>
							</g>
						</g>
						
							<radialGradient id="SVGID_24_" cx="915.0289" cy="-94.5426" r="2.9033" gradientTransform="matrix(1.3053 -0.7649 0.3532 0.6089 -663.2687 977.7419)" gradientUnits="userSpaceOnUse">
							<stop  offset="0" style="stop-color:#FFFFFF"/>
							<stop  offset="1" style="stop-color:#FFFFFF;stop-opacity:0"/>
						</radialGradient>
						<path class="st71" d="M501.7,218c1.1,1.9,0.3,4.4-1.9,5.7c-2.2,1.3-4.8,0.8-5.9-1c-1.1-1.9-0.3-4.4,1.9-5.7
							C497.9,215.6,500.5,216.1,501.7,218z"/>
					</g>
					<g>
						<g>
							
								<image style="overflow:visible;opacity:0.6;" width="26" height="25" xlink:href="AAA380D7.png"  transform="matrix(1 0 0 1 871.8102 213.1121)">
							</image>
							<g>
								<radialGradient id="SVGID_25_" cx="884.5145" cy="222.862" r="8.0609" gradientUnits="userSpaceOnUse">
									<stop  offset="0" style="stop-color:#F7E998"/>
									<stop  offset="0.6634" style="stop-color:#E6B75E"/>
									<stop  offset="1" style="stop-color:#BD7726"/>
								</radialGradient>
								<circle class="st72" cx="884.3" cy="223.6" r="7"/>
							</g>
						</g>
						
							<radialGradient id="SVGID_26_" cx="1132.3744" cy="57.3388" r="2.9032" gradientTransform="matrix(1.3053 -0.7649 0.3532 0.6089 -616.6119 1051.5066)" gradientUnits="userSpaceOnUse">
							<stop  offset="0" style="stop-color:#FFFFFF"/>
							<stop  offset="1" style="stop-color:#FFFFFF;stop-opacity:0"/>
						</radialGradient>
						<path class="st73" d="M885.7,218c1.1,1.9,0.3,4.4-1.9,5.7c-2.2,1.3-4.8,0.8-5.9-1c-1.1-1.9-0.3-4.4,1.9-5.7
							C881.9,215.6,884.5,216.1,885.7,218z"/>
					</g>
				</g>
			</g>
			<g>
				<g>
					<g>
						<g>
							<defs>
								<path id="SVGID_27_" d="M692.3,280c-32.3,0-63.2-11.7-87.4-32.9H492.7L472,226.3V68.9l20.8-20.8H605
									c24.2-21.3,55.1-32.9,87.4-32.9c32.3,0,63.2,11.7,87.4,32.9h112.2l20.8,20.8v157.3L891.9,247H779.7
									C755.5,268.3,724.6,280,692.3,280z"/>
							</defs>
							<clipPath id="SVGID_28_">
								<use xlink:href="#SVGID_27_"  style="overflow:visible;"/>
							</clipPath>
						</g>
						<g>
							<defs>
								<path id="SVGID_29_" d="M888.6,56.1h-112c-22.2-20.4-51.8-32.9-84.3-32.9c-32.5,0-62.1,12.5-84.3,32.9h-112L480,72.2v150.7
									l16.1,16.1h112c22.2,20.4,51.8,32.9,84.3,32.9c32.5,0,62.1-12.5,84.3-32.9h112l16.1-16.1V72.2L888.6,56.1z"/>
							</defs>
							<clipPath id="SVGID_30_">
								<use xlink:href="#SVGID_29_"  style="overflow:visible;"/>
							</clipPath>
						</g>
					</g>
					<g>
						<defs>
							<path id="SVGID_31_" d="M499.9,150.1h387.9v57.1H499.9V150.1z M499.9,260.5h387.9v-48.3H499.9V260.5z M499.9,145.1h387.9V88
								H499.9V145.1z M499.9,46.6v36.3h387.9V46.6H499.9z"/>
						</defs>
						<clipPath id="SVGID_32_">
							<use xlink:href="#SVGID_31_"  style="overflow:visible;"/>
						</clipPath>
					</g>
				</g>
			</g>
		</g>
	</g>
</g>
<rect x="515.6" y="137.3" class="st74" width="295" height="48"/>
<text transform="matrix(1 0 0 1 515.5575 167.3646)" class="st75 st76">Brewers </text>
<rect x="746.9" y="137.3" class="st74" width="295" height="48"/>
<text transform="matrix(1 0 0 1 746.9424 167.3646)" class="st75 st76">Mark</text>
</svg>
