<?xml version="1.0" encoding="utf-8"?>
<!-- Generator: Adobe Illustrator 22.1.0, SVG Export Plug-In . SVG Version: 6.00 Build 0)  -->
<svg version="1.1" id="Layer_1" xmlns="http://www.w3.org/2000/svg" xmlns:xlink="http://www.w3.org/1999/xlink" x="0px" y="0px"
	 viewBox="0 0 1400 980" style="enable-background:new 0 0 1400 980;" xml:space="preserve">
<style type="text/css">
	.st0{fill:#0D0E1F;}
	.st1{fill:#6E5535;}
	.st2{fill:#B3B3B3;}
	.st3{fill:#808080;}
	.st4{fill:#999999;}
	.st5{fill:#503B2B;}
	.st6{fill:#420104;}
	.st7{fill:#C7C8CA;}
	.st8{fill:#F4BB3A;}
	.st9{fill:#28000A;}
	.st10{fill:#FFFFFF;}
	.st11{fill:#F09B36;}
	.st12{fill:#3F2521;}
	.st13{fill:#9C3D19;}
	.st14{fill:#ED7C31;}
	.st15{fill:#B25538;}
	.st16{fill:#883E26;}
	.st17{fill:#937963;}
	.st18{fill:#E18E4E;}
	.st19{fill:#F8DB94;}
	.st20{fill:#E6E6E6;}
	.st21{fill:#C2AD76;}
	.st22{fill:#B55232;}
	.st23{fill:#D6562B;}
	.st24{fill:#1F0400;}
	.st25{fill:#8E3613;}
	.st26{fill:#722A0F;}
	.st27{fill:#7989A3;}
	.st28{fill:#DDD4DA;}
	.st29{fill:#F9E3B2;}
	.st30{fill:#7F2E19;}
	.st31{fill:#B78D7B;}
	.st32{fill:#4F1A06;}
	.st33{opacity:0.18;}
	.st34{fill:none;stroke:#000000;stroke-miterlimit:10;}
	.st35{fill:#FFFFFF;stroke:#000000;stroke-miterlimit:10;}
	.st36{fill:none;stroke:#FFFFFF;stroke-width:2;stroke-miterlimit:10;}
</style>
<g id="Layer_1_1_">
	<rect class="st0" width="1400" height="980"/>
	<path class="st1" d="M1187.4,770.5H212.6V187.7c0-21.6,17.5-39.2,39.2-39.2h896.4c21.6,0,39.2,17.5,39.2,39.2V770.5z"/>
</g>
<g id="Layer_4">
	<path class="st2" d="M229.3,410.4v-83.2c0-3.4,2.8-6.2,6.2-6.2H282c3.4,0,6.2,2.8,6.2,6.2v83.2L229.3,410.4L229.3,410.4z"/>
	<g>
		<path class="st3" d="M219.7,334.8h9.6v9.1h-9.4c-1,0.1-1,0.6-1,1.3v41.2c0,0.5,0,1.2,0.9,1.3h9.5v9.1h-9.7
			c-3.9-0.1-9.8-2.9-9.8-10.3v-41.2C209.9,337.7,215.7,334.9,219.7,334.8L219.7,334.8z"/>
	</g>
	<path class="st4" d="M256.9,410.4V321H282c3.4,0,6.2,2.8,6.2,6.2v83.2L256.9,410.4L256.9,410.4z"/>
	<path class="st2" d="M319.4,410.4v-83.2c0-3.4,2.8-6.2,6.2-6.2h46.6c3.4,0,6.2,2.8,6.2,6.2v83.2L319.4,410.4L319.4,410.4z"/>
	<g>
		<path class="st3" d="M311.7,334.8h9.6v9.1h-9.4c-1,0.1-1,0.6-1,1.3v41.2c0,0.5,0,1.2,0.9,1.3h9.5v9.1h-9.7
			c-3.9-0.1-9.8-2.9-9.8-10.3v-41.2C301.9,337.7,307.7,334.9,311.7,334.8L311.7,334.8z"/>
	</g>
	<path class="st4" d="M348.9,410.4V321h25.2c3.4,0,6.2,2.8,6.2,6.2v83.2L348.9,410.4L348.9,410.4z"/>
	<path class="st2" d="M1112.3,410.4v-83.2c0-3.4,2.8-6.2,6.2-6.2h46.6c3.4,0,6.2,2.8,6.2,6.2v83.2L1112.3,410.4L1112.3,410.4z"/>
	<g>
		<path class="st3" d="M1102,332.4h10.4v9.8h-10.1c-1.1,0.1-1.1,0.6-1.1,1.4v44.3c0,0.6,0,1.3,1,1.4h10.2v9.8H1102
			c-4.2-0.1-10.5-3.1-10.5-11.1v-44.3C1091.4,335.6,1097.7,332.5,1102,332.4L1102,332.4z"/>
	</g>
	<path class="st4" d="M1141.8,410.4V321h25.2c3.4,0,6.2,2.8,6.2,6.2v83.2L1141.8,410.4L1141.8,410.4z"/>
	<path class="st2" d="M1017.4,414.9v-83.2c0-3.4,2.8-6.2,6.2-6.2h46.6c3.4,0,6.2,2.8,6.2,6.2v83.2L1017.4,414.9L1017.4,414.9z"/>
	<g>
		<path class="st3" d="M1007.8,339.3h9.6v9.1h-9.4c-1,0.1-1,0.6-1,1.3v41.2c0,0.5,0,1.2,0.9,1.3h9.5v9.1h-9.7
			c-3.9-0.1-9.8-2.9-9.8-10.3v-41.2C998,342.2,1003.8,339.4,1007.8,339.3L1007.8,339.3z"/>
	</g>
	<path class="st4" d="M1045,414.9v-89.4h25.2c3.4,0,6.2,2.8,6.2,6.2v83.2L1045,414.9L1045,414.9z"/>
	<rect x="212.6" y="216.8" class="st5" width="974.8" height="107.9"/>
	<path class="st6" d="M282,596.3c0,13.3,0,68.4,0,68.4h-66c0,0,0-55.2,0-68.4c0-7.2,2.1-14.2,5-20.9c2.2-5,4.8-9.9,7.2-14.5
		c3-5.7,5.4-11.7,7.1-17.9c0.4-1.6,3.4-17.6,3-17.6h21.2c-0.4,0,2.6,16,3,17.6c1.7,6.2,4.1,12.2,7.1,17.9c2.4,4.6,5,9.5,7.2,14.5
		C279.9,582,282,589,282,596.3z"/>
	<path class="st7" d="M261.3,522.4h-24.6c-1.4,0-2.5,1.1-2.5,2.5l0,0c0,1.4,1.1,2.5,2.5,2.5h24.6c1.4,0,2.5-1.1,2.5-2.5l0,0
		C263.9,523.6,262.7,522.4,261.3,522.4z"/>
	<rect x="240.9" y="509.6" class="st6" width="16.2" height="10.7"/>
	<circle class="st8" cx="249" cy="614.7" r="24.1"/>
	<path class="st9" d="M277,576.7h-55.9c2.2-5,4.8-9.9,7.2-14.5c3-5.7,5.4-11.7,7.1-17.9c0.4-1.6,3.4-17.6,3-17.6h21.2
		c-0.4,0,2.6,16,3,17.6c1.7,6.2,4.1,12.2,7.1,17.9C272.2,566.8,274.8,571.7,277,576.7z"/>
	<g>
		<g>
			<path class="st10" d="M227.8,654.4c8.8,0,17.6,0,26.3,0c2.6,0,2.6-4,0-4c-8.8,0-17.6,0-26.3,0
				C225.2,650.4,225.2,654.4,227.8,654.4L227.8,654.4z"/>
		</g>
	</g>
	<g>
		<g>
			<path class="st10" d="M263.9,654.4c2.6,0,2.6-4,0-4S261.3,654.4,263.9,654.4L263.9,654.4z"/>
		</g>
	</g>
	<g>
		<g>
			<path class="st10" d="M240.9,625.7c7.1,0,7.1-11,0-11C233.8,614.7,233.8,625.7,240.9,625.7L240.9,625.7z"/>
		</g>
	</g>
	<g>
		<g>
			<path class="st10" d="M249,605.3c4.5,0,4.5-7,0-7S244.5,605.3,249,605.3L249,605.3z"/>
		</g>
	</g>
	<rect x="212.6" y="419" class="st6" width="974.8" height="18.6"/>
	<polygon class="st11" points="1184.9,415.9 210.1,415.9 209.9,411.3 1184.7,411.3 	"/>
	<rect x="212.6" y="438" class="st5" width="974.8" height="22"/>
	<g>
		<g>
			<path class="st12" d="M410.2,221.7c2.5,0,5,0,7.5,0c2.6,0,2.6-4,0-4c-2.5,0-5,0-7.5,0S407.6,221.7,410.2,221.7L410.2,221.7z"/>
		</g>
	</g>
	<g>
		<g>
			<path class="st12" d="M428.9,224.3c2.6,0,2.6-4,0-4S426.3,224.3,428.9,224.3L428.9,224.3z"/>
		</g>
	</g>
	<g>
		<g>
			<path class="st10" d="M242.2,395.5c4.7,0,9.3,0,14,0c2.6,0,2.6-4,0-4c-4.7,0-9.3,0-14,0C239.6,391.5,239.6,395.5,242.2,395.5
				L242.2,395.5z"/>
		</g>
	</g>
	<g>
		<g>
			<path class="st10" d="M334.1,395.5c4.7,0,9.3,0,14,0c2.6,0,2.6-4,0-4c-4.7,0-9.3,0-14,0C331.5,391.5,331.5,395.5,334.1,395.5
				L334.1,395.5z"/>
		</g>
	</g>
	<g>
		<g>
			<path class="st10" d="M1115.3,403.1c4.7,0,9.3,0,14,0c2.6,0,2.6-4,0-4c-4.7,0-9.3,0-14,0C1112.8,399.1,1112.8,403.1,1115.3,403.1
				L1115.3,403.1z"/>
		</g>
	</g>
	<g>
		<g>
			<path class="st10" d="M1029.8,400c4.7,0,9.3,0,14,0c2.6,0,2.6-4,0-4c-4.7,0-9.3,0-14,0C1027.2,396,1027.2,400,1029.8,400
				L1029.8,400z"/>
		</g>
	</g>
</g>
<g id="Layer_3">
	<path class="st13" d="M1132.8,450.2c10.4,0.5,20.5,6.5,25.8,15.5s5.8,20.7,1.2,30.1c-3.6,7.3-10.1,13.1-17.8,15.9l-6.3-13.2
		c4.7-1.3,8.9-4.7,11-9c2.4-5,2.2-11.5-0.7-16.3c-2.8-4.7-8.4-8.1-13.9-8.4h-0.1L1132.8,450.2z"/>
	<path class="st8" d="M1161.7,548.5l-4.7,43.1c-0.2,1.5-0.4,3-0.8,4.4l-13.6,49.8h-72.2l-13.6-49.8c-0.4-1.5-0.7-2.9-0.8-4.4
		l-4.6-43.1c-1.1-10.3,0.9-20.8,5.7-29.6l19.8-36.4l1.5-2.7l-0.6-4.8l-4.5-36h66.7l-4.5,36l-0.6,4.8l1.5,2.7l19.8,36.4
		C1160.8,527.7,1162.8,538.1,1161.7,548.5z"/>
	<path class="st14" d="M1162.6,548.5l-4.7,43.1c-0.2,1.5-0.4,3-0.8,4.4l-13.6,49.8h-29.6V438.9h26.9l-4.5,36l-0.6,4.8l1.5,2.7
		l19.8,36.4C1161.7,527.7,1163.7,538.1,1162.6,548.5z"/>
	<path class="st15" d="M385,555.8v93.3c0,8.4-6.8,15.3-15.3,15.3h-61.2c-8.4,0-15.3-6.8-15.3-15.3v-93.3l30-26v-78.7h31.7v78.7
		L385,555.8z"/>
	<path class="st16" d="M331.5,451.2v213.2h-22.9c-8.4,0-15.3-6.8-15.3-15.3v-93.3l30-26v-78.7L331.5,451.2L331.5,451.2z"/>
	<path class="st8" d="M366.5,579.3v45c0,8.6-6.9,15.5-15.5,15.5h-23.7c-8.6,0-15.5-6.9-15.5-15.5v-45c0-8.6,6.9-15.5,15.5-15.5H351
		C359.6,563.8,366.5,570.8,366.5,579.3z"/>
	<path class="st17" d="M360.6,451.2h-42.8c-1.6,0-3-1.3-3-3v-2.8c0-1.6,1.3-3,3-3h42.8c1.6,0,3,1.3,3,3v2.8
		C363.5,449.8,362.2,451.2,360.6,451.2z"/>
	<rect x="326.8" y="427.2" class="st8" width="25.2" height="15.5"/>
	<rect x="326.8" y="451.2" class="st16" width="28.6" height="8.3"/>
	<g>
		<g>
			<path class="st18" d="M344.5,476.2c0,9.3,0,18.7,0,28c0,2.6,4,2.6,4,0c0-9.3,0-18.7,0-28C348.5,473.7,344.5,473.6,344.5,476.2
				L344.5,476.2z"/>
		</g>
	</g>
	<g>
		<g>
			<path class="st18" d="M346.3,517c2.6,0,2.6-4,0-4C343.7,513,343.7,517,346.3,517L346.3,517z"/>
		</g>
	</g>
	<g>
		<g>
			<path class="st18" d="M374,570.2c0,4.8,0,9.7,0,14.5c0,2.6,4,2.6,4,0c0-4.8,0-9.7,0-14.5C378,567.7,374,567.6,374,570.2
				L374,570.2z"/>
		</g>
	</g>
	<path class="st6" d="M502,555.8v93.3c0,8.4-6.8,15.3-15.3,15.3h-61.2c-8.4,0-15.3-6.8-15.3-15.3v-93.3l30-26v-78.7h31.7v78.7
		L502,555.8z"/>
	<path class="st9" d="M448.5,451.2v213.2h-22.9c-8.4,0-15.3-6.8-15.3-15.3v-93.3l30-26v-78.7L448.5,451.2L448.5,451.2z"/>
	<path class="st19" d="M483.5,579.3v45c0,8.6-6.9,15.5-15.5,15.5h-23.7c-8.6,0-15.5-6.9-15.5-15.5v-45c0-8.6,6.9-15.5,15.5-15.5H468
		C476.6,563.8,483.5,570.8,483.5,579.3z"/>
	<path class="st17" d="M477.6,451.2h-42.8c-1.6,0-3-1.3-3-3v-2.8c0-1.6,1.3-3,3-3h42.8c1.6,0,3,1.3,3,3v2.8
		C480.5,449.8,479.2,451.2,477.6,451.2z"/>
	<rect x="443.8" y="427.2" class="st19" width="25.2" height="15.5"/>
	<rect x="443.8" y="451.2" class="st9" width="28.6" height="8.3"/>
	<g>
		<g>
			<path class="st18" d="M461.5,476.2c0,9.3,0,18.7,0,28c0,2.6,4,2.6,4,0c0-9.3,0-18.7,0-28C465.5,473.7,461.5,473.6,461.5,476.2
				L461.5,476.2z"/>
		</g>
	</g>
	<g>
		<g>
			<path class="st18" d="M463.3,517c2.6,0,2.6-4,0-4C460.7,513,460.7,517,463.3,517L463.3,517z"/>
		</g>
	</g>
	<g>
		<g>
			<path class="st18" d="M491,570.2c0,4.8,0,9.7,0,14.5c0,2.6,4,2.6,4,0c0-4.8,0-9.7,0-14.5C495,567.7,491,567.6,491,570.2
				L491,570.2z"/>
		</g>
	</g>
	<g>
		<g>
			<path class="st14" d="M662.1,644.3L662.1,644.3"/>
		</g>
	</g>
	<g>
		<g>
			<path class="st14" d="M663.6,637.5L663.6,637.5"/>
		</g>
	</g>
	<g>
		<g>
			<path class="st14" d="M656.6,633.5"/>
		</g>
	</g>
	<g>
		<g>
			<path class="st14" d="M659.1,591"/>
		</g>
	</g>
	<g>
		<g>
			<path class="st20" d="M651.1,555"/>
			<path class="st20" d="M611.6,559L611.6,559"/>
		</g>
	</g>
	<g>
		<g>
			<path class="st20" d="M659.8,555.3"/>
		</g>
	</g>
	<g>
		<g>
			<path class="st21" d="M439,584.7c11.1,0,22.2,0,33.3,0c3.9,0,3.9-6,0-6c-11.1,0-22.2,0-33.3,0C435.1,578.7,435.1,584.7,439,584.7
				L439,584.7z"/>
		</g>
	</g>
	<g>
		<g>
			<path class="st21" d="M452.3,598c2.8,0,5.6,0,8.3,0c3.9,0,3.9-6,0-6c-2.8,0-5.6,0-8.3,0C448.5,592,448.5,598,452.3,598L452.3,598
				z"/>
		</g>
	</g>
	<g>
		<g>
			<path class="st21" d="M441.6,630.3c9.4-9,21.4-14.3,34.4-15c3.8-0.2,3.9-6.2,0-6c-14.6,0.8-28.1,6.6-38.6,16.8
				C434.6,628.7,438.8,632.9,441.6,630.3L441.6,630.3z"/>
		</g>
	</g>
	<g>
		<g>
			<path class="st22" d="M320,582.7c0,12,0,24,0,36c0,3.9,6,3.9,6,0c0-12,0-24,0-36C326,578.8,320,578.8,320,582.7L320,582.7z"/>
		</g>
	</g>
	<g>
		<g>
			<path class="st22" d="M354.3,582.3c0,12.3,0,24.7,0,37c0,3.9,6,3.9,6,0c0-12.3,0-24.7,0-37C360.3,578.5,354.3,578.5,354.3,582.3
				L354.3,582.3z"/>
		</g>
	</g>
	<path class="st19" d="M1135.7,412.9v7.5h-58.3v-7.5c0-2.4,1.9-4.3,4.3-4.3h49.8C1133.8,408.6,1135.7,410.5,1135.7,412.9z"/>
	<path class="st12" d="M1131.1,536.8v55c0,8.9-7.2,16.2-16.2,16.2h-22.7c-8.9,0-16.2-7.2-16.2-16.2v-55c0-8.9,7.2-16.2,16.2-16.2
		h22.7C1123.8,520.6,1131.1,527.8,1131.1,536.8z"/>
	<path class="st23" d="M1143.9,422v12.5c0,2.4-2,4.4-4.4,4.4h-66c-2.4,0-4.4-2-4.4-4.4V422c0-2.4,2-4.4,4.4-4.4h66
		C1141.9,417.7,1143.9,419.6,1143.9,422z"/>
	<polygon class="st22" points="1136.3,480.7 1076.9,482.3 1078.3,479.6 1077.6,474.8 1135.2,473.2 1134.7,478 	"/>
	<polygon class="st23" points="1135.1,481.5 1111.8,481.5 1111.8,474 1134.2,474 1133.6,478.8 	"/>
	<path class="st24" d="M1134,536.8v55c0,8.9-7.2,16.2-16.2,16.2h-4.9v-87.4h4.9C1126.8,520.6,1134,527.8,1134,536.8z"/>
	<rect x="1074.3" y="644.3" class="st13" width="75.2" height="31.2"/>
	<path class="st25" d="M1144.8,422v12.5c0,2.4-1.9,4.4-4.4,4.4h-26.6v-21.3h26.6C1142.9,417.7,1144.8,419.6,1144.8,422z"/>
	<rect x="1065.2" y="643.7" class="st26" width="30.9" height="31.2"/>
	<rect x="212.9" y="201" class="st27" width="974.8" height="24"/>
	<rect x="212.6" y="201" class="st28" width="974.8" height="8"/>
	<rect x="766.3" y="479.9" class="st29" width="157" height="194.6"/>
	<g>
		<path class="st30" d="M816.4,531.5c0,5.2-4.4,8.4-10.9,8.4h-14.6V510h13.9c6,0,10,3.2,10,7.8c0,2.8-1.5,4.9-3.9,6.1
			C813.7,525,816.4,527.3,816.4,531.5z M803.2,516.5H800v5.4h3.2c1.8,0,3-1.1,3-2.7S805,516.5,803.2,516.5z M807.5,530.4
			c0-1.8-1.4-3-3.6-3h-4v6h4C806.1,533.4,807.5,532.2,807.5,530.4z"/>
		<path class="st30" d="M829.7,517.4v4.1h10.4v6.9h-10.4v4.1h13.8v7.4h-22.9V510h22.8v7.4H829.7z"/>
		<path class="st30" d="M857.5,517.4v4.1h10.4v6.9h-10.4v4.1h13.8v7.4h-22.9V510h22.8v7.4H857.5z"/>
		<path class="st30" d="M904,538.5l-0.2,0.6c-0.8,0.7-2.2,1.3-3.9,1.3c-3.5,0-5.5-0.9-8-4.8c-1.2-1.9-3.8-6.3-5.8-6.3h-0.8v10.5
			h-9.1V510h13.7c7.9,0,12.1,3.9,12.1,10c0,4-2.3,6.7-5.6,8.2c0.6,0.3,1.4,1.1,2.3,2.4c0.6,0.9,1.2,2,2.3,2c0.7,0,0.9-0.2,1.2-0.3
			l0.5,0.3L904,538.5z M889.6,523.4c1.7,0,3.2-1,3.2-2.9c0-2-1.5-3.1-3.2-3.1h-4.2v6.1L889.6,523.4L889.6,523.4z"/>
	</g>
	<g>
		<g>
			<path class="st6" d="M843,610c0,12.8-11.6,21.7-28.3,21.7c-11.2,0-22.4-5-27.5-12.3v-1.5l9.6-10h1.5c3.7,4.7,9.9,8,15.1,8
				c5.1,0,8.7-3.1,8.7-7.6s-4.5-7.6-11.1-7.6h-7.3v-13.6h8.9c4.8,0,8.2-2.8,8.2-6.8s-3.4-6.8-8.2-6.8c-4.5,0-8.9,1.7-12.4,4.8h-1.5
				l-7.8-10.5v-1.5c6.6-5.5,15.2-8.6,24.7-8.6c14.9,0,25.3,8.4,25.3,20.5c0,6.3-3.3,11.6-8.9,15.1C838.8,597.2,843,603.1,843,610z"
				/>
		</g>
		<g>
			<path class="st6" d="M886.2,625v7.7h-14.7v-7.4c-8-1.4-14.8-5-18.9-9.7v-1.5l7.9-9.8h1.5c3.3,3.1,9.9,6.8,15.4,6.8
				c4.2,0,7-1.5,7-4c0-3.4-3.9-3.8-9.7-5.4c-8.9-2.6-19.5-7.7-19.5-19.4c0-8.8,6.5-15.4,16.3-17.5v-7.6h14.7v7.7
				c6.6,1.4,12.2,4.3,15.4,8v1.5l-8.1,9.7H892c-2.5-2.5-7.4-6.2-13.1-6.2c-3.4,0-5.7,1.4-5.7,3.7c0,3.1,4.1,4.6,8,5.8
				c10,3.1,21.3,6.4,21.3,19.7C902.5,617.3,895.5,623.1,886.2,625z"/>
		</g>
	</g>
	<g>
		<g>
			<path class="st31" d="M793.3,649.3c10.2,0,20.4,0,30.7,0c2.6,0,2.6-4,0-4c-10.2,0-20.4,0-30.7,0
				C790.8,645.3,790.8,649.3,793.3,649.3L793.3,649.3z"/>
		</g>
	</g>
	<g>
		<g>
			<path class="st31" d="M833.3,649.3c2.6,0,2.6-4,0-4C830.8,645.3,830.8,649.3,833.3,649.3L833.3,649.3z"/>
		</g>
	</g>
	<g>
		<g>
			<path class="st31" d="M852.7,561.3c2.6,0,2.6-4,0-4C850.1,557.3,850.1,561.3,852.7,561.3L852.7,561.3z"/>
		</g>
	</g>
	<g>
		<g>
			<path class="st31" d="M848,556.7c2.6,0,2.6-4,0-4S845.4,556.7,848,556.7L848,556.7z"/>
		</g>
	</g>
	<g>
		<g>
			<path class="st31" d="M854.7,553.7c2.6,0,2.6-4,0-4C852.1,549.7,852.1,553.7,854.7,553.7L854.7,553.7z"/>
		</g>
	</g>
	<g>
		<g>
			<path class="st31" d="M780.7,495.7c23.4,0,46.9,0,70.3,0c2.6,0,2.6-4,0-4c-23.4,0-46.9,0-70.3,0
				C778.1,491.7,778.1,495.7,780.7,495.7L780.7,495.7z"/>
		</g>
	</g>
	<g>
		<g>
			<path class="st31" d="M867.7,495.7c2.6,0,2.6-4,0-4C865.1,491.7,865.1,495.7,867.7,495.7L867.7,495.7z"/>
		</g>
	</g>
	<g>
		<g>
			<path class="st31" d="M876.3,495.7c2.6,0,2.6-4,0-4C873.8,491.7,873.8,495.7,876.3,495.7L876.3,495.7z"/>
		</g>
	</g>
	<g>
		<g>
			<path class="st31" d="M885,495.7c2.6,0,2.6-4,0-4S882.4,495.7,885,495.7L885,495.7z"/>
		</g>
	</g>
	<g>
		<g>
			<path class="st31" d="M775.3,556c2.6,0,2.6-4,0-4C772.8,552,772.8,556,775.3,556L775.3,556z"/>
		</g>
	</g>
	<g>
		<g>
			<path class="st31" d="M901.3,649.3c2.6,0,2.6-4,0-4C898.8,645.3,898.8,649.3,901.3,649.3L901.3,649.3z"/>
		</g>
	</g>
</g>
<g id="Layer_2_1_">
	<path class="st30" d="M1187.4,722.9v103.6c0,11.6-9.4,21-21,21H233.6c-11.6,0-21-9.4-21-21V722.9c0-11.6,9.4-21,21-21h932.8
		C1178,701.9,1187.4,711.3,1187.4,722.9z"/>
	<path class="st8" d="M1217.3,683v13.5c0,13.5-11,24.5-24.5,24.5h-991c-13.5,0-24.5-11-24.5-24.5V683H1217.3z"/>
	<path class="st30" d="M1222.3,660.3h-1050c-3.7,0-6.7,3-6.7,6.7v9.3c0,3.7,3,6.7,6.7,6.7h1050c3.7,0,6.7-3,6.7-6.7V667
		C1229,663.3,1226,660.3,1222.3,660.3z"/>
	<rect x="177.3" y="683" class="st14" width="1040" height="11.3"/>
	<g>
		<g>
			<path class="st32" d="M1095,779.8c4.5,0,4.5-7,0-7S1090.5,779.8,1095,779.8L1095,779.8z"/>
		</g>
	</g>
	<g>
		<g>
			<path class="st32" d="M1107,789.5c4.5,0,4.5-7,0-7S1102.5,789.5,1107,789.5L1107,789.5z"/>
		</g>
	</g>
	<g>
		<g>
			<path class="st32" d="M1110.7,774.5c4.5,0,4.5-7,0-7S1106.2,774.5,1110.7,774.5L1110.7,774.5z"/>
		</g>
	</g>
	<g>
		<g>
			<path class="st32" d="M299.7,835.2c4.5,0,4.5-7,0-7S295.2,835.2,299.7,835.2L299.7,835.2z"/>
		</g>
	</g>
	<g>
		<g>
			<path class="st32" d="M290,821.8c4.5,0,4.5-7,0-7S285.5,821.8,290,821.8L290,821.8z"/>
		</g>
	</g>
	<g>
		<g>
			<path class="st32" d="M282,835.2c4.5,0,4.5-7,0-7S277.5,835.2,282,835.2L282,835.2z"/>
		</g>
	</g>
	<g>
		<g>
			<path class="st32" d="M692.9,779.1c4.5,0,4.5-7,0-7S688.4,779.1,692.9,779.1L692.9,779.1z"/>
		</g>
	</g>
	<g>
		<g>
			<path class="st32" d="M860.3,828.5c4.5,0,4.5-7,0-7S855.8,828.5,860.3,828.5L860.3,828.5z"/>
		</g>
	</g>
	<g>
		<g>
			<path class="st32" d="M370.3,735.5c4.5,0,4.5-7,0-7S365.8,735.5,370.3,735.5L370.3,735.5z"/>
		</g>
	</g>
	<g>
		<g>
			<path class="st32" d="M384.3,742.5c4.5,0,4.5-7,0-7S379.8,742.5,384.3,742.5L384.3,742.5z"/>
		</g>
	</g>
	<g>
		<g>
			<path class="st14" d="M980.8,753c55,0,110,0,165,0c4.5,0,4.5-7,0-7c-55,0-110,0-165,0C976.3,746,976.3,753,980.8,753L980.8,753z"
				/>
		</g>
	</g>
	<g>
		<g>
			<path class="st14" d="M312.3,797.8c67.8,0,135.6,0,203.4,0c19.5,0,39,0,58.6,0c4.5,0,4.5-7,0-7c-67.8,0-135.6,0-203.4,0
				c-19.5,0-39,0-58.6,0C307.8,790.8,307.8,797.8,312.3,797.8L312.3,797.8z"/>
		</g>
	</g>
	<g>
		<g>
			<path class="st14" d="M695.7,830.5c6.7,0,13.3,0,20,0c4.5,0,4.5-7,0-7c-6.7,0-13.3,0-20,0C691.2,823.5,691.2,830.5,695.7,830.5
				L695.7,830.5z"/>
		</g>
	</g>
	<g>
		<g>
			<path class="st14" d="M255.7,741.2c5.3,0,10.7,0,16,0c4.5,0,4.5-7,0-7c-5.3,0-10.7,0-16,0C251.2,734.2,251.2,741.2,255.7,741.2
				L255.7,741.2z"/>
		</g>
	</g>
	<g>
		<g>
			<path class="st14" d="M861.3,783.5c5.7,0,11.3,0,17,0c4.5,0,4.5-7,0-7c-5.7,0-11.3,0-17,0C856.8,776.5,856.8,783.5,861.3,783.5
				L861.3,783.5z"/>
		</g>
	</g>
	<rect x="209.9" y="751.6" class="st32" width="974.8" height="7.5"/>
	<rect x="209.9" y="796.5" class="st32" width="974.8" height="7.5"/>
</g>
<g class="st33">
	<polygon class="st10" points="663.4,659.3 602.6,659.3 588.3,546.3 676.9,546.3 	"/>
	<polygon class="st34" points="663.4,659.3 602.6,659.3 588.3,546.3 676.9,546.3 	"/>
</g>
<rect x="647.3" y="486.3" class="st35" width="3.9" height="3.9"/>
<line class="st36" x1="653" y1="637.5" x2="662.1" y2="561.3"/>
<line class="st36" x1="610.3" y1="626" x2="605" y2="584.7"/>
</svg>
