<?xml version="1.0" encoding="utf-8"?>
<!-- Generator: Adobe Illustrator 22.1.0, SVG Export Plug-In . SVG Version: 6.00 Build 0)  -->
<svg version="1.1" xmlns="http://www.w3.org/2000/svg" xmlns:xlink="http://www.w3.org/1999/xlink" x="0px" y="0px"
	 viewBox="0 0 1400 980" style="enable-background:new 0 0 1400 980;" xml:space="preserve">
<style type="text/css">
	.st0{fill:#0D0E1F;}
	.st1{fill:#6E5535;}
	.st2{fill:#B3B3B3;}
	.st3{fill:#808080;}
	.st4{fill:#999999;}
	.st5{fill:#503B2B;}
	.st6{fill:#91BF3E;}
	.st7{fill:#C7C8CA;}
	.st8{fill:#B25D25;}
	.st9{fill:#284A4C;}
	.st10{fill:#85A155;}
	.st11{fill:#FFFFFF;}
	.st12{fill:#F4BB3A;}
	.st13{fill:#7F2E19;}
	.st14{fill:#D6562B;}
	.st15{fill:#420104;}
	.st16{fill:#28000A;}
	.st17{fill:#F09B36;}
	.st18{fill:#3F2521;}
	.st19{fill:#9C3D19;}
	.st20{fill:#ED7C31;}
	.st21{fill:#B25538;}
	.st22{fill:#883E26;}
	.st23{fill:#937963;}
	.st24{fill:#E18E4E;}
	.st25{fill:#F8DB94;}
	.st26{fill:#E6E6E6;}
	.st27{fill:#C2AD76;}
	.st28{fill:#B55232;}
	.st29{fill:#1F0400;}
	.st30{fill:#8E3613;}
	.st31{fill:#AD9B6A;}
	.st32{fill:#722A0F;}
	.st33{fill:#7989A3;}
	.st34{fill:#DDD4DA;}
	.st35{fill:#F9E3B2;}
	.st36{fill:#B78D7B;}
	.st37{fill:#4F1A06;}
</style>
<g id="Layer_1">
	<rect class="st0" width="1400" height="980"/>
	<path class="st1" d="M1187.4,771H212.6V188.2c0-21.6,17.5-39.2,39.2-39.2h896.4c21.6,0,39.2,17.5,39.2,39.2V771z"/>
</g>
<g id="Layer_4">
	<path class="st2" d="M675.1,414.9v-83.2c0-3.4,2.8-6.2,6.2-6.2h46.6c3.4,0,6.2,2.8,6.2,6.2v83.2H675.1z"/>
	<g>
		<path class="st3" d="M665.5,339.3h9.6v9.1h-9.4c-1,0.1-1,0.6-1,1.3v41.2c0,0.5,0,1.2,0.9,1.3h9.5v9.1l-9.7,0
			c-3.9-0.1-9.8-2.9-9.8-10.3v-41.2C655.7,342.2,661.5,339.4,665.5,339.3L665.5,339.3z"/>
	</g>
	<path class="st4" d="M702.7,414.9v-89.4h25.2c3.4,0,6.2,2.8,6.2,6.2v83.2H702.7z"/>
	<path class="st2" d="M773.8,414.9v-83.2c0-3.4,2.8-6.2,6.2-6.2h46.6c3.4,0,6.2,2.8,6.2,6.2v83.2H773.8z"/>
	<g>
		<path class="st3" d="M764.2,339.3h9.6v9.1h-9.4c-1,0.1-1,0.6-1,1.3v41.2c0,0.5,0,1.2,0.9,1.3h9.5v9.1l-9.7,0
			c-3.9-0.1-9.8-2.9-9.8-10.3v-41.2C754.4,342.2,760.2,339.4,764.2,339.3L764.2,339.3z"/>
	</g>
	<path class="st4" d="M801.4,414.9v-89.4h25.2c3.4,0,6.2,2.8,6.2,6.2v83.2H801.4z"/>
	<path class="st2" d="M872.5,414.9v-83.2c0-3.4,2.8-6.2,6.2-6.2h46.6c3.4,0,6.2,2.8,6.2,6.2v83.2H872.5z"/>
	<g>
		<path class="st3" d="M862.9,339.3h9.6v9.1h-9.4c-1,0.1-1,0.6-1,1.3v41.2c0,0.5,0,1.2,0.9,1.3h9.5v9.1l-9.7,0
			c-3.9-0.1-9.8-2.9-9.8-10.3v-41.2C853.1,342.2,858.9,339.4,862.9,339.3L862.9,339.3z"/>
	</g>
	<path class="st4" d="M900.1,414.9v-89.4h25.2c3.4,0,6.2,2.8,6.2,6.2v83.2H900.1z"/>
	<path class="st2" d="M971.2,414.9v-83.2c0-3.4,2.8-6.2,6.2-6.2h46.6c3.4,0,6.2,2.8,6.2,6.2v83.2H971.2z"/>
	<g>
		<path class="st3" d="M961.6,339.3h9.6v9.1h-9.4c-1,0.1-1,0.6-1,1.3v41.2c0,0.5,0,1.2,0.9,1.3h9.5v9.1l-9.7,0
			c-3.9-0.1-9.8-2.9-9.8-10.3v-41.2C951.7,342.2,957.6,339.4,961.6,339.3L961.6,339.3z"/>
	</g>
	<path class="st4" d="M998.8,414.9v-89.4h25.2c3.4,0,6.2,2.8,6.2,6.2v83.2H998.8z"/>
	<rect x="212.6" y="218.1" class="st5" width="974.8" height="107.9"/>
	<path class="st6" d="M376.7,346.9c0,13.3,0,68.4,0,68.4h-66c0,0,0-55.2,0-68.4c0-7.2,2.1-14.2,5-20.9c2.2-5,4.8-9.9,7.2-14.5
		c3-5.7,5.4-11.7,7.1-17.9c0.4-1.6,3.4-17.6,3-17.6h21.2c-0.4,0,2.6,16,3,17.6c1.7,6.2,4.1,12.2,7.1,17.9c2.4,4.6,5,9.5,7.2,14.5
		C374.6,332.7,376.7,339.7,376.7,346.9z"/>
	<path class="st7" d="M356,270.9h-24.6c-1.4,0-2.5,1.1-2.5,2.5v0c0,1.4,1.1,2.5,2.5,2.5H356c1.4,0,2.5-1.1,2.5-2.5v0
		C358.6,272.1,357.4,270.9,356,270.9z"/>
	<rect x="335.6" y="260.2" class="st8" width="16.2" height="10.7"/>
	<circle class="st9" cx="343.7" cy="360" r="24.1"/>
	<path class="st10" d="M371.7,326h-55.9c2.2-5,4.8-9.9,7.2-14.5c3-5.7,5.4-11.7,7.1-17.9c0.4-1.6,3.4-17.6,3-17.6h21.2
		c-0.4,0,2.6,16,3,17.6c1.7,6.2,4.1,12.2,7.1,17.9C366.9,316.1,369.5,321,371.7,326z"/>
	<g>
		<g>
			<path class="st11" d="M323.5,403.7c8.8,0,17.6,0,26.3,0c2.6,0,2.6-4,0-4c-8.8,0-17.6,0-26.3,0
				C320.9,399.7,320.9,403.7,323.5,403.7L323.5,403.7z"/>
		</g>
	</g>
	<g>
		<g>
			<path class="st11" d="M360.6,403.5c2.6,0,2.6-4,0-4C358,399.5,358,403.5,360.6,403.5L360.6,403.5z"/>
		</g>
	</g>
	<g>
		<g>
			<path class="st11" d="M334.5,369.9c7.1,0,7.1-11,0-11C327.4,358.9,327.4,369.9,334.5,369.9L334.5,369.9z"/>
		</g>
	</g>
	<g>
		<g>
			<path class="st11" d="M340.8,354c4.5,0,4.5-7,0-7C336.3,347,336.3,354,340.8,354L340.8,354z"/>
		</g>
	</g>
	<g>
		<g>
			<path class="st11" d="M345.8,361.9c1.9,0,1.9-3,0-3C343.9,358.9,343.9,361.9,345.8,361.9L345.8,361.9z"/>
		</g>
	</g>
	<g>
		<g>
			<path class="st11" d="M349.4,374.3c7.3-2.8,11-10.5,8.1-17.9c-0.7-1.8-3.6-1-2.9,0.8c2.2,5.8-0.1,11.9-6,14.2
				C346.9,372.1,347.6,375,349.4,374.3L349.4,374.3z"/>
		</g>
	</g>
	<path class="st12" d="M467.5,346.9c0,13.3,0,68.4,0,68.4h-66c0,0,0-55.2,0-68.4c0-7.2,2.1-14.2,5-20.9c2.2-5,4.8-9.9,7.2-14.5
		c3-5.7,5.4-11.7,7.1-17.9c0.4-1.6,3.4-17.6,3-17.6h21.2c-0.4,0,2.6,16,3,17.6c1.7,6.2,4.1,12.2,7.1,17.9c2.4,4.6,5,9.5,7.2,14.5
		C465.4,332.7,467.5,339.7,467.5,346.9z"/>
	<path class="st7" d="M446.9,270.9h-24.6c-1.4,0-2.5,1.1-2.5,2.5v0c0,1.4,1.1,2.5,2.5,2.5h24.6c1.4,0,2.5-1.1,2.5-2.5v0
		C449.4,272.1,448.2,270.9,446.9,270.9z"/>
	<rect x="426.4" y="260.2" class="st8" width="16.2" height="10.7"/>
	<circle class="st13" cx="434.5" cy="360" r="24.1"/>
	<path class="st14" d="M462.5,326h-55.9c2.2-5,4.8-9.9,7.2-14.5c3-5.7,5.4-11.7,7.1-17.9c0.4-1.6,3.4-17.6,3-17.6h21.2
		c-0.4,0,2.6,16,3,17.6c1.7,6.2,4.1,12.2,7.1,17.9C457.7,316.1,460.3,321,462.5,326z"/>
	<g>
		<g>
			<path class="st11" d="M414.3,403.7c8.8,0,17.6,0,26.3,0c2.6,0,2.6-4,0-4c-8.8,0-17.6,0-26.3,0
				C411.7,399.7,411.7,403.7,414.3,403.7L414.3,403.7z"/>
		</g>
	</g>
	<g>
		<g>
			<path class="st11" d="M451.4,403.5c2.6,0,2.6-4,0-4C448.8,399.5,448.8,403.5,451.4,403.5L451.4,403.5z"/>
		</g>
	</g>
	<g>
		<g>
			<path class="st11" d="M425.3,369.9c7.1,0,7.1-11,0-11C418.2,358.9,418.2,369.9,425.3,369.9L425.3,369.9z"/>
		</g>
	</g>
	<g>
		<g>
			<path class="st11" d="M431.7,354c4.5,0,4.5-7,0-7C427.1,347,427.1,354,431.7,354L431.7,354z"/>
		</g>
	</g>
	<g>
		<g>
			<path class="st11" d="M436.7,361.9c1.9,0,1.9-3,0-3C434.7,358.9,434.7,361.9,436.7,361.9L436.7,361.9z"/>
		</g>
	</g>
	<g>
		<g>
			<path class="st11" d="M440.3,374.3c7.3-2.8,11-10.5,8.1-17.9c-0.7-1.8-3.6-1-2.9,0.8c2.2,5.8-0.1,11.9-6,14.2
				C437.7,372.1,438.4,375,440.3,374.3L440.3,374.3z"/>
		</g>
	</g>
	<path class="st15" d="M558.3,346.9c0,13.3,0,68.4,0,68.4h-66c0,0,0-55.2,0-68.4c0-7.2,2.1-14.2,5-20.9c2.2-5,4.8-9.9,7.2-14.5
		c3-5.7,5.4-11.7,7.1-17.9c0.4-1.6,3.4-17.6,3-17.6H536c-0.4,0,2.6,16,3,17.6c1.7,6.2,4.1,12.2,7.1,17.9c2.5,4.6,5.1,9.5,7.2,14.5
		C556.2,332.7,558.3,339.7,558.3,346.9z"/>
	<path class="st7" d="M537.7,270.9H513c-1.4,0-2.5,1.1-2.5,2.5v0c0,1.4,1.1,2.5,2.5,2.5h24.6c1.4,0,2.5-1.1,2.5-2.5v0
		C540.2,272.1,539.1,270.9,537.7,270.9z"/>
	<rect x="517.3" y="260.2" class="st15" width="16.2" height="10.7"/>
	<circle class="st12" cx="525.4" cy="360" r="24.1"/>
	<path class="st16" d="M553.3,326h-55.9c2.2-5,4.8-9.9,7.2-14.5c3-5.7,5.4-11.7,7.1-17.9c0.4-1.6,3.4-17.6,3-17.6H536
		c-0.4,0,2.6,16,3,17.6c1.7,6.2,4.1,12.2,7.1,17.9C548.5,316.1,551.1,321,553.3,326z"/>
	<g>
		<g>
			<path class="st11" d="M505.1,403.7c8.8,0,17.6,0,26.3,0c2.6,0,2.6-4,0-4c-8.8,0-17.6,0-26.3,0
				C502.6,399.7,502.6,403.7,505.1,403.7L505.1,403.7z"/>
		</g>
	</g>
	<g>
		<g>
			<path class="st11" d="M542.2,403.5c2.6,0,2.6-4,0-4C539.6,399.5,539.6,403.5,542.2,403.5L542.2,403.5z"/>
		</g>
	</g>
	<g>
		<g>
			<path class="st11" d="M516.1,369.9c7.1,0,7.1-11,0-11C509,358.9,509,369.9,516.1,369.9L516.1,369.9z"/>
		</g>
	</g>
	<g>
		<g>
			<path class="st11" d="M522.5,354c4.5,0,4.5-7,0-7C518,347,518,354,522.5,354L522.5,354z"/>
		</g>
	</g>
	<g>
		<g>
			<path class="st11" d="M527.5,361.9c1.9,0,1.9-3,0-3C525.5,358.9,525.5,361.9,527.5,361.9L527.5,361.9z"/>
		</g>
	</g>
	<g>
		<g>
			<path class="st11" d="M531.1,374.3c7.3-2.8,11-10.5,8.1-17.9c-0.7-1.8-3.6-1-2.9,0.8c2.2,5.8-0.1,11.9-6,14.2
				C528.5,372.1,529.3,375,531.1,374.3L531.1,374.3z"/>
		</g>
	</g>
	<rect x="212.6" y="419.4" class="st15" width="974.8" height="18.6"/>
	<rect x="212.6" y="411.3" class="st17" width="974.8" height="8"/>
	<rect x="212.6" y="438" class="st5" width="974.8" height="22"/>
	<g>
		<g>
			<path class="st18" d="M412.9,221.7c2.5,0,5,0,7.5,0c2.6,0,2.6-4,0-4c-2.5,0-5,0-7.5,0C410.3,217.7,410.3,221.7,412.9,221.7
				L412.9,221.7z"/>
		</g>
	</g>
	<g>
		<g>
			<path class="st18" d="M431.6,224.3c2.6,0,2.6-4,0-4C429,220.3,429,224.3,431.6,224.3L431.6,224.3z"/>
		</g>
	</g>
	<g>
		<g>
			<path class="st11" d="M688,400c4.7,0,9.3,0,14,0c2.6,0,2.6-4,0-4c-4.7,0-9.3,0-14,0C685.4,396,685.4,400,688,400L688,400z"/>
		</g>
	</g>
	<g>
		<g>
			<path class="st11" d="M786.5,400c4.7,0,9.3,0,14,0c2.6,0,2.6-4,0-4c-4.7,0-9.3,0-14,0C784,396,783.9,400,786.5,400L786.5,400z"/>
		</g>
	</g>
	<g>
		<g>
			<path class="st11" d="M885.1,400c4.7,0,9.3,0,14,0c2.6,0,2.6-4,0-4c-4.7,0-9.3,0-14,0C882.5,396,882.5,400,885.1,400L885.1,400z"
				/>
		</g>
	</g>
	<g>
		<g>
			<path class="st11" d="M983.6,400c4.7,0,9.3,0,14,0c2.6,0,2.6-4,0-4c-4.7,0-9.3,0-14,0C981,396,981,400,983.6,400L983.6,400z"/>
		</g>
	</g>
</g>
<g id="Layer_3">
	<path class="st19" d="M1078.3,449.2c10.4,0.5,20.5,6.5,25.8,15.5c5.3,9,5.8,20.7,1.2,30.1c-3.6,7.3-10.1,13.1-17.8,15.9l-6.3-13.2
		c4.7-1.3,8.9-4.7,11-9c2.4-5,2.2-11.5-0.7-16.3c-2.8-4.7-8.4-8.1-13.9-8.4c0,0-0.1,0-0.1,0L1078.3,449.2z"/>
	<path class="st12" d="M1104.2,547.5l-4.7,43.1c-0.2,1.5-0.4,3-0.8,4.4l-13.6,49.8h-72.2L999.3,595c-0.4-1.5-0.7-2.9-0.8-4.4
		l-4.6-43.1c-1.1-10.3,0.9-20.8,5.7-29.6l19.8-36.4l1.5-2.7l-0.6-4.8l-4.5-36h66.7l-4.5,36l-0.6,4.8l1.5,2.7l19.8,36.4
		C1103.3,526.8,1105.3,537.2,1104.2,547.5z"/>
	<path class="st20" d="M1104.2,547.5l-4.7,43.1c-0.2,1.5-0.4,3-0.8,4.4l-13.6,49.8h-29.7V438h26.9l-4.5,36l-0.6,4.8l1.5,2.7
		l19.8,36.4C1103.3,526.8,1105.3,537.2,1104.2,547.5z"/>
	<path class="st2" d="M679.5,546v110.2c0,4.5-3.7,8.2-8.2,8.2h-61.7c-4.5,0-8.2-3.7-8.2-8.2V546H679.5z"/>
	<g>
		<path class="st3" d="M692.2,646.1h-12.7v-12H692c1.3-0.1,1.3-0.7,1.3-1.7v-54.5c0-0.7,0-1.6-1.2-1.7h-12.6v-12l12.8,0
			c5.2,0.1,12.9,3.9,12.9,13.7v54.5C705.3,642.2,697.5,646,692.2,646.1L692.2,646.1z"/>
	</g>
	<path class="st4" d="M643,546v118.3h-33.3c-4.5,0-8.2-3.7-8.2-8.2V546H643z"/>
	<path class="st21" d="M387.7,555.8v93.3c0,8.4-6.8,15.3-15.3,15.3h-61.2c-8.4,0-15.3-6.8-15.3-15.3v-93.3l30-26v-78.7h31.7v78.7
		L387.7,555.8z"/>
	<path class="st22" d="M334.2,451.2v213.2h-22.9c-8.4,0-15.3-6.8-15.3-15.3v-93.3l30-26v-78.7H334.2z"/>
	<path class="st12" d="M369.2,579.3v45c0,8.6-6.9,15.5-15.5,15.5H330c-8.6,0-15.5-6.9-15.5-15.5v-45c0-8.6,6.9-15.5,15.5-15.5h23.7
		C362.3,563.8,369.2,570.8,369.2,579.3z"/>
	<path class="st23" d="M363.3,451.2h-42.8c-1.6,0-3-1.3-3-3v-2.8c0-1.6,1.3-3,3-3h42.8c1.6,0,3,1.3,3,3v2.8
		C366.2,449.8,364.9,451.2,363.3,451.2z"/>
	<rect x="329.4" y="427.2" class="st12" width="25.2" height="15.5"/>
	<rect x="329.4" y="451.2" class="st22" width="28.6" height="8.3"/>
	<g>
		<g>
			<path class="st24" d="M347.2,476.2c0,9.3,0,18.7,0,28c0,2.6,4,2.6,4,0c0-9.3,0-18.7,0-28C351.2,473.7,347.2,473.6,347.2,476.2
				L347.2,476.2z"/>
		</g>
	</g>
	<g>
		<g>
			<path class="st24" d="M349,517c2.6,0,2.6-4,0-4C346.4,513,346.4,517,349,517L349,517z"/>
		</g>
	</g>
	<g>
		<g>
			<path class="st24" d="M376.7,570.2c0,4.8,0,9.7,0,14.5c0,2.6,4,2.6,4,0c0-4.8,0-9.7,0-14.5C380.7,567.7,376.7,567.6,376.7,570.2
				L376.7,570.2z"/>
		</g>
	</g>
	<path class="st15" d="M504.7,555.8v93.3c0,8.4-6.8,15.3-15.3,15.3h-61.2c-8.4,0-15.3-6.8-15.3-15.3v-93.3l30-26v-78.7h31.7v78.7
		L504.7,555.8z"/>
	<path class="st16" d="M451.2,451.2v213.2h-22.9c-8.4,0-15.3-6.8-15.3-15.3v-93.3l30-26v-78.7H451.2z"/>
	<path class="st25" d="M486.2,579.3v45c0,8.6-6.9,15.5-15.5,15.5H447c-8.6,0-15.5-6.9-15.5-15.5v-45c0-8.6,6.9-15.5,15.5-15.5h23.7
		C479.3,563.8,486.2,570.8,486.2,579.3z"/>
	<path class="st23" d="M480.3,451.2h-42.8c-1.6,0-3-1.3-3-3v-2.8c0-1.6,1.3-3,3-3h42.8c1.6,0,3,1.3,3,3v2.8
		C483.2,449.8,481.9,451.2,480.3,451.2z"/>
	<rect x="446.4" y="427.2" class="st25" width="25.2" height="15.5"/>
	<rect x="446.4" y="451.2" class="st16" width="28.6" height="8.3"/>
	<g>
		<g>
			<path class="st24" d="M464.2,476.2c0,9.3,0,18.7,0,28c0,2.6,4,2.6,4,0c0-9.3,0-18.7,0-28C468.2,473.7,464.2,473.6,464.2,476.2
				L464.2,476.2z"/>
		</g>
	</g>
	<g>
		<g>
			<path class="st24" d="M466,517c2.6,0,2.6-4,0-4C463.4,513,463.4,517,466,517L466,517z"/>
		</g>
	</g>
	<g>
		<g>
			<path class="st24" d="M493.7,570.2c0,4.8,0,9.7,0,14.5c0,2.6,4,2.6,4,0c0-4.8,0-9.7,0-14.5C497.7,567.7,493.7,567.6,493.7,570.2
				L493.7,570.2z"/>
		</g>
	</g>
	<path class="st12" d="M675.4,574.8V652c0,4-3.3,7.3-7.3,7.3h-55.2c-4,0-7.3-3.3-7.3-7.3v-74.4c3.7,0.3,8.4,0.2,14.2-1
		c10.3-2.1,17.2-3,23.2-2.8c3.3,0.1,6.2,0.5,9.3,1.2C659.5,576.7,668.7,576.2,675.4,574.8z"/>
	<path class="st20" d="M643,573.9v85.4h-30.1c-4,0-7.3-3.3-7.3-7.3v-74.4c3.7,0.3,8.4,0.2,14.2-1C630,574.5,637,573.7,643,573.9z"/>
	<g>
		<g>
			<path class="st20" d="M664.8,644.3c2.6,0,2.6-4,0-4C662.2,640.3,662.2,644.3,664.8,644.3L664.8,644.3z"/>
		</g>
	</g>
	<g>
		<g>
			<path class="st20" d="M666.3,637.5c2.6,0,2.6-4,0-4C663.7,633.5,663.7,637.5,666.3,637.5L666.3,637.5z"/>
		</g>
	</g>
	<g>
		<g>
			<path class="st20" d="M659.3,637.5c2.6,0,2.6-4,0-4C656.7,633.5,656.7,637.5,659.3,637.5L659.3,637.5z"/>
		</g>
	</g>
	<g>
		<g>
			<path class="st20" d="M661.8,595c2.6,0,2.6-4,0-4C659.2,591,659.2,595,661.8,595L661.8,595z"/>
		</g>
	</g>
	<g>
		<g>
			<path class="st26" d="M614.3,559c13.2,0,26.3,0,39.5,0c2.6,0,2.6-4,0-4c-13.2,0-26.3,0-39.5,0C611.7,555,611.7,559,614.3,559
				L614.3,559z"/>
		</g>
	</g>
	<g>
		<g>
			<path class="st26" d="M662.5,559.3c2.6,0,2.6-4,0-4C659.9,555.3,659.9,559.3,662.5,559.3L662.5,559.3z"/>
		</g>
	</g>
	<g>
		<g>
			<path class="st27" d="M441.7,584.7c11.1,0,22.2,0,33.3,0c3.9,0,3.9-6,0-6c-11.1,0-22.2,0-33.3,0
				C437.8,578.7,437.8,584.7,441.7,584.7L441.7,584.7z"/>
		</g>
	</g>
	<g>
		<g>
			<path class="st27" d="M455,598c2.8,0,5.6,0,8.3,0c3.9,0,3.9-6,0-6c-2.8,0-5.6,0-8.3,0C451.1,592,451.1,598,455,598L455,598z"/>
		</g>
	</g>
	<g>
		<g>
			<path class="st27" d="M444.3,630.3c9.4-9,21.4-14.3,34.4-15c3.8-0.2,3.9-6.2,0-6c-14.6,0.8-28.1,6.6-38.6,16.8
				C437.2,628.7,441.5,632.9,444.3,630.3L444.3,630.3z"/>
		</g>
	</g>
	<g>
		<g>
			<path class="st28" d="M322.7,582.7c0,12,0,24,0,36c0,3.9,6,3.9,6,0c0-12,0-24,0-36C328.7,578.8,322.7,578.8,322.7,582.7
				L322.7,582.7z"/>
		</g>
	</g>
	<g>
		<g>
			<path class="st28" d="M357,582.3c0,12.3,0,24.7,0,37c0,3.9,6,3.9,6,0c0-12.3,0-24.7,0-37C363,578.5,357,578.5,357,582.3
				L357,582.3z"/>
		</g>
	</g>
	<path class="st25" d="M1078.2,411.9v7.5h-58.3v-7.5c0-2.4,1.9-4.3,4.3-4.3h49.8C1076.3,407.6,1078.2,409.6,1078.2,411.9z"/>
	<path class="st18" d="M1076.5,535.8v55c0,8.9-7.2,16.2-16.2,16.2h-22.7c-8.9,0-16.2-7.2-16.2-16.2v-55c0-8.9,7.2-16.2,16.2-16.2
		h22.7C1069.3,519.6,1076.5,526.9,1076.5,535.8z"/>
	<path class="st14" d="M1086.4,421.1v12.5c0,2.4-2,4.4-4.4,4.4h-66c-2.4,0-4.4-2-4.4-4.4v-12.5c0-2.4,2-4.3,4.4-4.3h66
		C1084.4,416.7,1086.4,418.7,1086.4,421.1z"/>
	<polygon class="st28" points="1078.7,481.5 1019.4,481.5 1020.8,478.8 1020.2,474 1077.8,474 1077.2,478.8 	"/>
	<polygon class="st14" points="1078.7,481.5 1055.5,481.5 1055.5,474 1077.8,474 1077.2,478.8 	"/>
	<path class="st29" d="M1076.5,535.8v55c0,8.9-7.2,16.2-16.2,16.2h-4.9v-87.4h4.9C1069.3,519.6,1076.5,526.9,1076.5,535.8z"/>
	<rect x="1011.4" y="643.3" class="st19" width="75.2" height="31.2"/>
	<path class="st30" d="M1086.4,421.1v12.5c0,2.4-2,4.4-4.4,4.4h-26.6v-21.3h26.6C1084.4,416.7,1086.4,418.7,1086.4,421.1z"/>
	<path class="st31" d="M1078.2,411.9v4.8h-22.8v-9.1h18.5C1076.3,407.6,1078.2,409.6,1078.2,411.9z"/>
	<rect x="1055.7" y="643.3" class="st32" width="30.9" height="31.2"/>
	<rect x="212.6" y="201" class="st33" width="974.8" height="24"/>
	<rect x="212.6" y="201" class="st34" width="974.8" height="8"/>
	<rect x="769" y="479.9" class="st35" width="157" height="194.6"/>
	<g>
		<path class="st13" d="M819.1,531.5c0,5.2-4.4,8.4-10.9,8.4h-14.6V510h13.9c6,0,10,3.2,10,7.8c0,2.8-1.5,4.9-3.9,6.1
			C816.4,525,819.1,527.3,819.1,531.5z M805.9,516.5h-3.2v5.4h3.2c1.8,0,3-1.1,3-2.7S807.7,516.5,805.9,516.5z M810.2,530.4
			c0-1.8-1.4-3-3.6-3h-4v6h4C808.8,533.4,810.2,532.2,810.2,530.4z"/>
		<path class="st13" d="M832.4,517.4v4.1h10.4v6.9h-10.4v4.1h13.8v7.4h-22.9V510h22.8v7.4H832.4z"/>
		<path class="st13" d="M860.2,517.4v4.1h10.4v6.9h-10.4v4.1H874v7.4h-22.9V510h22.8v7.4H860.2z"/>
		<path class="st13" d="M906.7,538.5l-0.2,0.6c-0.8,0.7-2.2,1.3-3.9,1.3c-3.5,0-5.5-0.9-8-4.8c-1.2-1.9-3.8-6.3-5.8-6.3H888v10.5
			h-9.1V510h13.7c7.9,0,12.1,3.9,12.1,10c0,4-2.3,6.7-5.6,8.2c0.6,0.3,1.4,1.1,2.3,2.4c0.6,0.9,1.2,2,2.3,2c0.7,0,0.9-0.2,1.2-0.3
			l0.5,0.3L906.7,538.5z M892.2,523.4c1.7,0,3.2-1,3.2-2.9c0-2-1.5-3.1-3.2-3.1H888v6.1H892.2z"/>
	</g>
	<g>
		<g>
			<path class="st15" d="M845.6,610c0,12.8-11.6,21.7-28.3,21.7c-11.2,0-22.4-5-27.5-12.3v-1.5l9.6-10h1.5c3.7,4.7,9.9,8,15.1,8
				c5.1,0,8.7-3.1,8.7-7.6c0-4.5-4.5-7.6-11.1-7.6h-7.3v-13.6h8.9c4.8,0,8.2-2.8,8.2-6.8c0-4-3.4-6.8-8.2-6.8
				c-4.5,0-8.9,1.7-12.4,4.8h-1.5l-7.8-10.5v-1.5c6.6-5.5,15.2-8.6,24.7-8.6c14.9,0,25.3,8.4,25.3,20.5c0,6.3-3.3,11.6-8.9,15.1
				C841.5,597.2,845.6,603.1,845.6,610z"/>
		</g>
		<g>
			<path class="st15" d="M888.9,625v7.7h-14.7v-7.4c-8-1.4-14.8-5-18.9-9.7v-1.5l7.9-9.8h1.5c3.3,3.1,9.9,6.8,15.4,6.8
				c4.2,0,7-1.5,7-4c0-3.4-3.9-3.8-9.7-5.4c-8.9-2.6-19.5-7.7-19.5-19.4c0-8.8,6.5-15.4,16.3-17.5v-7.6h14.7v7.7
				c6.6,1.4,12.2,4.3,15.4,8v1.5l-8.1,9.7h-1.5c-2.5-2.5-7.4-6.2-13.1-6.2c-3.4,0-5.7,1.4-5.7,3.7c0,3.1,4.1,4.6,8,5.8
				c10,3.1,21.3,6.4,21.3,19.7C905.1,617.3,898.2,623.1,888.9,625z"/>
		</g>
	</g>
	<g>
		<g>
			<path class="st36" d="M796,649.3c10.2,0,20.4,0,30.7,0c2.6,0,2.6-4,0-4c-10.2,0-20.4,0-30.7,0C793.4,645.3,793.4,649.3,796,649.3
				L796,649.3z"/>
		</g>
	</g>
	<g>
		<g>
			<path class="st36" d="M836,649.3c2.6,0,2.6-4,0-4C833.4,645.3,833.4,649.3,836,649.3L836,649.3z"/>
		</g>
	</g>
	<g>
		<g>
			<path class="st36" d="M855.3,561.3c2.6,0,2.6-4,0-4C852.8,557.3,852.8,561.3,855.3,561.3L855.3,561.3z"/>
		</g>
	</g>
	<g>
		<g>
			<path class="st36" d="M850.7,556.7c2.6,0,2.6-4,0-4C848.1,552.7,848.1,556.7,850.7,556.7L850.7,556.7z"/>
		</g>
	</g>
	<g>
		<g>
			<path class="st36" d="M857.3,553.7c2.6,0,2.6-4,0-4C854.8,549.7,854.8,553.7,857.3,553.7L857.3,553.7z"/>
		</g>
	</g>
	<g>
		<g>
			<path class="st36" d="M783.3,495.7c23.4,0,46.9,0,70.3,0c2.6,0,2.6-4,0-4c-23.4,0-46.9,0-70.3,0
				C780.8,491.7,780.8,495.7,783.3,495.7L783.3,495.7z"/>
		</g>
	</g>
	<g>
		<g>
			<path class="st36" d="M870.3,495.7c2.6,0,2.6-4,0-4C867.8,491.7,867.8,495.7,870.3,495.7L870.3,495.7z"/>
		</g>
	</g>
	<g>
		<g>
			<path class="st36" d="M879,495.7c2.6,0,2.6-4,0-4C876.4,491.7,876.4,495.7,879,495.7L879,495.7z"/>
		</g>
	</g>
	<g>
		<g>
			<path class="st36" d="M887.7,495.7c2.6,0,2.6-4,0-4C885.1,491.7,885.1,495.7,887.7,495.7L887.7,495.7z"/>
		</g>
	</g>
	<g>
		<g>
			<path class="st36" d="M778,556c2.6,0,2.6-4,0-4C775.4,552,775.4,556,778,556L778,556z"/>
		</g>
	</g>
	<g>
		<g>
			<path class="st36" d="M904,649.3c2.6,0,2.6-4,0-4C901.4,645.3,901.4,649.3,904,649.3L904,649.3z"/>
		</g>
	</g>
</g>
<g id="Layer_2">
	<path class="st13" d="M1187.4,723v103.6c0,11.6-9.4,21-21,21H233.6c-11.6,0-21-9.4-21-21V723c0-11.6,9.4-21,21-21h932.8
		C1178,702,1187.4,711.4,1187.4,723z"/>
	<path class="st12" d="M1220,683v13.5c0,13.5-11,24.5-24.5,24.5h-991c-13.5,0-24.5-11-24.5-24.5V683H1220z"/>
	<path class="st13" d="M1225,660.3H175c-3.7,0-6.7,3-6.7,6.7v9.3c0,3.7,3,6.7,6.7,6.7h1050c3.7,0,6.7-3,6.7-6.7V667
		C1231.7,663.3,1228.7,660.3,1225,660.3z"/>
	<rect x="180" y="683" class="st20" width="1040" height="11.3"/>
	<g>
		<g>
			<path class="st37" d="M1097.7,779.8c4.5,0,4.5-7,0-7C1093.2,772.8,1093.2,779.8,1097.7,779.8L1097.7,779.8z"/>
		</g>
	</g>
	<g>
		<g>
			<path class="st37" d="M1109.7,789.5c4.5,0,4.5-7,0-7C1105.2,782.5,1105.2,789.5,1109.7,789.5L1109.7,789.5z"/>
		</g>
	</g>
	<g>
		<g>
			<path class="st37" d="M1113.3,774.5c4.5,0,4.5-7,0-7C1108.8,767.5,1108.8,774.5,1113.3,774.5L1113.3,774.5z"/>
		</g>
	</g>
	<g>
		<g>
			<path class="st37" d="M302.3,835.2c4.5,0,4.5-7,0-7C297.8,828.2,297.8,835.2,302.3,835.2L302.3,835.2z"/>
		</g>
	</g>
	<g>
		<g>
			<path class="st37" d="M292.7,821.8c4.5,0,4.5-7,0-7C288.2,814.8,288.2,821.8,292.7,821.8L292.7,821.8z"/>
		</g>
	</g>
	<g>
		<g>
			<path class="st37" d="M284.7,835.2c4.5,0,4.5-7,0-7C280.2,828.2,280.2,835.2,284.7,835.2L284.7,835.2z"/>
		</g>
	</g>
	<g>
		<g>
			<path class="st37" d="M695.6,779.1c4.5,0,4.5-7,0-7C691.1,772.1,691.1,779.1,695.6,779.1L695.6,779.1z"/>
		</g>
	</g>
	<g>
		<g>
			<path class="st37" d="M863,828.5c4.5,0,4.5-7,0-7C858.5,821.5,858.5,828.5,863,828.5L863,828.5z"/>
		</g>
	</g>
	<g>
		<g>
			<path class="st37" d="M373,735.5c4.5,0,4.5-7,0-7C368.5,728.5,368.5,735.5,373,735.5L373,735.5z"/>
		</g>
	</g>
	<g>
		<g>
			<path class="st37" d="M387,742.5c4.5,0,4.5-7,0-7C382.5,735.5,382.5,742.5,387,742.5L387,742.5z"/>
		</g>
	</g>
	<g>
		<g>
			<path class="st20" d="M983.5,753c55,0,110,0,165,0c4.5,0,4.5-7,0-7c-55,0-110,0-165,0C979,746,979,753,983.5,753L983.5,753z"/>
		</g>
	</g>
	<g>
		<g>
			<path class="st20" d="M315,797.8c67.8,0,135.6,0,203.4,0c19.5,0,39,0,58.6,0c4.5,0,4.5-7,0-7c-67.8,0-135.6,0-203.4,0
				c-19.5,0-39,0-58.6,0C310.5,790.8,310.5,797.8,315,797.8L315,797.8z"/>
		</g>
	</g>
	<g>
		<g>
			<path class="st20" d="M698.3,830.5c6.7,0,13.3,0,20,0c4.5,0,4.5-7,0-7c-6.7,0-13.3,0-20,0C693.8,823.5,693.8,830.5,698.3,830.5
				L698.3,830.5z"/>
		</g>
	</g>
	<g>
		<g>
			<path class="st20" d="M258.3,741.2c5.3,0,10.7,0,16,0c4.5,0,4.5-7,0-7c-5.3,0-10.7,0-16,0C253.8,734.2,253.8,741.2,258.3,741.2
				L258.3,741.2z"/>
		</g>
	</g>
	<g>
		<g>
			<path class="st20" d="M864,783.5c5.7,0,11.3,0,17,0c4.5,0,4.5-7,0-7c-5.7,0-11.3,0-17,0C859.5,776.5,859.5,783.5,864,783.5
				L864,783.5z"/>
		</g>
	</g>
	<rect x="212.6" y="751.6" class="st37" width="974.8" height="7.5"/>
	<rect x="212.6" y="796.5" class="st37" width="974.8" height="7.5"/>
</g>
</svg>
