<svg xmlns="http://www.w3.org/2000/svg" viewBox="0 0 523.93 233.52"><defs><style>.a{fill:#231f20;}</style></defs><title>ALEWERKS HEADER LOGO BLACK</title><path class="a" d="M-145.72,95.21c-0.09.57-.2,1.13-0.33,1.68a8.71,8.71,0,0,1,0,1.7H94.71V304.21H-408V98.59h247.08a7.1,7.1,0,0,1-.33-2.09c0-.43,0-0.86,0-1.29H-411.38V307.59H98.09V95.21h-243.8Z" transform="translate(418.62 -81.44)"/><path class="a" d="M-145.09,87.83a8.28,8.28,0,0,1-.18,1.42l0,0.22c0,0.13,0,.26,0,0.39H103.28V312.93H-416.59V89.85h253.93a8.84,8.84,0,0,1-.78-2H-418.62V315H105.31V87.83h-250.4Z" transform="translate(418.62 -81.44)"/><path class="a" d="M-350.91,209.54c-0.81,2.31-5.75,17.38-5.75,20.91,0,2.42.91,5.06,3.93,5.06h3.53c1,0,1.11.44,1.11,0.88v2.42c0,0.88-.1,1.21-0.91,1.21-1.31,0-5.45-.33-13.72-0.33-7.36,0-9.58.33-11,.33-0.61,0-.71-0.66-0.71-1.43V236.5c0-.66.1-1,0.71-1h2.62c2.42,0,4.84-1.54,6.86-4.84,1.41-2.31,8.57-21.46,11.9-31.14,0.81-2.2,9-25.86,9.89-28.83,0.3-1.1.81-2.53,0.1-3.74a3.18,3.18,0,0,1-.71-1.43,1.1,1.1,0,0,1,1-1c3.23-.77,9.78-3.63,11.3-5.5a2.09,2.09,0,0,1,1.31-1c0.6,0,.81.66,1.11,1.87,1.92,6.93,9.78,31.58,11.7,38.62,2.32,8.58,8.88,29,10.29,32,1.72,3.63,4.34,5,5.85,5H-297c0.61,0,.71.44,0.71,1v2.09c0,0.66-.1,1.43-0.91,1.43-1.92,0-4-.33-16.95-0.33-8.37,0-11.9.33-13.92,0.33-1,0-1.11-.66-1.11-1.43V236.5c0-.55.1-1,0.61-1h2.82c2.72,0,3.63-1.1,3-4-0.91-4-4.84-18-6.05-22h-22.09Zm21.18-4.4c-0.91-3.3-6.86-26.41-7.56-29.16-0.41-1.65-.61-2.42-1.11-2.42s-0.91.44-1.21,1.43c-0.51,1.43-9.18,27.4-10,30.15h19.87Z" transform="translate(418.62 -81.44)"/><path class="a" d="M7.13,215.37a0.72,0.72,0,0,1,.84.88c0.24,3.41,1.91,8.14,4.77,12.43a18,18,0,0,0,15,7.48c5.73,0,14.91-3.52,14.91-12.21,0-9.13-1.91-11.78-17.41-17.17A65.3,65.3,0,0,1,8,197.22C3.8,193.81,2,188,2,181.59c0-6.71,1.79-11.22,8.95-16.18,5.37-3.74,9.9-5.28,17.17-5.28,8.71,0,13.36,1.32,15.86,2.2a2.26,2.26,0,0,0,2.74-.55l1.55-1.43a2.52,2.52,0,0,1,1.79-.66c0.83,0,1.07,1.21,1.2,1.87l1.9,18.82a0.63,0.63,0,0,1-.6.66l-2.62.77A1.18,1.18,0,0,1,48.4,181,32.79,32.79,0,0,0,41,169.6c-3-3.08-6.56-4.62-11.92-4.62-8.94,0-12.64,7.15-12.64,10,0,4.07.12,7.37,3.1,10.12,3.1,3,9.9,5.61,15.74,7.15s10.37,4.29,15.26,8.36c4.65,3.85,6.56,8.69,6.56,16.39,0,13.42-10.38,24.32-26.11,24.32-10.73,0-16.34-1.65-21.35-4.73A6,6,0,0,0,6.9,235.4c-0.72,0-1.2.77-1.91,1.87a2.11,2.11,0,0,1-2.15,1.32c-1.31,0-1.79-.55-1.67-1.76l1.91-20.91a0.76,0.76,0,0,1,1-.77Z" transform="translate(418.62 -81.44)"/><path class="a" d="M-117.06,128.66l0-.23a42.21,42.21,0,0,0,.31-5.72,10.82,10.82,0,0,1-2.78,2.7,12.35,12.35,0,0,1,2.44,3.25" transform="translate(418.62 -81.44)"/><path class="a" d="M-187.23,125.42a10.84,10.84,0,0,1-2.78-2.7,42.16,42.16,0,0,0,.31,5.72c0,0.08,0,.15,0,0.23a12.38,12.38,0,0,1,2.44-3.25" transform="translate(418.62 -81.44)"/><rect class="a" x="253.62" y="87.07" width="1.46" height="0.12"/><path class="a" d="M-203.19,149.58c3.41,1.17,14.19,5.41,50.8,5.41s49.09-6.59,49.09-6.59-5.39-12.93-43.7-16.23c24.69,5.65,27.31,14,24.41,15.29-11.48,4.92-53.28,7.61-73.22,1.41-5.72-1.78-7.33-.29-7.38.71" transform="translate(418.62 -81.44)"/><path class="a" d="M-266.14,221.36c0.44-1.74,3.35-12.37,3.57-12.82s0.07-.45-0.15-0.58l-1.46-.52a0.61,0.61,0,0,0-.88.39c-1.09,2.38-6,10.12-10,10.44s-7.21.32-10.64,0.32h-4.15C-290,216-290,202.1-290,201v-5.54c0-4.51.22-14.24,0.22-15.07,0-1.74.29-2.38,2.55-2.38h3.42c0.58,0,.73-0.19.73-0.52V176c0-.45-0.07-0.64-0.65-0.64s-3.72.19-12.24,0.19c-6.63,0-9.25-.19-10.05-0.19-0.44,0-.51.13-0.51,0.45v1.55a0.52,0.52,0,0,0,.51.65h2.69c1.68,0,2,.64,2.19,2.32,0.07,1,.22,7.86.22,12v3.61c0,3.93-.22,20-0.22,21.2,0,0.71-.44,1.61-3.13,1.61h-2.26c-0.44,0-.51.13-0.51,0.46v1.61c0,0.45.07,0.58,0.58,0.58,0.95,0,3.57-.19,10.78-0.19,6.7,0,27.69.07,29.58,0.19" transform="translate(418.62 -81.44)"/><path class="a" d="M-261.69,218.72h-2.19c-0.51,0-.73.2-0.73,0.58v1.35c0,0.51.14,0.71,0.65,0.71s1.6-.06,3.13-0.13,3.5-.07,6.2-0.07c12.6,0,20.33.07,25.06,0.07s6.27,0.13,6.63.13a1.55,1.55,0,0,0,1.61-1l3.27-9.73a0.39,0.39,0,0,0-.29-0.51l-1.24-.64a0.59,0.59,0,0,0-.73.19,77.67,77.67,0,0,1-7.43,6.89,11.86,11.86,0,0,1-5.54,2.12c-1.53.13-4.59,0.2-5.83,0.2-3.65,0-5-.2-6.12-0.58s-1.75-1.55-1.75-4.89c0-1.16-.37-7.41-0.37-10.89v-3.86a56.85,56.85,0,0,1,7.43.38,6,6,0,0,1,4,2.25,18.4,18.4,0,0,1,1.46,3.29c0.15,0.45.29,0.58,0.58,0.51l1.75-.32c0.36-.06.66-0.13,0.58-0.52-0.14-1.35-.44-4.45-0.44-7.34a57.37,57.37,0,0,1,.22-6.7c0.07-.38-0.22-0.45-0.58-0.52l-2-.19a0.5,0.5,0,0,0-.59.58,7.59,7.59,0,0,1-1.68,4,6.07,6.07,0,0,1-3.35,2,53.71,53.71,0,0,1-7.43.39l0.22-18.75,9.62,0.26a13.06,13.06,0,0,1,5.54,1.74c1.68,0.9,8.23,6.7,8.6,7.21a0.69,0.69,0,0,0,.87.26l1.17-.52c0.36-.19.36-0.32,0.21-0.64-0.29-.65-2.7-9.47-3-10.37a0.52,0.52,0,0,0-.58-0.32c-0.36,0-1.75.13-2.91,0.13l-25.58.07c-6.63,0-9.18-.19-10.78-0.19a0.42,0.42,0,0,0-.51.45v1.54c0,0.45.07,0.65,0.36,0.65h2.84c2,0,2.7.45,3,2.51,0.07,0.64.22,8.57,0.22,13.92V216c0,2.26-.29,2.7-3.64,2.7" transform="translate(418.62 -81.44)"/><path class="a" d="M-143.64,218.72h-2.19c-0.51,0-.73.2-0.73,0.58v1.35c0,0.51.14,0.71,0.65,0.71s1.6-.06,3.13-0.13,3.5-.07,6.19-0.07c12.61,0,20.33.07,25.07,0.07s6.27,0.13,6.63.13a1.54,1.54,0,0,0,1.6-1l3.28-9.73a0.4,0.4,0,0,0-.29-0.51l-1.24-.64a0.58,0.58,0,0,0-.73.19,77.5,77.5,0,0,1-7.43,6.89,11.88,11.88,0,0,1-5.53,2.12c-1.53.13-4.59,0.2-5.83,0.2-3.65,0-5-.2-6.12-0.58s-1.75-1.55-1.75-4.89c0-1.16-.37-7.41-0.37-10.89v-3.86a56.84,56.84,0,0,1,7.43.38,6,6,0,0,1,4,2.25,18.07,18.07,0,0,1,1.46,3.29c0.15,0.45.29,0.58,0.58,0.51l1.75-.32c0.36-.06.66-0.13,0.58-0.52-0.14-1.35-.44-4.45-0.44-7.34a57.77,57.77,0,0,1,.22-6.7c0.08-.38-0.22-0.45-0.58-0.52l-2-.19a0.5,0.5,0,0,0-.58.58,7.59,7.59,0,0,1-1.68,4,6.08,6.08,0,0,1-3.35,2,53.7,53.7,0,0,1-7.43.39l0.22-18.75,9.62,0.26a13.06,13.06,0,0,1,5.54,1.74c1.68,0.9,8.24,6.7,8.6,7.21a0.69,0.69,0,0,0,.87.26l1.17-.52c0.37-.19.37-0.32,0.22-0.64-0.29-.65-2.7-9.47-3-10.37a0.53,0.53,0,0,0-.59-0.32c-0.36,0-1.75.13-2.91,0.13l-25.58.07c-4.9,0-7.57-.11-9.28-0.16a0.93,0.93,0,0,0-.27,0h-1.23a0.61,0.61,0,0,0-.31.07c-1.13.06-2.83,0.12-5.24,0.12-4.52,0-7.07-.19-7.8-0.19-0.51,0-.58.19-0.58,0.45v1.61c0,0.39.07,0.58,0.51,0.58h2.11a2.19,2.19,0,0,1,2.33,1.67c0,3.48-6.34,19.84-9.91,28.6h-0.44l-10.05-27.77c-0.36-1.1.29-2.51,1.46-2.51h2.19a0.41,0.41,0,0,0,.51-0.45v-1.61c0-.38-0.08-0.58-0.51-0.58-0.73,0-3.5.19-9.62,0.19-6.41,0-9-.19-9.62-0.19-0.44,0-.51.19-0.51,0.45v1.68c0,0.39.07,0.52,0.44,0.52h1.46a3.34,3.34,0,0,1,2.19,1.22,7,7,0,0,1,1.39,4.06c0,2.32-8.75,22.81-9.62,25H-196l-10-28.09a1.51,1.51,0,0,1,1.46-2.19h1.61c0.51,0,.58-0.19.58-0.52v-1.61c0-.32-0.07-0.52-0.58-0.52-0.73,0-3.72.19-9,.19-7.5,0-9.76-.19-10.35-0.19s-0.59.13-.59,0.45v1.68a0.43,0.43,0,0,0,.44.52h1.82a3.26,3.26,0,0,1,3,2.32l16.4,40.84a1.62,1.62,0,0,0,1.53,1.29,2,2,0,0,0,1.82-1.61c0.29-.64,13-30.6,13.84-32.47h0.44l13,32.34c0.36,0.91.8,1.74,1.82,1.74,1.31,0,1.82-1.22,2.18-2,1.46-3.09,16.11-38.07,17-40.14a3.8,3.8,0,0,1,3.42-2.32h2.85c2,0,2.7.45,3,2.51,0.07,0.64.22,8.57,0.22,13.92V216c0,2.26-.29,2.7-3.64,2.7" transform="translate(418.62 -81.44)"/><path class="a" d="M-1,218.72H-1.83c-0.88,0-1.75-.19-3.13-1.61-3.21-3.29-15.09-18-19.75-23.26,2.47-3,11.95-12.63,16-14.75A10,10,0,0,1-4.53,178h1.16a0.47,0.47,0,0,0,.59-0.45v-1.74a0.41,0.41,0,0,0-.51-0.45c-0.88,0-3.43.19-7,.19-5.76,0-8.75-.19-9.62-0.19a0.38,0.38,0,0,0-.44.45v1.61c0,0.33.07,0.45,0.36,0.45h1.24c1.46,0,2.77,1,1.46,2.51-0.95,1.09-12.75,14.3-14.07,15.21a3.68,3.68,0,0,1-2,.83h-1.24V194c0-3.16.22-13.21,0.22-14.17,0-1.42.94-1.87,2.4-1.87h1.75a0.41,0.41,0,0,0,.51-0.45v-1.67c0-.39-0.14-0.52-0.58-0.52-0.95,0-3.35.19-9.69,0.19-6.56,0-8.74-.19-9.62-0.19-0.44,0-.59.13-0.59,0.39v1.8c0,0.32.15,0.45,0.59,0.45h1.82c1.82,0,2.18.84,2.18,1.55s0.22,12.95.22,14.11v3.74c0,7.93-.15,19.59-0.22,20.17s-0.65,1.15-2,1.15h-2.19c-1.67,0-4.45-.51-5.32-1.35-1.46-1.48-5.4-6.38-5.83-7-0.58-.77-4.59-6.51-5.54-7.54a9.54,9.54,0,0,0-4.81-3.41V199c6.41-.51,13.33-4.19,13.33-12.37,0-2.38-1.53-4.9-4.15-7A19.82,19.82,0,0,0-75,175.36c-3,0-9.4.19-13.48,0.19-7.94,0-10.2-.19-10.86-0.19a0.36,0.36,0,0,0-.44.45v1.74a0.38,0.38,0,0,0,.44.45h2.91c1,0,2,1.09,2,3.22,0.08,1.74.08,5.86,0.08,10.63v6.25c0,6.12,0,12.18-.15,18.56,0,1.61-1.31,2.06-2.92,2.06h-2.18c-0.36,0-.36.2-0.36,0.52v1.48c0,0.45,0,.65.58,0.65,0.8,0,2.48-.19,10.2-0.19s9.48,0.19,9.55.19c1.09,0,1.17-.13,1.17-0.58v-1.54c0-.32-0.07-0.52-0.59-0.52h-3c-1.09,0-1.67-1.15-1.82-2.51-0.14-.84-0.36-8.05-0.36-11.85v-3.28h2.48c3.5,0,6.49,4.77,9,9.15,1.24,2.19,5.76,9.66,7.94,11.15,2.12-.06,4.81-0.19,6.92-0.19,5.42,0,7.36.18,8,.19h0.09c0.75,0,3.14-.19,9.62-0.19,6.77,0,9,.19,9.84.19a0.38,0.38,0,0,0,.44-0.45v-1.81c0-.26-0.22-0.39-0.58-0.39h-2.26a1.55,1.55,0,0,1-1.67-1.41c-0.07-.9-0.22-10.37-0.22-13.6v-4.83h1a2.87,2.87,0,0,1,2,.9c1.24,1.22,12.53,16,13.19,17.33a1.09,1.09,0,0,1-1,1.67h-1.09a0.37,0.37,0,0,0-.44.39v1.67c0,0.39.15,0.52,0.44,0.52,1,0,3.86-.19,9.91-0.19,7.29,0,8.89.19,9.62,0.19,0.44,0,.59-0.13.59-0.45v-1.74A0.44,0.44,0,0,0-1,218.72m-80.23-19.84c-0.65,0-1.53,0-2.91-.06L-83.74,180a2.59,2.59,0,0,1,.8-1.74,4.63,4.63,0,0,1,2.77-.59,13.81,13.81,0,0,1,8.09,2.84,10,10,0,0,1,2.77,7.22,11.34,11.34,0,0,1-11.88,11.14" transform="translate(418.62 -81.44)"/><path class="a" d="M-0.63,166.95H-42.07a30.65,30.65,0,0,0-5.43-3.43s-4.39-6.32-11.94-7.67c-3.49-5.48-9.74-4.06-13.06-4.3-3.1-1.72-6.49-1.52-9.63-.53a14,14,0,0,0-2.19-7.75,57.32,57.32,0,0,0,7.13-3.43s-5-1-6.32-2.91c4.19-1.08,9.85-6.86,9.85-6.86s-4.84-3.2-13.57-3.85c1-1.53,4.22-3.07,4.22-3.07s-6.19-2.27-12.13-1.06c0-1.31,2.45-4.25,2.45-4.25a24.81,24.81,0,0,0-15.61,7.81c-0.42-1,.7-6.32.7-6.32a18.71,18.71,0,0,0-9.43,9.09l0,0.23a12.3,12.3,0,0,0-2.44-3.25c-0.35-.35-0.71-0.67-1.06-1,0.72-5.15-1.68-13.54-1.68-13.54s-2.19,4.68-4.4,5.44c0-4.35-4.24-11.3-4.24-11.3S-135.2,109-138,117.33c-1.24-1.36-1.94-4.87-1.94-4.87a27.4,27.4,0,0,0-3.7,8.93,5.35,5.35,0,0,1,0-.55V107.59h0l0.12-.06a3.46,3.46,0,0,0,2.27-3.13,3.57,3.57,0,0,0-2.42-3.21V89.94c2.7-1.77,3-3.67,2.65-5a4.92,4.92,0,0,0-4.75-3.46h-15.47A4.92,4.92,0,0,0-166,84.9c-0.32,1.36-.05,3.27,2.65,5v11.25a3.57,3.57,0,0,0-2.42,3.21,3.46,3.46,0,0,0,2.27,3.13l0.11,0.06h0v12.69a28,28,0,0,0-3.44-7.83s-0.7,3.51-1.94,4.87c-2.8-8.35-7.13-12.27-7.13-12.27s-4.23,7-4.24,11.3c-2.21-.76-4.4-5.44-4.4-5.44s-2.41,8.39-1.69,13.54c-0.35.3-.7,0.61-1.06,1a12.37,12.37,0,0,0-2.44,3.25l0-.23a18.71,18.71,0,0,0-9.43-9.09s1.13,5.3.7,6.32A24.8,24.8,0,0,0-214,117.85s2.49,2.94,2.44,4.25c-5.93-1.21-12.12,1.06-12.12,1.06s3.22,1.54,4.23,3.07c-8.73.65-13.57,3.85-13.57,3.85s5.66,5.78,9.85,6.86c-1.28,1.95-6.32,2.91-6.32,2.91a57,57,0,0,0,7.13,3.43,14,14,0,0,0-2.2,7.75c-3.14-1-6.53-1.19-9.63.53-3.33.24-9.56-1.18-13.06,4.3-7.55,1.34-11.94,7.67-11.94,7.67a30.65,30.65,0,0,0-5.43,3.43h-42.26v3.35H-0.63v-3.35Zm-63.91-9.36s5.65,1.74,6.79,4.85a6.35,6.35,0,0,1-4.71,3.2A12.38,12.38,0,0,0-69.09,160a10.8,10.8,0,0,0,4.55-2.41m-14.71-1.19c0.18,0.08,6.62-3.18,8.62-1-0.32,1.24-2.2,3.75-4.79,5.29a12.66,12.66,0,0,0,1.61-.74s6,1.47,5.93,4.88c-3.64,3.69-11.24,1.05-11.24,1.05s0-.22,0-0.56a8.76,8.76,0,0,1-.41,1.61H-87.7c-0.24-.43-0.4-0.68-0.4-0.68s1.85-4.95,4.71-5.56a7.31,7.31,0,0,1,2.05.52c2.89-3.64,2.09-4.84,2.09-4.84m-12.61-7.65a9.5,9.5,0,0,0,3.64,1.86,8.79,8.79,0,0,1,1,2.74c-0.59.35-1.15,0.71-1.69,1.06A6.84,6.84,0,0,1-92,152.19a7.6,7.6,0,0,0,.16-3.44m0.78,17.44a3.2,3.2,0,0,1,.69.76h-3.76c0-.15,0-0.29.06-0.45,0.61-1,1.57-1.39,3-.31m9.38-12.87c1.34,4.06-2.23,6.71-2.23,6.71s-5.22,3.39-7.4.67c1.49-5.11,8.59-7,9.63-7.38m-6.7-12.07s2.16,3.41,1.33,5.69a4.26,4.26,0,0,1-4-.16,8.73,8.73,0,0,0-.89-6.08,7.17,7.17,0,0,0,3.52.55m-7.07-9.77a4.82,4.82,0,0,1-4.29,2.91s-4.32-.27-4.21-2.77c3.16-2.3,7.77-.36,8.5-0.14m-9.38,4.73s3.27-2.06,5.06-1.2a4.56,4.56,0,0,1,.84,1.17c3.21-.87,3.34-1.9,3.34-1.9s5,1,5,3.11a8.19,8.19,0,0,1-5.08,1,8.1,8.1,0,0,0,1.3.29s2.47,3.4.85,5.33c-3.63.58-6.41-4.17-6.41-4.17s0.11-.14.26-0.36a8.53,8.53,0,0,1-1.88,1.31,21.49,21.49,0,0,0-2.33-1.92c-0.43-.3-0.89-0.59-1.35-0.88a15.85,15.85,0,0,0,.4-1.76m9.3,11a8.46,8.46,0,0,0-1.61-.77c-0.3-.57-0.65-1.09-1-1.62A5.71,5.71,0,0,0-95.89,146a5.76,5.76,0,0,1,.34,1.22m-10.83-12.36a4.16,4.16,0,0,1-.38,2.21c-1.08-.59-2.22-1.15-3.41-1.67,1.07-1.28,3.28-3,3.8-.53M-124.8,124c3.36,0.08,5.5,3.83,5.88,4.37a4.14,4.14,0,0,1-4.46-.26s-2.81-2.46-1.42-4.1m1.07,4.52a3.94,3.94,0,0,1,0,1.24c2.64,1.09,3.28.46,3.28,0.46s0.75,0.94,1.35,2c-1.64-.49-3.26-0.92-4.85-1.33l-0.27-.07c-2.61-.66-5.09-1.21-7.26-1.67a13.81,13.81,0,0,0,3.7-2.47s3.32,0.31,4.09,1.85m-7.58-5.11c1.34-.37,4.13-0.5,3.14,1.57-0.73,1.54-4.77,2.86-7.12,3.38l-1.24-.26c1.51-1.85,4-4.35,5.21-4.68m-44.11,0c1.22,0.33,3.65,2.78,5.16,4.63l-1.34.28c-2.37-.54-6.25-1.83-7-3.34-1-2.07,1.81-1.94,3.15-1.57m-3.5,3.26a13.92,13.92,0,0,0,3.6,2.43c-2.15.46-4.61,1-7.21,1.65l-0.18,0c-1.58.4-3.2,0.83-4.82,1.31,0.59-1,1.31-1.82,1.3-1.88s0.63,0.63,3.28-.46a4,4,0,0,1,0-1.24c0.77-1.53,4.08-1.85,4.08-1.85m-3-2.67c1.39,1.65-1.42,4.1-1.42,4.1a4.14,4.14,0,0,1-4.45.26c0.38-.54,2.51-4.28,5.88-4.37m14.39,6c3.82-1.49,6.74-5,6.74-9.12v-14.3a21.51,21.51,0,0,0,4.91.53,18.25,18.25,0,0,0,6.81-1.14,29.73,29.73,0,0,1-5.31.45,24.5,24.5,0,0,1-8-1.15,1.18,1.18,0,0,1-.83-0.83c0-.52.91-1,2.42-1.36V88.46c-4.94-2.42-2-4.47-.45-4.47h15.47c1.57,0,4.49,2-.45,4.47V103c1.5,0.36,2.42.84,2.42,1.36a1.18,1.18,0,0,1-.83.83c-1.9.7-1.5,0.84-1.58,1.31v14.3c0,4.09,2.92,7.63,6.74,9.12,2.76,1.08,24,3.91,34.14,11a19.4,19.4,0,0,1,6.42,7.68c1.07,0.26,2.84.87,3.24,2.08,0.33,1-.71,1.75-1.68,2.2a36.93,36.93,0,0,1,.67,14h-2c-0.2-5.21-.83-13.22-0.83-13.22l-5.84,2.07c-11.48,3-28.72,4.94-48,4.94-24.76,0-46.17-3.16-56.31-7.75a0.53,0.53,0,0,1,0-.08c-1-.45-2-1.2-1.68-2.2,0.4-1.22,2.17-1.82,3.24-2.08a19.36,19.36,0,0,1,6.42-7.68c10.11-7.07,31.38-9.9,34.15-11m-47.18,22.22a6.83,6.83,0,0,1-3.11,2.22c-0.53-.36-1.09-0.71-1.68-1.06a8.78,8.78,0,0,1,1-2.74,9.49,9.49,0,0,0,3.64-1.86,7.6,7.6,0,0,0,.16,3.44M-213,166c0,0.32.07,0.61,0.11,0.91h-3.45a3.23,3.23,0,0,1,.69-0.76c1.19-.88,2-0.76,2.65-0.16m2.7-10c11.21,3.71,30.38,6.15,52.13,6.15l3.38,0v4.78h-55.53a39.11,39.11,0,0,1,0-10.9m63.6,10.9h-5.75v-4.82q2.91-.06,5.75-0.17v5Zm8.51,0h-3.62v-5.23l3.62-.24v5.47Zm-73-19.89a5.58,5.58,0,0,1,.3-1,5.52,5.52,0,0,0,1.71-.76c-0.25.4-.52,0.79-0.74,1.22a9.07,9.07,0,0,0-1.26.56m10.79-12.16c0.51-2.38,2.61-.83,3.71.43-1.18.51-2.31,1.05-3.39,1.63a4,4,0,0,1-.33-2.06m-2.41-3.27c0.11,2.5-4.21,2.77-4.21,2.77a4.82,4.82,0,0,1-4.29-2.91c0.72-.22,5.34-2.16,8.5.14m-8.37,2.67s0.13,1,3.35,1.9a4.51,4.51,0,0,1,.84-1.17c1.79-.87,5.06,1.2,5.06,1.2a16.24,16.24,0,0,0,.35,1.6c-0.56.34-1.1,0.68-1.62,1a21.65,21.65,0,0,0-2.22,1.81,8.12,8.12,0,0,1-1.67-1.19c0.15,0.22.26,0.36,0.26,0.36s-2.78,4.75-6.41,4.17c-1.62-1.93.85-5.33,0.85-5.33a8.1,8.1,0,0,0,1.3-.29,8.2,8.2,0,0,1-5.08-1c0-2.11,4.94-3,5-3.11m-7.2,7a7.15,7.15,0,0,0,3.52-.55,8.76,8.76,0,0,0-.89,6.08,4.26,4.26,0,0,1-4,.16c-0.84-2.28,1.33-5.69,1.33-5.69M-225,153.32c1,0.38,8.14,2.26,9.63,7.38-2.17,2.73-7.4-.67-7.4-0.67s-3.58-2.65-2.23-6.71m-17.16,4.26a10.78,10.78,0,0,0,4.55,2.41,12.39,12.39,0,0,0-6.63,5.65,6.34,6.34,0,0,1-4.7-3.2c1.14-3.11,6.79-4.85,6.79-4.85m14.61,7.76c0,0.33,0,.56,0,0.56s-7.6,2.64-11.23-1.05c-0.07-3.41,5.92-4.88,5.92-4.88a12.78,12.78,0,0,0,1.62.74c-2.6-1.54-4.48-4.05-4.79-5.29,2-2.21,8.43,1.05,8.62,1,0,0-.8,1.2,2.09,4.84a7.31,7.31,0,0,1,2.05-.52c2.86,0.61,4.71,5.56,4.71,5.56s-0.16.25-.4,0.68h-8.14a8.77,8.77,0,0,1-.41-1.6" transform="translate(418.62 -81.44)"/><polygon class="a" points="114.87 148.42 417.49 148.42 417.99 145.06 113.73 145.06 114.87 148.42"/><path class="a" d="M14.64,258.17c-5.64-1.34-11.36-2.59-17.1-3.8,0,0.35.06,0.7,0.07,1.06a9.5,9.5,0,0,1,0,1.18c4.91,1,9.8,2.11,14.63,3.24C8.55,263.48,4.8,267.26,1,271.12l-0.47.49,0.23,0.64c1.72,4.84,3.4,9.74,5,14.6-10.56-2.47-21.29-4.72-31.94-6.69l2.17-11.83a15.14,15.14,0,0,1-2.17-.32l-2.55,13.91,1.08,0.2c11.61,2.13,23.32,4.59,34.82,7.32l1.91,0.45L8.52,288C6.78,282.75,5,277.42,3.1,272.16,7.15,268,11.21,263.9,15.16,260l1.41-1.39Z" transform="translate(418.62 -81.44)"/><path class="a" d="M-281.89,269c-0.25,0-.51.06-0.76,0.1l2,11c-10.64,2-21.37,4.22-31.94,6.69,1.6-4.79,3.28-9.69,5-14.6l0.23-.64-0.47-.49c-3.67-3.78-7.42-7.56-11.17-11.27,5-1.18,10.1-2.3,15.19-3.38a14.26,14.26,0,0,1-.51-2.13c-5.75,1.22-11.47,2.49-17.11,3.83l-1.93.46,1.41,1.39c4,4,8.1,8.07,12.07,12.15-1.89,5.34-3.72,10.68-5.43,15.86l-0.61,1.86,1.91-.45c11.5-2.73,23.22-5.19,34.81-7.32l1.08-.2-2.43-13.23C-281,268.81-281.42,268.95-281.89,269Z" transform="translate(418.62 -81.44)"/><path class="a" d="M1.28,241.46l-1.07-.23a743.11,743.11,0,0,0-153.57-16.07,743.11,743.11,0,0,0-153.57,16.07l-1.07.23,6.42,30.36h0l0.23,1.07,0.73-.15c7,3,14,6.07,20.82,9.29a1.08,1.08,0,0,0,.46.1,1.09,1.09,0,0,0,.67-0.23,1.09,1.09,0,0,0,.41-1.06l-2.22-12.06a711.18,711.18,0,0,1,127.12-11.49A711.19,711.19,0,0,1-26.25,268.78l-2.21,12.06a1.1,1.1,0,0,0,.41,1.06,1.08,1.08,0,0,0,.67.23,1.09,1.09,0,0,0,.47-0.1c6.83-3.2,13.83-6.32,20.81-9.29l0.73,0.16Zm-301,28.84-5.74-27.15a740.7,740.7,0,0,1,152.05-15.8,740.79,740.79,0,0,1,152,15.8L-7.07,270.3a713.17,713.17,0,0,0-146.3-15.2,713.16,713.16,0,0,0-146.3,15.2" transform="translate(418.62 -81.44)"/><path class="a" d="M-278.94,251.83a3.43,3.43,0,0,1,3.13,2.94,3.7,3.7,0,0,1-.94,3.34,4.87,4.87,0,0,1-1.58,1.11,10.34,10.34,0,0,1-2.39.68q-5.11.92-10.21,1.92c0-.11,0-0.22-0.06-0.33a1.16,1.16,0,0,0,.49-0.38,0.71,0.71,0,0,0,.06-0.52l-2.35-12.1a0.7,0.7,0,0,0-.25-0.46,1.18,1.18,0,0,0-.61-0.16l-0.07-.34q5.16-1,10.32-1.94a11,11,0,0,1,2.43-.21,4.3,4.3,0,0,1,1.71.43,3.4,3.4,0,0,1,1.85,2.65,3.19,3.19,0,0,1-1.53,3.39m-9.67.61,5.8-1.08a3.4,3.4,0,0,0,1.78-.7,1.53,1.53,0,0,0,.36-1.41,1.48,1.48,0,0,0-.79-1.19,3.5,3.5,0,0,0-2,0l-5.82,1.08,0.63,3.34m1.18,6.26q2.78-.53,5.56-1a4.62,4.62,0,0,0,2.16-.81,1.7,1.7,0,0,0,.51-1.68,1.7,1.7,0,0,0-1.06-1.4,4.55,4.55,0,0,0-2.31,0l-5.59,1q0.36,2,.74,3.9" transform="translate(418.62 -81.44)"/><path class="a" d="M-268.7,251.82c0.26,1.6.52,3.19,0.77,4.78a0.69,0.69,0,0,0,.24.46,1.09,1.09,0,0,0,.59.18l0.05,0.34-4.68.77-0.06-.34a1.11,1.11,0,0,0,.5-0.36,0.7,0.7,0,0,0,.07-0.51q-1-6.08-2-12.18a0.71,0.71,0,0,0-.24-0.47,1.12,1.12,0,0,0-.6-0.18l-0.06-.34q4.78-.8,9.57-1.53a16,16,0,0,1,2.8-.23,5.12,5.12,0,0,1,1.89.4,3.42,3.42,0,0,1,1.54,1.3,4.59,4.59,0,0,1,.69,1.88c0.34,2.36-.83,3.93-3.51,4.74l3.52,3.55a9.4,9.4,0,0,0,1.32,1.18,1.48,1.48,0,0,0,.92.21l0,0.34-5.42.8c0-.11,0-0.23-0.05-0.34,0.37-.11.53-0.27,0.5-0.46A2.66,2.66,0,0,0-261,255l-3.7-3.78-4,.64m-0.38-2.37,5.11-.8a14.16,14.16,0,0,0,1.59-.31,2.69,2.69,0,0,0,.82-0.39,1.62,1.62,0,0,0,.61-1.69,1.62,1.62,0,0,0-1.08-1.44,2.53,2.53,0,0,0-.89-0.14,14.51,14.51,0,0,0-1.62.19l-5.14.81,0.61,3.77" transform="translate(418.62 -81.44)"/><path class="a" d="M-249.25,248.5l0.53,4q4.85-.65,9.71-1.23a0.78,0.78,0,0,0,.49-0.21,1.14,1.14,0,0,0,.23-0.57l0.35,0q0.22,1.87.44,3.74l-0.35,0a1.07,1.07,0,0,0-.35-0.49,0.77,0.77,0,0,0-.52-0.09q-6.84.82-13.67,1.77c0-.11,0-0.22,0-0.34a1.16,1.16,0,0,0,.52-0.35,0.73,0.73,0,0,0,.08-0.52L-253.53,242a0.71,0.71,0,0,0-.23-0.48,1.18,1.18,0,0,0-.6-0.2l0-.34q6.83-1,13.67-1.77a0.79,0.79,0,0,0,.5-0.21,1.11,1.11,0,0,0,.23-0.56l0.36,0,0.44,3.74-0.36,0a1.11,1.11,0,0,0-.35-0.49,0.79,0.79,0,0,0-.54-0.09q-4.79.57-9.57,1.22l0.46,3.43,6.18-.8a0.81,0.81,0,0,0,.5-0.21,1.14,1.14,0,0,0,.23-0.56l0.36,0c0.15,1.22.3,2.44,0.45,3.66l-0.35,0a1.12,1.12,0,0,0-.35-0.49,0.79,0.79,0,0,0-.53-0.09l-6.16.79" transform="translate(418.62 -81.44)"/><path class="a" d="M-223.67,241.66q-1.34,4.36-2.64,8.72a2.81,2.81,0,0,0-.22.84,0.84,0.84,0,0,0,.89.61c0,0.12,0,.23,0,0.34l-4.85.51c0-.12,0-0.22,0-0.34a0.74,0.74,0,0,0,.67-0.8,4.57,4.57,0,0,0-.41-0.91q-2.74-5.11-5.54-10.2a3.75,3.75,0,0,0-.72-1,1.39,1.39,0,0,0-.81-0.29c0-.11,0-0.23,0-0.34l5.34-.59c0,0.11,0,.23,0,0.34a0.7,0.7,0,0,0-.64.7,2,2,0,0,0,.25.68q1.93,3.67,3.84,7.35,1.22-4,2.48-8a2.29,2.29,0,0,0,.15-0.68,0.72,0.72,0,0,0-.82-0.55c0-.11,0-0.23,0-0.34l5.59-.54,0,0.34a0.79,0.79,0,0,0-.7.76,2.1,2.1,0,0,0,.25.62q1.93,3.69,3.82,7.39,1.16-3.91,2.35-7.82a2.37,2.37,0,0,0,.17-0.86,0.76,0.76,0,0,0-.86-0.55c0-.11,0-0.22,0-0.34l5.3-.44c0,0.11,0,.23,0,0.34a1.63,1.63,0,0,0-.75.44,4.28,4.28,0,0,0-.48,1.12q-1.77,5.54-3.48,11.08a3.64,3.64,0,0,0-.22,1,0.74,0.74,0,0,0,.84.58c0,0.12,0,.23,0,0.34l-4.93.44c0-.11,0-0.23,0-0.34a0.74,0.74,0,0,0,.71-0.78,3.53,3.53,0,0,0-.44-0.92q-2-4-4.13-7.9" transform="translate(418.62 -81.44)"/><path class="a" d="M-206.81,249.39l-0.92-12.3a0.71,0.71,0,0,0-.19-0.48,1.29,1.29,0,0,0-.59-0.24c0-.11,0-0.23,0-0.34l4.81-.35c0,0.11,0,.23,0,0.34a1.06,1.06,0,0,0-.55.31,0.71,0.71,0,0,0-.12.51q0.43,6.15.86,12.31a0.71,0.71,0,0,0,.2.49,1.08,1.08,0,0,0,.57.23c0,0.12,0,.23,0,0.34l-4.72.34q0-.17,0-0.34a1.12,1.12,0,0,0,.53-0.32,0.72,0.72,0,0,0,.12-0.51" transform="translate(418.62 -81.44)"/><path class="a" d="M-195.73,239.78q0.26,4.43.52,8.85a0.7,0.7,0,0,0,.19.49,1.09,1.09,0,0,0,.57.25c0,0.12,0,.23,0,0.34l-4.44.27,0-.34a1.13,1.13,0,0,0,.54-0.31,0.71,0.71,0,0,0,.12-0.51q-0.38-6.16-.77-12.32a0.69,0.69,0,0,0-.19-0.48,1.2,1.2,0,0,0-.59-0.24c0-.12,0-0.23,0-0.35l5.24-.31c0,0.11,0,.23,0,0.34a0.51,0.51,0,0,0-.46.52,0.86,0.86,0,0,0,.35.54q4.48,3.93,8.87,7.92-0.2-4.32-.39-8.64a0.7,0.7,0,0,0-.18-0.48,1.17,1.17,0,0,0-.58-0.25l0-.34,4.54-.19c0,0.11,0,.23,0,0.34a1.18,1.18,0,0,0-.55.3,0.72,0.72,0,0,0-.14.5q0.25,6.16.5,12.33a0.72,0.72,0,0,0,.18.49,1.11,1.11,0,0,0,.56.26c0,0.11,0,.23,0,0.34l-4.76.21c0-.11,0-0.23,0-0.34a0.48,0.48,0,0,0,.45-0.48,1.58,1.58,0,0,0-.58-0.72q-4.44-4-9-8" transform="translate(418.62 -81.44)"/><path class="a" d="M-164.67,243.37l-3.76.07a0.78,0.78,0,0,0-.52.16,1.16,1.16,0,0,0-.27.54h-0.36q0-1.7-.08-3.39h0.36a1.09,1.09,0,0,0,.3.53,0.81,0.81,0,0,0,.52.13q3.63-.07,7.25-0.12c0,0.12,0,.23,0,0.34a1.16,1.16,0,0,0-.55.28,0.73,0.73,0,0,0-.16.5c0,1,0,2,0,3a0.73,0.73,0,0,0,.16.5,1.13,1.13,0,0,0,.56.27c0,0.09,0,.18,0,0.27A17.83,17.83,0,0,1-169.5,249a10.11,10.11,0,0,1-6-1.52,6.87,6.87,0,0,1-3.13-5.77,6.68,6.68,0,0,1,2.45-5.66,10.39,10.39,0,0,1,6.61-2.14,12.71,12.71,0,0,1,2.5.18,18.16,18.16,0,0,1,2.68.73,3.61,3.61,0,0,0,1.1.27,0.94,0.94,0,0,0,.55-0.25l0.32,0.16-1.76,3.52-0.33-.16a1.1,1.1,0,0,0-.11-0.5,1.37,1.37,0,0,0-.41-0.37,6.23,6.23,0,0,0-2-.8,9.85,9.85,0,0,0-2.52-.29,6.13,6.13,0,0,0-4,1.38,4.67,4.67,0,0,0-1.67,3.88,4.59,4.59,0,0,0,1.84,3.67,6.41,6.41,0,0,0,4.2,1.2,11.38,11.38,0,0,0,2.47-.33,8.43,8.43,0,0,0,2.11-.8c0-.66,0-1.32,0-2" transform="translate(418.62 -81.44)"/><path class="a" d="M-135.83,243.73l2,3.09-0.29.19a0.87,0.87,0,0,0-.5-0.29,4,4,0,0,0-1.13.48,16.36,16.36,0,0,1-3.25,1.36,11.7,11.7,0,0,1-3.11.32,10.06,10.06,0,0,1-5.86-1.7,7,7,0,0,1-2.12-2.37,7.17,7.17,0,0,1-.89-3.56,6.91,6.91,0,0,1,1.65-4.59c1.65-1.95,4.15-2.91,7.48-2.86a11.7,11.7,0,0,1,3.14.42,15.78,15.78,0,0,1,3.25,1.5,4.26,4.26,0,0,0,1.13.53,0.92,0.92,0,0,0,.53-0.26l0.29,0.2-2.21,3-0.3-.2a2.06,2.06,0,0,0,0-.29,0.8,0.8,0,0,0-.27-0.59,4.89,4.89,0,0,0-1-.68,8.76,8.76,0,0,0-4.21-1.14,6.47,6.47,0,0,0-4.22,1.19,4.63,4.63,0,0,0-1.88,3.8,4.67,4.67,0,0,0,1.8,3.83,6.47,6.47,0,0,0,4.14,1.3,8.74,8.74,0,0,0,4.19-1,4.57,4.57,0,0,0,1-.63,0.79,0.79,0,0,0,.29-0.57,2.24,2.24,0,0,0,0-.28l0.3-.19" transform="translate(418.62 -81.44)"/><path class="a" d="M-121.92,234.37a9.29,9.29,0,0,1,6.3,2.36,7,7,0,0,1,2.19,5.7,7.08,7.08,0,0,1-1.39,3.84c-1.67,2.28-4.23,3.32-7.72,3.18a9.2,9.2,0,0,1-6.17-2.3,7.23,7.23,0,0,1-1.81-2.7,7.33,7.33,0,0,1-.48-2.87,7.14,7.14,0,0,1,1.31-4c1.58-2.26,4.18-3.35,7.78-3.24m-0.09,2.47a5.49,5.49,0,0,0-3.72,1.09,4.76,4.76,0,0,0-1.87,3.76,4.81,4.81,0,0,0,1.58,3.89,5.48,5.48,0,0,0,3.6,1.39,5.42,5.42,0,0,0,3.69-1.07,4.85,4.85,0,0,0,1.41-1.74,4.93,4.93,0,0,0,.5-1.94,4.73,4.73,0,0,0-1.54-4,5.71,5.71,0,0,0-3.64-1.41" transform="translate(418.62 -81.44)"/><path class="a" d="M-101,250.43q-2.42-5.22-4.92-10.43-0.29,4.46-.58,8.92a0.71,0.71,0,0,0,.12.51,1.12,1.12,0,0,0,.53.31c0,0.11,0,.23,0,0.34l-4.44-.28c0-.11,0-0.23,0-0.34a1.17,1.17,0,0,0,.57-0.24,0.73,0.73,0,0,0,.19-0.49q0.38-6.16.75-12.32a0.71,0.71,0,0,0-.13-0.5,1.22,1.22,0,0,0-.55-0.31c0-.11,0-0.23,0-0.34l5.94,0.38c0,0.11,0,.23,0,0.34a0.58,0.58,0,0,0-.57.55,1,1,0,0,0,.12.5q1.84,3.9,3.64,7.81,2.38-3.54,4.8-7.06a1.77,1.77,0,0,0,.34-0.69,0.5,0.5,0,0,0-.52-0.53c0-.12,0-0.23,0-0.34l5.83,0.48c0,0.12,0,.23,0,0.34a1.22,1.22,0,0,0-.59.23,0.7,0.7,0,0,0-.2.48q-0.53,6.14-1.06,12.29a0.73,0.73,0,0,0,.11.51,1.19,1.19,0,0,0,.53.33l0,0.34-4.71-.4c0-.11,0-0.22,0-0.34a1.06,1.06,0,0,0,.57-0.23,0.71,0.71,0,0,0,.2-0.49q0.36-4.46.73-8.92-3.39,4.77-6.7,9.58" transform="translate(418.62 -81.44)"/><path class="a" d="M-82.71,246.07q-0.24,2.39-.47,4.78a0.73,0.73,0,0,0,.12.51,1.11,1.11,0,0,0,.52.33c0,0.11,0,.23,0,0.34l-4.71-.45c0-.12,0-0.23,0-0.34a1.12,1.12,0,0,0,.58-0.22,0.71,0.71,0,0,0,.2-0.47l1.15-12.28a0.71,0.71,0,0,0-.11-0.52A1.21,1.21,0,0,0-86,237.4c0-.11,0-0.23,0-0.34q4.8,0.44,9.6,1a12.8,12.8,0,0,1,2.64.5,4.73,4.73,0,0,1,1.66.92A3.71,3.71,0,0,1-71,241a4.42,4.42,0,0,1,.22,2,4.22,4.22,0,0,1-1.12,2.47,3.87,3.87,0,0,1-2,1.13,10.85,10.85,0,0,1-3.32,0l-5.46-.55m0.24-2.39,5.09,0.52a5.21,5.21,0,0,0,2.16-.08,1.54,1.54,0,0,0,.7-0.57,2,2,0,0,0,.35-0.94,2,2,0,0,0-.14-1,1.52,1.52,0,0,0-.56-0.71,5.15,5.15,0,0,0-2.11-.54l-5.11-.52-0.38,3.83" transform="translate(418.62 -81.44)"/><path class="a" d="M-58.93,251q-3.43-.46-6.87-0.88l-1.27,1.91a1.67,1.67,0,0,0-.29.64,0.75,0.75,0,0,0,.66.73c0,0.11,0,.23,0,0.34l-5-.59c0-.11,0-0.23,0-0.34a1.39,1.39,0,0,0,.71-0.22,3,3,0,0,0,.62-0.77q3.42-5.24,6.93-10.44a2.1,2.1,0,0,0,.37-0.82,0.76,0.76,0,0,0-.56-0.78c0-.11,0-0.23,0-0.34l5.44,0.69,0,0.34a0.71,0.71,0,0,0-.74.53,1.51,1.51,0,0,0,.12.73q2.19,6,4.29,11.91a3.86,3.86,0,0,0,.5,1.06,1.47,1.47,0,0,0,.69.45l-0.05.34-5.53-.76c0-.11,0-0.22,0-0.34a0.69,0.69,0,0,0,.81-0.56,1.59,1.59,0,0,0-.13-0.69L-58.93,251m-0.69-2.11q-0.89-2.73-1.8-5.47-1.59,2.41-3.15,4.84l5,0.63" transform="translate(418.62 -81.44)"/><path class="a" d="M-45.77,246.54q-0.66,4.38-1.31,8.76a0.75,0.75,0,0,0,.08.52,1.14,1.14,0,0,0,.51.35l-0.05.34-4.41-.65c0-.11,0-0.23,0-0.34a1.13,1.13,0,0,0,.59-0.2,0.74,0.74,0,0,0,.23-0.47l1.77-12.21a0.69,0.69,0,0,0-.08-0.51,1.2,1.2,0,0,0-.52-0.36c0-.11,0-0.22,0-0.34l5.2,0.77,0,0.34a0.52,0.52,0,0,0-.56.41,0.85,0.85,0,0,0,.23.61q3.59,4.77,7.08,9.57,0.7-4.27,1.39-8.53a0.68,0.68,0,0,0-.08-0.51,1.17,1.17,0,0,0-.51-0.37l0.05-.34,4.49,0.74c0,0.11,0,.23-0.06.34a1.2,1.2,0,0,0-.61.18,0.7,0.7,0,0,0-.24.46q-1,6.08-2,12.17a0.74,0.74,0,0,0,.07.52,1.17,1.17,0,0,0,.51.37l-0.06.34-4.72-.78,0.05-.33a0.48,0.48,0,0,0,.54-0.38,1.55,1.55,0,0,0-.42-0.82q-3.54-4.84-7.18-9.65" transform="translate(418.62 -81.44)"/><path class="a" d="M-20.82,254.65l-0.91,4.89a0.7,0.7,0,0,0,.06.52,1.2,1.2,0,0,0,.49.38c0,0.11,0,.22-0.06.34l-4.69-.86c0-.11,0-0.22.06-0.34a1.23,1.23,0,0,0,.61-0.17,0.7,0.7,0,0,0,.26-0.46q0.44-2.45.89-4.9-1.84-3.7-3.74-7.39a7,7,0,0,0-.8-1.3,1.75,1.75,0,0,0-.81-0.5c0-.11,0-0.22.06-0.34l6,1.06-0.06.34a0.71,0.71,0,0,0-.86.52,2.2,2.2,0,0,0,.31.91q1,2.17,2,4.33l3.52-3.31a2,2,0,0,0,.61-0.75,0.54,0.54,0,0,0-.12-0.45,1.08,1.08,0,0,0-.51-0.33l0.06-.34,5.89,1.13-0.06.34a1.75,1.75,0,0,0-.93.18,7,7,0,0,0-1.22.93q-3.08,2.78-6.12,5.58" transform="translate(418.62 -81.44)"/><path class="a" d="M-106.37,279q4.79-.63,9.6-1.1,3.36,2.69,6.6,5.46-4.71.35-9.41,0.87-3.33-2.66-6.78-5.24" transform="translate(418.62 -81.44)"/><path class="a" d="M-141.84,285.64q4.69-1.13,9.42-2.14,3.64,2.3,7.19,4.67-4.66.91-9.29,1.95-3.62-2.27-7.32-4.47" transform="translate(418.62 -81.44)"/><path class="a" d="M-118.27,280.79q4.76-.81,9.55-1.48,3.47,2.55,6.82,5.19-4.7.56-9.39,1.26-3.43-2.52-7-5" transform="translate(418.62 -81.44)"/><path class="a" d="M-130.09,283q4.73-1,9.49-1.82,3.56,2.42,7,4.92-4.68.74-9.35,1.62-3.53-2.39-7.16-4.72" transform="translate(418.62 -81.44)"/><path class="a" d="M-130.39,281.33q2.42-3.43,5-6.82,4.83-.91,9.7-1.68-2.64,3.32-5.15,6.68-4.76.84-9.5,1.82" transform="translate(418.62 -81.44)"/><path class="a" d="M-106.54,277.29q2.67-3.24,5.46-6.43,4.9-.54,9.83-0.92-2.9,3.09-5.67,6.25-4.82.47-9.62,1.1" transform="translate(418.62 -81.44)"/><path class="a" d="M-95.35,276.91c1.51-1.7,3-3.39,4.6-5.07l0.66,0q5.59,2,11,4.32-5.26,2.51-10.32,5.25l-0.54,0q-2.66-2.27-5.41-4.49" transform="translate(418.62 -81.44)"/><path class="a" d="M-118.5,279.09q2.54-3.34,5.2-6.64,4.88-.73,9.77-1.31-2.77,3.21-5.41,6.47-4.78.67-9.56,1.48" transform="translate(418.62 -81.44)"/><path class="a" d="M-142.19,284q2.3-3.51,4.71-7,4.8-1.08,9.62-2-2.51,3.41-4.9,6.85-4.73,1-9.43,2.15" transform="translate(418.62 -81.44)"/><path class="a" d="M-88,283.09a228,228,0,0,1,34.36.16A223.39,223.39,0,0,0-84,280.93Z" transform="translate(418.62 -81.44)"/><path class="a" d="M-88.88,269.87a240.57,240.57,0,0,1,36.36.18,234.75,234.75,0,0,0-32,1.48Z" transform="translate(418.62 -81.44)"/><path class="a" d="M-77.35,277.47a214.3,214.3,0,0,1,33.09.13,216,216,0,0,0-33.16-3.12l3,1.52Z" transform="translate(418.62 -81.44)"/><path class="a" d="M-169.25,295.31l-0.81-1.47c9.62-5.34,24.41-8.88,24.56-8.91l0.39,1.63c-0.15,0-14.72,3.52-24.13,8.75" transform="translate(418.62 -81.44)"/><path class="a" d="M-200.37,279q-4.79-.63-9.6-1.1-3.36,2.69-6.6,5.46,4.71,0.35,9.41.87,3.33-2.66,6.78-5.24" transform="translate(418.62 -81.44)"/><path class="a" d="M-164.9,285.64q-4.7-1.13-9.42-2.14-3.64,2.3-7.19,4.67,4.66,0.91,9.29,1.95,3.62-2.27,7.32-4.47" transform="translate(418.62 -81.44)"/><path class="a" d="M-188.47,280.79q-4.76-.81-9.55-1.48-3.46,2.55-6.82,5.19,4.7,0.56,9.39,1.26,3.44-2.52,7-5" transform="translate(418.62 -81.44)"/><path class="a" d="M-176.65,283q-4.72-1-9.48-1.82-3.56,2.42-7,4.92,4.68,0.74,9.35,1.62,3.53-2.39,7.16-4.72" transform="translate(418.62 -81.44)"/><path class="a" d="M-176.35,281.33q-2.42-3.43-4.95-6.82-4.83-.91-9.7-1.68,2.63,3.32,5.15,6.68,4.76,0.84,9.5,1.82" transform="translate(418.62 -81.44)"/><path class="a" d="M-200.2,277.29q-2.67-3.24-5.46-6.43-4.9-.54-9.83-0.92,2.9,3.09,5.67,6.25,4.81,0.47,9.61,1.1" transform="translate(418.62 -81.44)"/><path class="a" d="M-211.38,276.91c-1.51-1.7-3-3.39-4.6-5.07l-0.66,0q-5.59,2-11,4.32,5.26,2.51,10.32,5.25l0.54,0q2.67-2.27,5.41-4.49" transform="translate(418.62 -81.44)"/><path class="a" d="M-188.23,279.09q-2.54-3.34-5.2-6.64-4.87-.73-9.77-1.31,2.76,3.21,5.41,6.47,4.79,0.67,9.56,1.48" transform="translate(418.62 -81.44)"/><path class="a" d="M-164.55,284q-2.3-3.51-4.71-7-4.8-1.08-9.62-2,2.51,3.41,4.9,6.85,4.73,1,9.43,2.15" transform="translate(418.62 -81.44)"/><path class="a" d="M-218.75,283.09a228,228,0,0,0-34.35.16,223.37,223.37,0,0,1,30.37-2.32Z" transform="translate(418.62 -81.44)"/><path class="a" d="M-217.85,269.87a240.56,240.56,0,0,0-36.36.18,234.79,234.79,0,0,1,32,1.48Z" transform="translate(418.62 -81.44)"/><path class="a" d="M-229.39,277.47a214.26,214.26,0,0,0-33.09.13,215.93,215.93,0,0,1,33.16-3.12l-3,1.52Z" transform="translate(418.62 -81.44)"/><path class="a" d="M-137.49,295.31c-9.42-5.23-24-8.71-24.13-8.75l0.39-1.63c0.15,0,14.94,3.57,24.56,8.91Z" transform="translate(418.62 -81.44)"/></svg>